<svg xmlns="http://www.w3.org/2000/svg" xmlns:xlink="http://www.w3.org/1999/xlink" width="428" height="1911" viewBox="0 0 428 1911">
  <defs>
    <clipPath id="clip-path">
      <rect id="Rectangle_1377" data-name="Rectangle 1377" width="428" height="1911" transform="translate(188 -3)" fill="none"/>
    </clipPath>
    <clipPath id="clip-path-2">
      <rect id="Rectangle_1376" data-name="Rectangle 1376" width="680.648" height="569.571" fill="none"/>
    </clipPath>
  </defs>
  <g id="Artboard_1" data-name="Artboard 1" transform="translate(-188 3)" clip-path="url(#clip-path)">
    <rect id="Rectangle_1369" data-name="Rectangle 1369" width="428" height="1936.86" transform="translate(188 0.098)" fill="#782ed9"/>
    <path id="Path_5253" data-name="Path 5253" d="M390.108,53.665c153.07,102.284,345.147,179.062,542.6,213.794,225.92,39.722,467.987,6.459,663.174,123.927,96.367,58.005,158.858,135,202.291,222.235,44.6,89.559,73.831,179.529,155.312,254.644,42.954,39.631,94.382,73.668,150.93,100.005V0H317.86a883.6,883.6,0,0,0,72.248,53.665Z" transform="translate(36.587 0.417)" fill="#5b1fbe" opacity="0.73"/>
    <path id="Path_5254" data-name="Path 5254" d="M1893.367,1250.028a1100.832,1100.832,0,0,0-198.232,170.449c-48.106,52.515-95.9,106.1-151.331,150.549-111.22,89.081-245.189,116.683-378.5,65.706-65.535-25.061-126.877-61.229-195.143-78.43-62.446-15.709-124.892-7.381-184.427,16.324C696.928,1610.009,604.608,1681,562,1773.475H2076.311V1171.94C2011.49,1184.357,1950.773,1211.719,1893.367,1250.028Z" transform="translate(64.688 163.483)" fill="#5b1fbe" opacity="0.73"/>
    <path id="Path_5255" data-name="Path 5255" d="M1058.951-704.68-574.62-3.333l518.78,1306.8L1577.787,602.1l-49.41-124.451-56.87,24.4c-23.038,9.9-49.667-1.618-59.179-25.574s1.561-51.649,24.6-61.514l56.87-24.412-29.651-74.671-56.87,24.4c-23.038,9.9-49.667-1.618-59.178-25.574s1.561-51.649,24.6-61.514l56.87-24.4-29.65-74.671-56.871,24.4c-23.038,9.888-49.667-1.618-59.178-25.574s1.561-51.649,24.6-61.514l56.87-24.4L1335.687-7.639l-56.87,24.4c-23.038,9.888-49.667-1.618-59.179-25.574s1.561-51.649,24.6-61.514l56.87-24.4-29.65-74.682L1214.587-145c-23.038,9.888-49.667-1.618-59.179-25.574s1.561-51.66,24.6-61.514l56.87-24.4-29.651-74.682-56.87,24.412c-23.038,9.888-49.667-1.618-59.179-25.574s1.561-51.66,24.6-61.514l56.87-24.412-29.64-74.671-56.87,24.412c-23.094,9.705-49.712-1.8-59.224-25.79s1.561-51.649,24.6-61.514l56.87-24.412Z" transform="translate(-66.141 -97.633)" fill="#faf4cd"/>
    <line id="Line_118" data-name="Line 118" x1="511.911" y1="1289.486" transform="translate(818.988 -717.561)" fill="none" stroke="#e7b0f4" stroke-linecap="round" stroke-linejoin="round" stroke-width="2.53"/>
    <line id="Line_119" data-name="Line 119" x1="511.911" y1="1289.486" transform="translate(731.608 -680.037)" fill="none" stroke="#e7b0f4" stroke-linecap="round" stroke-linejoin="round" stroke-width="2.53"/>
    <line id="Line_120" data-name="Line 120" x1="511.911" y1="1289.486" transform="translate(644.229 -642.525)" fill="none" stroke="#e7b0f4" stroke-linecap="round" stroke-linejoin="round" stroke-width="2.53"/>
    <line id="Line_121" data-name="Line 121" x1="511.911" y1="1289.486" transform="translate(556.849 -605.014)" fill="none" stroke="#e7b0f4" stroke-linecap="round" stroke-linejoin="round" stroke-width="2.53"/>
    <line id="Line_122" data-name="Line 122" x1="511.911" y1="1289.486" transform="translate(469.47 -567.49)" fill="none" stroke="#e7b0f4" stroke-linecap="round" stroke-linejoin="round" stroke-width="2.53"/>
    <line id="Line_123" data-name="Line 123" x1="511.911" y1="1289.486" transform="translate(382.09 -529.978)" fill="none" stroke="#e7b0f4" stroke-linecap="round" stroke-linejoin="round" stroke-width="2.53"/>
    <line id="Line_124" data-name="Line 124" x1="511.922" y1="1289.486" transform="translate(294.711 -492.466)" fill="none" stroke="#e7b0f4" stroke-linecap="round" stroke-linejoin="round" stroke-width="2.53"/>
    <line id="Line_125" data-name="Line 125" x1="511.922" y1="1289.486" transform="translate(207.331 -454.943)" fill="none" stroke="#e7b0f4" stroke-linecap="round" stroke-linejoin="round" stroke-width="2.53"/>
    <line id="Line_126" data-name="Line 126" x1="511.922" y1="1289.486" transform="translate(119.952 -417.431)" fill="none" stroke="#e7b0f4" stroke-linecap="round" stroke-linejoin="round" stroke-width="2.53"/>
    <line id="Line_127" data-name="Line 127" x1="511.922" y1="1289.486" transform="translate(32.572 -379.919)" fill="none" stroke="#e7b0f4" stroke-linecap="round" stroke-linejoin="round" stroke-width="2.53"/>
    <line id="Line_128" data-name="Line 128" x1="511.922" y1="1289.486" transform="translate(-54.807 -342.396)" fill="none" stroke="#e7b0f4" stroke-linecap="round" stroke-linejoin="round" stroke-width="2.53"/>
    <line id="Line_129" data-name="Line 129" x1="511.911" y1="1289.486" transform="translate(-142.176 -304.884)" fill="none" stroke="#e7b0f4" stroke-linecap="round" stroke-linejoin="round" stroke-width="2.53"/>
    <line id="Line_130" data-name="Line 130" x1="511.911" y1="1289.486" transform="translate(-229.555 -267.372)" fill="none" stroke="#e7b0f4" stroke-linecap="round" stroke-linejoin="round" stroke-width="2.53"/>
    <line id="Line_131" data-name="Line 131" x1="511.911" y1="1289.486" transform="translate(-316.935 -229.849)" fill="none" stroke="#e7b0f4" stroke-linecap="round" stroke-linejoin="round" stroke-width="2.53"/>
    <line id="Line_132" data-name="Line 132" x1="511.911" y1="1289.486" transform="translate(-404.314 -192.337)" fill="none" stroke="#e7b0f4" stroke-linecap="round" stroke-linejoin="round" stroke-width="2.53"/>
    <line id="Line_133" data-name="Line 133" x1="511.911" y1="1289.486" transform="translate(-491.694 -154.825)" fill="none" stroke="#e7b0f4" stroke-linecap="round" stroke-linejoin="round" stroke-width="2.53"/>
    <line id="Line_134" data-name="Line 134" x1="1398.062" y2="600.259" transform="translate(-51.585 463.945)" fill="none" stroke="#e7b0f4" stroke-linecap="round" stroke-linejoin="round" stroke-width="2.53"/>
    <line id="Line_135" data-name="Line 135" x1="1398.062" y2="600.248" transform="translate(-91.093 364.43)" fill="none" stroke="#e7b0f4" stroke-linecap="round" stroke-linejoin="round" stroke-width="2.53"/>
    <line id="Line_136" data-name="Line 136" x1="1398.062" y2="600.248" transform="translate(-130.612 264.903)" fill="none" stroke="#e7b0f4" stroke-linecap="round" stroke-linejoin="round" stroke-width="2.53"/>
    <line id="Line_137" data-name="Line 137" x1="1398.062" y2="600.248" transform="translate(-170.12 165.377)" fill="none" stroke="#e7b0f4" stroke-linecap="round" stroke-linejoin="round" stroke-width="2.53"/>
    <line id="Line_138" data-name="Line 138" x1="1398.062" y2="600.259" transform="translate(-209.628 65.85)" fill="none" stroke="#e7b0f4" stroke-linecap="round" stroke-linejoin="round" stroke-width="2.53"/>
    <line id="Line_139" data-name="Line 139" x1="1398.062" y2="600.259" transform="translate(-249.136 -33.677)" fill="none" stroke="#e7b0f4" stroke-linecap="round" stroke-linejoin="round" stroke-width="2.53"/>
    <line id="Line_140" data-name="Line 140" x1="1398.062" y2="600.248" transform="translate(-288.645 -133.193)" fill="none" stroke="#e7b0f4" stroke-linecap="round" stroke-linejoin="round" stroke-width="2.53"/>
    <line id="Line_141" data-name="Line 141" x1="1398.072" y2="600.248" transform="translate(-328.164 -232.719)" fill="none" stroke="#e7b0f4" stroke-linecap="round" stroke-linejoin="round" stroke-width="2.53"/>
    <line id="Line_142" data-name="Line 142" x1="1398.062" y2="600.259" transform="translate(-367.672 -332.246)" fill="none" stroke="#e7b0f4" stroke-linecap="round" stroke-linejoin="round" stroke-width="2.53"/>
    <line id="Line_143" data-name="Line 143" x1="1398.062" y2="600.259" transform="translate(-407.18 -431.773)" fill="none" stroke="#e7b0f4" stroke-linecap="round" stroke-linejoin="round" stroke-width="2.53"/>
    <line id="Line_144" data-name="Line 144" x1="1398.062" y2="600.248" transform="translate(-446.688 -531.288)" fill="none" stroke="#e7b0f4" stroke-linecap="round" stroke-linejoin="round" stroke-width="2.53"/>
    <g id="Group_1417" data-name="Group 1417" transform="translate(410.648 2.696)" clip-path="url(#clip-path-2)">
      <path id="Path_5256" data-name="Path 5256" d="M0,0,81.372.453l2.64,483.468L2.64,483.468Z" transform="translate(308.263 398.481) rotate(-164.44)" fill="#ff711c"/>
      <path id="Path_5257" data-name="Path 5257" d="M.453,2.207,404.621,0l-.453,81.373L0,83.58Z" transform="translate(237.864 339.111) rotate(-74.44)" fill="#ff711c"/>
      <path id="Path_5258" data-name="Path 5258" d="M643.815,351.8l-4.461,16.449-48.808,89.89-14.5-4.124L577.1,351.491,581.8,334.21Z" transform="translate(-344.343 44.224)" fill="#ff5a10"/>
      <path id="Path_5259" data-name="Path 5259" d="M0,0,83.5.468l.078,14.1L.078,14.1Z" transform="translate(331.402 326.997) rotate(-164.291)" fill="#fff"/>
      <path id="Path_5260" data-name="Path 5260" d="M0,0,83.729.466,83.806,14.6.077,14.138Z" transform="translate(337.644 294.24) rotate(-164.44)" fill="#fff"/>
      <path id="Path_5261" data-name="Path 5261" d="M0,0,83.729.466,83.806,14.6.077,14.138Z" transform="translate(407.103 35.036) rotate(-164.44)" fill="#fff"/>
      <path id="Path_5262" data-name="Path 5262" d="M0,0,83.729.466,83.806,14.6.077,14.138Z" transform="translate(416.073 2.131) rotate(-164.44)" fill="#fff"/>
      <path id="Path_5263" data-name="Path 5263" d="M100.968.006c55.66-.327,100.7,13.342,100.6,30.531S156.256,61.925,100.6,62.253-.1,48.911,0,31.722,45.308.333,100.968.006Z" transform="translate(275.673 228.663) rotate(-73.09)" fill="#fff"/>
      <path id="Path_5333" data-name="Path 5333" d="M0,0,80.685.071l.468,484.116L.468,484.116Z" transform="matrix(-1, 0.009, -0.009, -1, 567.98, 418.905)" fill="#ffb200"/>
      <path id="Path_5334" data-name="Path 5334" d="M0,0,80.778.071l.392,404.7L.392,404.7Z" transform="matrix(1, -0.009, 0.009, 1, 482.823, -23.648)" fill="#ffb200"/>
      <path id="Path_5264" data-name="Path 5264" d="M876.072,369.76l.156,17.087L853.7,486.978l-15.054.137-26.762-98.821-.156-17.941Z" transform="translate(-317.215 49.171)" fill="#ffb200"/>
      <path id="Path_5335" data-name="Path 5335" d="M0,0,83.583.073l.014,14.07L.014,14.07Z" transform="matrix(-1, 0.009, -0.009, -1, 568.209, 344.592)" fill="#fff"/>
      <path id="Path_5336" data-name="Path 5336" d="M0,0,83.583.073l.014,14.07L.014,14.07Z" transform="matrix(-1, 0.009, -0.009, -1, 567.922, 310.436)" fill="#fff"/>
      <path id="Path_5337" data-name="Path 5337" d="M0,0,83.583.073l.014,14.07L.014,14.07Z" transform="matrix(-1, 0.009, -0.009, -1, 564.445, 41.727)" fill="#fff"/>
      <path id="Path_5338" data-name="Path 5338" d="M0,0,83.583.073l.014,14.07L.014,14.07Z" transform="matrix(-1, 0.009, -0.009, -1, 564.135, 7.56)" fill="#fff"/>
      <path id="Path_5265" data-name="Path 5265" d="M100.969,0c55.76-.012,100.959,13.888,100.955,31.046S156.715,62.122,100.955,62.134,0,48.246,0,31.088,45.209.012,100.969,0Z" transform="translate(487.393 263.971) rotate(-89.427)" fill="#fff"/>
      <path id="Path_5266" data-name="Path 5266" d="M0,0,81.571.681l3.971,482.308-81.571-.681Z" transform="matrix(-0.903, -0.431, 0.431, -0.903, 95.15, 299.416)" fill="#00bbcd"/>
      <path id="Path_5267" data-name="Path 5267" d="M.681,3.32,403.879,0,403.2,81.571,0,84.891Z" transform="matrix(0.431, -0.903, 0.903, 0.431, 34.736, 228.138)" fill="#00bbcd"/>
      <path id="Path_5268" data-name="Path 5268" d="M454.888,264.754,447.7,280.166,384.4,360.1l-13.582-6.618,18.388-100.814,7.56-16.187Z" transform="translate(-367.965 30.626)" fill="#00bbcd"/>
      <path id="Path_5269" data-name="Path 5269" d="M0,0,83.934.7l.116,14.1L.116,14.1Z" transform="matrix(-0.903, -0.431, 0.431, -0.903, 127.296, 232.749)" fill="#fff"/>
      <path id="Path_5270" data-name="Path 5270" d="M0,0,83.934.7l.116,14.1L.116,14.1Z" transform="matrix(-0.903, -0.431, 0.431, -0.903, 141.692, 201.925)" fill="#fff"/>
      <path id="Path_5271" data-name="Path 5271" d="M100.8.012C156.317-.462,201.2,13.124,201.055,30.357s-45.277,31.588-100.8,32.062S-.149,49.307,0,32.074,45.278.486,100.8.012Z" transform="translate(91.476 126.254) rotate(-63.14)" fill="#fff"/>
    </g>
    <path id="Path_5272" data-name="Path 5272" d="M286.313,553.72l26.015-15.3-27.086-30.666-58.554,34.425L239.468,581.3,265.494,566l40.935,72.666-148.309,87.2L117.174,653.2l17.362-10.252L54.55,327.817,212.438,235,438.993,463.968l17.351-10.252,40.935,72.677L327.249,626.386ZM209.784,489.6l39.91-23.455-67.72-78.168-4.327,2.552Z" transform="translate(6.279 33.116)" fill="#ff711c"/>
    <path id="Path_5273" data-name="Path 5273" d="M266.872,268.935h0c-13.42-.044-24.289-11.147-24.332-24.856V110.8A24.675,24.675,0,0,1,266.872,86h0c13.42.044,24.289,11.147,24.332,24.856v133.28A24.675,24.675,0,0,1,266.872,268.935Z" transform="translate(27.917 12.384)" fill="#ff711c"/>
    <path id="Path_5274" data-name="Path 5274" d="M184.06,169.325h0c.043-13.708,10.913-24.807,24.332-24.845H338.859c13.418.038,24.289,11.137,24.332,24.845h0c-.037,13.712-10.909,24.819-24.332,24.856H208.392C194.969,194.143,184.1,183.037,184.06,169.325Z" transform="translate(21.186 20.521)" fill="#ff711c"/>
    <line id="Line_145" data-name="Line 145" y2="183.128" transform="translate(289.001 1753.317)" fill="none" stroke="#782ed9" stroke-linecap="round" stroke-linejoin="round" stroke-width="5.71"/>
    <path id="Path_5275" data-name="Path 5275" d="M1537.108,498.921h4.784a21.218,21.218,0,0,0,3.267-11.072l1.327-168.73a22.125,22.125,0,0,0-3.2-11.391c-3.346-5.559-5.91-11.813-9.78-16.78-14.809-18.967-32.2-39.357-54.049-39.528-8.8,0-17.429,3.326-25.212,8.2-31.368,19.684-48.875,66.07-40.311,106.829,3.8,18.021,11.943,34.254,19.994,50.179a216.8,216.8,0,0,0,39.43,55.385,89.364,89.364,0,0,0,63.75,26.906Z" transform="translate(162.5 35.4)" fill="#ff711c"/>
    <path id="Path_5276" data-name="Path 5276" d="M1563.955,498.412a21.549,21.549,0,0,0,13.058-4.351c24.755-18.864,45.954-40.622,63.762-73.042,8.675-15.8,17.462-31.9,21.722-49.849,9.635-40.576-7.917-87.281-40.378-107.478-8.051-5.012-17.016-8.532-26.227-8.612-22.826-.194-41.359,19.912-57.149,38.64-4.07,4.807-6.891,10.89-10.337,16.335a22.758,22.758,0,0,0-3.713,11.984l-1.371,166.235a21.7,21.7,0,0,0,2.52,10.138Z" transform="translate(175.34 35.909)" fill="#ff711c"/>
    <path id="Path_5277" data-name="Path 5277" d="M1535.374,323.718s36.43-80.492-47.6-98.718" transform="translate(171.248 31.724)" fill="none" stroke="#70220a" stroke-linecap="round" stroke-linejoin="round" stroke-width="7.16"/>
    <path id="Path_5278" data-name="Path 5278" d="M1536.73,253.839c15.612-33.958,55.755-54.086,91.617-46.033C1610.951,243.689,1575.134,262.018,1536.73,253.839Z" transform="translate(176.883 29.086)" fill="#00bbcd"/>
    <path id="Path_5279" data-name="Path 5279" d="M1384.891,267.79c-8.352,26.531-1.427,57.47,17.4,77.644s48.741,28.729,75.08,21.473" transform="translate(159.003 37.678)" fill="none"/>
    <path id="Path_5280" data-name="Path 5280" d="M1394.366,259.4a96.365,96.365,0,0,0,11.407,72.712,92.694,92.694,0,0,0,58.978,42.341" transform="translate(160.189 36.511)" fill="none" stroke="#faf4cd" stroke-linecap="round" stroke-linejoin="round" stroke-width="18.86"/>
    <path id="Path_5281" data-name="Path 5281" d="M1661.825,275.61l20.284,41.989,45.351,6.732L1694.643,357l7.75,46.147-40.567-21.792-40.556,21.792,7.75-46.147-32.829-32.671,45.362-6.732Z" transform="translate(183.727 38.766)" fill="#ffb200"/>
    <path id="Path_5282" data-name="Path 5282" d="M1580.38,411.06c27.03,8.464,48.25,33.776,52.287,62.357" transform="translate(181.907 57.613)" fill="none" stroke="#faf4cd" stroke-linecap="round" stroke-linejoin="round" stroke-width="18.86"/>
    <path id="Path_5283" data-name="Path 5283" d="M1471.453,326.45a102.17,102.17,0,0,0,.6,74.887" transform="translate(168.586 45.84)" fill="none" stroke="#ff5a10" stroke-linecap="round" stroke-linejoin="round" stroke-width="12.57"/>
    <path id="Path_5284" data-name="Path 5284" d="M1586.005,385.74c-14.675,11.2-21.343,32.215-15.89,50.122" transform="translate(180.509 54.09)" fill="none" stroke="#ff5a10" stroke-linecap="round" stroke-linejoin="round" stroke-width="12.57"/>
    <path id="Path_5285" data-name="Path 5285" d="M1407.855,280.07c-4.784,10.059-17.206,15.561-27.655,12.269" transform="translate(158.866 39.387)" fill="none" stroke="#e7b0f4" stroke-linecap="round" stroke-linejoin="round" stroke-width="2.64"/>
    <path id="Path_5286" data-name="Path 5286" d="M1415,303a29.9,29.9,0,0,1-30,11.619" transform="translate(159.419 42.577)" fill="none" stroke="#e7b0f4" stroke-linecap="round" stroke-linejoin="round" stroke-width="2.64"/>
    <path id="Path_5287" data-name="Path 5287" d="M1431.092,330.65a29.9,29.9,0,0,1-29.952,11.665" transform="translate(161.276 46.424)" fill="none" stroke="#e7b0f4" stroke-linecap="round" stroke-linejoin="round" stroke-width="2.64"/>
    <path id="Path_5288" data-name="Path 5288" d="M1622.843,419.8c-10.148-.125-21.667,12.531-22.112,22.874" transform="translate(184.25 58.829)" fill="none" stroke="#e7b0f4" stroke-linecap="round" stroke-linejoin="round" stroke-width="2.64"/>
    <path id="Path_5289" data-name="Path 5289" d="M1638.283,437.66c-14.686.262-27.633,14.7-26.607,29.618" transform="translate(185.503 61.314)" fill="none" stroke="#e7b0f4" stroke-linecap="round" stroke-linejoin="round" stroke-width="2.64"/>
    <path id="Path_5290" data-name="Path 5290" d="M15.431,0A15.1,15.1,0,0,1,30.759,15.02,15.352,15.352,0,0,1,15.329,30.143,15.1,15.1,0,0,1,0,15.123,15.352,15.352,0,0,1,15.431,0Z" transform="matrix(0.16, -0.987, 0.987, 0.16, 1519.392, 306.614)" fill="none" stroke="#70220a" stroke-width="2.106"/>
    <ellipse id="Ellipse_179" data-name="Ellipse 179" cx="15.02" cy="15.344" rx="15.02" ry="15.344" transform="translate(1552.292 281.99)" fill="none" stroke="#70220a" stroke-miterlimit="10" stroke-width="2.1"/>
    <path id="Path_5291" data-name="Path 5291" d="M1385.147,259.27a3.133,3.133,0,1,1-3.066,3.133A3.1,3.1,0,0,1,1385.147,259.27Z" transform="translate(159.083 36.493)" fill="#70220a"/>
    <ellipse id="Ellipse_180" data-name="Ellipse 180" cx="3.067" cy="3.133" rx="3.067" ry="3.133" transform="translate(1556.874 294.202)" fill="#70220a"/>
    <path id="Path_5292" data-name="Path 5292" d="M1473.416,267.11a42.98,42.98,0,0,0-21.276,10.4" transform="translate(167.147 37.583)" fill="none" stroke="#faf4cd" stroke-linecap="round" stroke-linejoin="round" stroke-width="8.38"/>
    <path id="Path_5293" data-name="Path 5293" d="M1439.335,286.28a15.232,15.232,0,0,0-4.215,8.76" transform="translate(165.188 40.251)" fill="none" stroke="#faf4cd" stroke-linecap="round" stroke-linejoin="round" stroke-width="8.38"/>
    <path id="Path_5294" data-name="Path 5294" d="M1590.62,273.21a39.064,39.064,0,0,1,30.186,20.277" transform="translate(183.086 38.432)" fill="none" stroke="#faf4cd" stroke-linecap="round" stroke-linejoin="round" stroke-width="8.38"/>
    <path id="Path_5295" data-name="Path 5295" d="M93,0c51.286-.207,92.8,15.27,92.722,34.57s-41.713,35.113-93,35.32S-.076,54.621,0,35.322,41.714.209,93,0Z" transform="translate(1901.119 137.282) rotate(-11.01)" fill="none" stroke="#fff" stroke-width="2.46"/>
    <path id="Path_5296" data-name="Path 5296" d="M83.71.006c46.055-.373,83.246,16.745,83.07,38.234S129.125,77.452,83.071,77.826-.176,61.081,0,39.592,37.655.379,83.71.006Z" transform="translate(1928.543 212.932) rotate(-65.04)" fill="none" stroke="#fff" stroke-width="2.46"/>
    <path id="Path_5297" data-name="Path 5297" d="M39.423,0c21.3-.214,38.2,37.279,37.735,83.744s-18.11,84.305-39.414,84.519S-.454,130.985.009,84.52,18.119.215,39.423,0Z" transform="translate(1919.183 106.951) rotate(-34.94)" fill="none" stroke="#fff" stroke-width="2.46"/>
    <path id="Path_5298" data-name="Path 5298" d="M1761.5,72.291a11.446,11.446,0,1,1-12.511-10.514A11.623,11.623,0,0,1,1761.5,72.291Z" transform="translate(200.127 9.006)" fill="#00bbcd"/>
    <path id="Path_5299" data-name="Path 5299" d="M1848.847,199.522A11.446,11.446,0,1,1,1836.336,189,11.623,11.623,0,0,1,1848.847,199.522Z" transform="translate(210.181 26.707)" fill="#00bbcd"/>
    <path id="Path_5300" data-name="Path 5300" d="M1890.957,117.562a11.446,11.446,0,1,1-12.522-10.526,11.623,11.623,0,0,1,12.522,10.526Z" transform="translate(215.028 15.303)" fill="#00bbcd"/>
    <ellipse id="Ellipse_181" data-name="Ellipse 181" cx="11.43" cy="11.745" rx="11.43" ry="11.745" transform="translate(2024.159 61.931)" fill="#00bbcd"/>
    <path id="Path_5301" data-name="Path 5301" d="M1773.2,203.221a11.435,11.435,0,1,1-12.511-10.514,11.611,11.611,0,0,1,12.511,10.514Z" transform="translate(201.477 27.224)" fill="#00bbcd"/>
    <path id="Path_5302" data-name="Path 5302" d="M1721.817,152.682a11.446,11.446,0,1,1-12.511-10.526A11.623,11.623,0,0,1,1721.817,152.682Z" transform="translate(195.56 20.19)" fill="#00bbcd"/>
    <path id="Path_5303" data-name="Path 5303" d="M1808.245,135.314a14.3,14.3,0,1,1-15.611-13.146,14.523,14.523,0,0,1,15.611,13.146Z" transform="translate(204.852 17.407)" fill="#ff711c"/>
    <ellipse id="Ellipse_182" data-name="Ellipse 182" cx="151.754" cy="155.026" rx="151.754" ry="155.026" transform="translate(1626.892 1413.933)" fill="#ff90ff"/>
    <path id="Path_5304" data-name="Path 5304" d="M1521.834,1307.592c24.621,10.856,51.641,6.414,74.054-7.416,20.919-12.929,37.389-32.021,50.815-53.745-53.817-15.158-111.435,1.1-150,42.331a67.486,67.486,0,0,0,25.134,18.83Z" transform="translate(172.276 173.072)" fill="#ff74fc"/>
    <path id="Path_5305" data-name="Path 5305" d="M1486.61,1459.909c37.143,50.388,100.553,72.631,160.162,56.182C1606.149,1471.961,1541.183,1438.334,1486.61,1459.909Z" transform="translate(171.114 202.618)" fill="#ff74fc"/>
    <path id="Path_5306" data-name="Path 5306" d="M1728.688,1343.54c-11.831,13.533-18.187,31.213-16.727,51.432a66.438,66.438,0,0,0,13.459,35.963,158.873,158.873,0,0,0,3.268-87.4Z" transform="translate(197.029 187.36)" fill="#ff74fc"/>
    <path id="Path_5307" data-name="Path 5307" d="M1692.8,1413.64c-5.152-42.148,11.553-84.479,43.556-109.973a154.553,154.553,0,0,0-20.072-24.458c-26.6,44.085-61.933,81.3-111.321,98.615a146.121,146.121,0,0,1-141.272-25.585,158.989,158.989,0,0,0,3.156,87.418c80.778-33.912,175.562,11.391,229.845,78.6a152.363,152.363,0,0,0,24.32-21.268c3.412-3.691,6.591-7.507,9.579-11.392C1710.274,1468.41,1696.513,1443.907,1692.8,1413.64Z" transform="translate(167.94 178.409)" fill="#ff74fc"/>
    <path id="Path_5308" data-name="Path 5308" d="M1692.291,1259.992c3.144,2.016,6.323,3.941,9.5,5.878,102.221-41.214,173.455-50.259,184.772-28.388,15.611,30.1-79.953,122.868-246.962,213.02s-295.859,118.471-311.427,88.432c-12.333-23.831,45.073-87,152.435-157.042,0-3.645.078-7.3.245-10.947-101.8,66.07-178.673,137.836-160.809,172.375,22.86,44.2,182.621-8.259,323.849-84.513s273.669-181.534,250.809-225.732C1878.335,1201.463,1791.893,1219.291,1692.291,1259.992Z" transform="translate(151.645 169.74)" fill="#00fbd4"/>
    <path id="Path_5309" data-name="Path 5309" d="M191.7,673.24l21.533,44.575,48.15,7.142-34.836,34.687,8.218,48.995L191.7,785.5l-43.065,23.136,8.229-48.995L122.03,724.957l48.139-7.142Z" transform="translate(14.046 94.093)" fill="#ffb200"/>
    <path id="Path_5310" data-name="Path 5310" d="M477.314,337.64,487.06,357.8l21.789,3.235-15.768,15.7,3.724,22.168-19.492-10.457L457.833,398.9l3.713-22.168-15.756-15.7,21.778-3.235Z" transform="translate(51.312 47.397)" fill="#ffb200"/>
    <path id="Path_5311" data-name="Path 5311" d="M650.8,484.75,669.044,522.5l40.779,6.049-29.506,29.39,6.958,41.487L650.8,579.846l-36.475,19.582L621.3,557.94,591.79,528.55l40.779-6.049Z" transform="translate(68.117 67.866)" fill="#ffb200"/>
    <path id="Path_5312" data-name="Path 5312" d="M440.425,578.7l9.746,20.174,21.789,3.235-15.768,15.7,3.713,22.168-19.481-10.469-19.492,10.469,3.724-22.168-15.768-15.7,21.789-3.235Z" transform="translate(47.065 80.939)" fill="#ffb200"/>
    <path id="Path_5313" data-name="Path 5313" d="M1001.262,280.26l18.232,37.751,40.79,6.049-29.517,29.39,6.969,41.487-36.475-19.582-36.475,19.582,6.969-41.487L942.24,324.06l40.79-6.049Z" transform="translate(108.455 39.413)" fill="#ffb200"/>
    <path id="Path_5314" data-name="Path 5314" d="M1345.64,44.72l16.236,30.324,29.7,16.586-29.7,16.586-16.236,30.335L1329.4,108.216,1299.72,91.63,1329.4,75.044Z" transform="translate(149.603 6.64)" fill="#fff"/>
    <path id="Path_5315" data-name="Path 5315" d="M1491.065,45.47l9.746,20.163,21.778,3.235-15.757,15.7,3.714,22.168-19.481-10.457-19.492,10.457,3.724-22.168-15.768-15.7,21.789-3.235Z" transform="translate(167.997 6.744)" fill="#ffb200"/>
    <path id="Path_5316" data-name="Path 5316" d="M1281.9,418.02l18.232,37.763,40.78,6.049-29.506,29.378,6.969,41.5L1281.9,513.116l-36.475,19.593,6.969-41.5-29.517-29.378,40.779-6.049Z" transform="translate(140.758 58.581)" fill="#ffb200"/>
    <path id="Path_5317" data-name="Path 5317" d="M1783.443,353.18l13.37,24.97,24.443,13.658-24.443,13.658-13.37,24.97-13.37-24.97-24.443-13.658,24.443-13.658Z" transform="translate(200.928 49.559)" fill="#fff"/>
    <path id="Path_5318" data-name="Path 5318" d="M82,.053c46.864,1.6,86.155,39.18,87.758,83.93s-35.088,79.727-81.952,78.124S1.654,122.927.051,78.177,35.139-1.55,82,.053Z" transform="translate(1875.09 1218.778) rotate(-28.3)" fill="#84f8f6"/>
    <path id="Path_5319" data-name="Path 5319" d="M1761.74,1050.547c27.309,24.423,65.858,27.526,100.12,13.3C1835.128,1039.969,1794.729,1034.6,1761.74,1050.547Z" transform="translate(186.44 129.036)" fill="#00d1be"/>
    <path id="Path_5320" data-name="Path 5320" d="M1771.467,1145.2a97.39,97.39,0,0,1-13.879,32.531,87.826,87.826,0,0,0,24.642,13.5c30.915-38.7,67.682-71.056,116.6-85.082a76.132,76.132,0,0,0-13.608-32.882c-43.243,19.656-93.358,15.139-127.253-17.117a79.026,79.026,0,0,0-27.132,37.036c-.327.951-.531,1.889-.816,2.84C1756.894,1099.955,1777.781,1114.556,1771.467,1145.2Z" transform="translate(174.998 132.73)" fill="#00d1be"/>
    <ellipse id="Ellipse_183" data-name="Ellipse 183" cx="77.076" cy="83.157" rx="77.076" ry="83.157" transform="translate(1254.224 1617.998)" fill="#ffb200"/>
    <path id="Path_5321" data-name="Path 5321" d="M1147.563,1556.544c15.232-32.773,7.672-69.1-14.652-96.064a88.137,88.137,0,0,0-8.14,37.045,86.272,86.272,0,0,0,22.793,59.019Z" transform="translate(129.465 203.631)" fill="#ff711c"/>
    <path id="Path_5322" data-name="Path 5322" d="M1237.192,1531.688a92.145,92.145,0,0,1,33.866,2.449,88.159,88.159,0,0,0,5.854-26.873c-44.113-16.153-83.923-39.653-110.05-80.1a78.7,78.7,0,0,0-26.763,22.783c29.818,33.469,39.129,80.879,18.433,122.15a72.516,72.516,0,0,0,41.538,13.191c.959,0,1.9-.114,2.843-.148C1199.279,1559.346,1207.163,1535.572,1237.192,1531.688Z" transform="translate(131.23 198.995)" fill="#ff711c"/>
    <path id="Path_5323" data-name="Path 5323" d="M1838.641,1452.86l18.243,37.74,40.779,6.06-29.506,29.378,6.958,41.5-36.475-19.593-36.475,19.593,6.969-41.5-29.506-29.378,40.78-6.06Z" transform="translate(204.842 202.571)" fill="#ffb200"/>
    <path id="Path_5324" data-name="Path 5324" d="M1606.366,1075.68l19,35.484,34.724,19.4-34.724,19.4-19,35.484-18.99-35.484-34.735-19.4,34.735-19.4Z" transform="translate(178.715 150.089)" fill="#fff"/>
    <path id="Path_5325" data-name="Path 5325" d="M1265.8,1305.24l9.746,20.163,21.789,3.235-15.768,15.7,3.725,22.167-19.492-10.469-19.481,10.469,3.714-22.167-15.756-15.7,21.789-3.235Z" transform="translate(142.07 182.03)" fill="#ffb200"/>
    <path id="Path_5326" data-name="Path 5326" d="M1344.9,1585.24l13.37,24.97,24.443,13.658-24.443,13.658-13.37,24.97-13.37-24.97-24.443-13.658,24.443-13.658Z" transform="translate(150.451 220.99)" fill="#fff"/>
    <path id="Path_5327" data-name="Path 5327" d="M383.353,1661.711,145.3,1532.533c-15.83-8.647-21.849-28.733-13.47-44.951h0a32.286,32.286,0,0,1,43.991-13.761l238.052,129.19c15.823,8.647,21.842,28.724,13.47,44.939h0A32.285,32.285,0,0,1,383.353,1661.711Z" transform="translate(14.739 204.951)" fill="none" stroke="#ffb200" stroke-linecap="round" stroke-linejoin="round" stroke-width="6.02"/>
    <path id="Path_5328" data-name="Path 5328" d="M323.257,1626.2,137.782,1525.543a18.194,18.194,0,0,1-7.282-24.263l2.632-5.058a17.433,17.433,0,0,1,23.763-7.427L342.37,1589.438a18.2,18.2,0,0,1,7.271,24.275l-2.621,5.047a17.445,17.445,0,0,1-23.763,7.439Z" transform="translate(14.787 207.28)" fill="none" stroke="#ffb200" stroke-linecap="round" stroke-linejoin="round" stroke-width="6.02"/>
    <path id="Path_5329" data-name="Path 5329" d="M155.512,1281.79l18.232,37.751,40.779,6.049-29.506,29.39,6.969,41.487-36.475-19.582-36.475,19.582L126,1354.98,96.49,1325.59l40.779-6.049Z" transform="translate(11.106 178.768)" fill="#ffb200"/>
    <path id="Path_5330" data-name="Path 5330" d="M428.093,1505.3l13.37,24.97,24.443,13.658-24.443,13.658-13.37,24.97-13.37-24.97-24.443-13.658,24.443-13.658Z" transform="translate(44.923 209.867)" fill="#fff"/>
    <path id="Path_5331" data-name="Path 5331" d="M359.444,1460.28l9.746,20.163,21.789,3.235-15.768,15.7,3.724,22.168-19.492-10.457-19.481,10.457,3.713-22.168-15.756-15.7,21.778-3.235Z" transform="translate(37.745 203.603)" fill="#ffb200"/>
    <path id="Path_5332" data-name="Path 5332" d="M503.093,1372.28l13.37,24.97,24.443,13.658-24.443,13.659-13.37,24.97-13.37-24.97-24.443-13.659,24.443-13.658Z" transform="translate(53.555 191.359)" fill="#fff"/>
  </g>
</svg>
