<svg xmlns="http://www.w3.org/2000/svg" xmlns:xlink="http://www.w3.org/1999/xlink" width="428" height="4284" viewBox="0 0 428 4284">
  <defs>
    <clipPath id="clip-path">
      <rect id="Rectangle_1484" data-name="Rectangle 1484" width="428" height="4284" transform="translate(0 60)" fill="#fff" stroke="#707070" stroke-width="1"/>
    </clipPath>
    <clipPath id="clip-path-2">
      <rect id="Rectangle_1463" data-name="Rectangle 1463" width="3148" height="4367" fill="#fff" stroke="#707070" stroke-width="1"/>
    </clipPath>
  </defs>
  <g id="Mask_Group_9" data-name="Mask Group 9" transform="translate(0 -60)" clip-path="url(#clip-path)">
    <g id="Group_1483" data-name="Group 1483">
      <g id="Mask_Group_4" data-name="Mask Group 4" transform="translate(0 60)" clip-path="url(#clip-path-2)">
        <g id="Group_1463" data-name="Group 1463" transform="translate(-954.369 -0.118)">
          <g id="Group_1462" data-name="Group 1462" transform="translate(0 0)">
            <path id="Path_5861" data-name="Path 5861" d="M-.273.5H4902.758V4295.276H-.273Z" transform="translate(0.273 -0.5)" fill="#782ed9"/>
            <path id="Path_5799" data-name="Path 5799" d="M483.44,118.913C833.992,345.76,1274.223,515.644,1726.415,592.674c517.39,88.1,1071.452,14.617,1518.463,275.139,220.7,128.645,362.959,299.826,462.427,493.3,102.15,198.625,169.237,398.339,355.839,564.931,98.371,87.894,216.5,163,346,221.414V.065H317.819A2021.557,2021.557,0,0,0,483.44,118.913Z" transform="translate(493.887 -0.065)" fill="#5b1fbe" opacity="0.73"/>
            <path id="Path_5800" data-name="Path 5800" d="M3611.8,1344.947a2500.5,2500.5,0,0,0-454.227,377.7c-110.169,116.468-220.692,235.169-347.64,333.749-254.71,197.564-560.52,259.582-865.819,146.523-150.083-55.581-291.328-136.052-447.668-174.2-143.009-34.839-285.086-16.757-421.431,35.817-203.38,78.47-415.682,236.106-513.26,441.2h3468.2V1172.39C3881.5,1199.922,3743.259,1259.989,3611.8,1344.947Z" transform="translate(873.085 1789.029)" fill="#5b1fbe" opacity="0.73"/>
            <path id="Path_5801" data-name="Path 5801" d="M585.871,941.967,644.9,907.778,582.592,839.4,448.127,915.917l29.517,86.287,60.673-32.562,93.469,161.177L292.345,1322.928l-95.109-161.177,41-22.793L54.573,440.526l360.758-205.14,519.82,507.949,39.355-22.793,93.469,161.177L679.341,1103.132ZM410.412,798.7l91.829-52.1L346.459,574.03l-9.839,4.883Z" transform="translate(84.811 358.84)" fill="#ff711c"/>
            <path id="Path_5802" data-name="Path 5802" d="M298.554,492.622h0A55.824,55.824,0,0,1,242.8,437.269V140.963A55.934,55.934,0,0,1,298.554,85.61h0a55.824,55.824,0,0,1,55.753,55.353V437.269a55.935,55.935,0,0,1-55.754,55.353Z" transform="translate(377.051 130.919)" fill="#ff711c"/>
            <path id="Path_5803" data-name="Path 5803" d="M184.391,199.7h0a55.822,55.822,0,0,1,55.754-55.353H538.59A55.822,55.822,0,0,1,594.343,199.7h0a55.8,55.8,0,0,1-55.754,55.353H240.144A55.8,55.8,0,0,1,184.391,199.7Z" transform="translate(286.233 220.343)" fill="#ff711c"/>
            <line id="Line_174" data-name="Line 174" y2="407.011" transform="translate(661.663 3886.956)" fill="none" stroke="#782ed9" stroke-linecap="round" stroke-linejoin="round" stroke-width="5.71"/>
            <path id="Path_5804" data-name="Path 5804" d="M1699.139,799.982h9.839a46.3,46.3,0,0,0,8.2-24.42l3.28-374.45c-.036-8.93-3.444-16.831-8.2-24.42-7.661-12.328-12.462-26.43-21.317-37.445-33.913-42.064-74.6-87.535-124.626-87.915-20.148,0-39.568,7.1-57.393,17.908-71.837,43.657-111.441,147.3-91.83,237.694,8.709,39.967,27.477,75.388,45.915,110.707A485.442,485.442,0,0,0,1553.2,741.371C1591.961,779.587,1644.4,799.982,1699.139,799.982Z" transform="translate(2193.773 383.607)" fill="#ff711c"/>
            <path id="Path_5805" data-name="Path 5805" d="M1616.429,794.2a49.379,49.379,0,0,0,29.517-9.768c56.693-41.836,105.159-89.274,145.943-161.177,19.868-35.041,41.079-70.891,50.834-110.707,22.063-89.991-19.13-192.9-93.469-237.694-18.438-11.116-37.939-19.36-59.033-19.537-52.276-.43-95.024,43.127-131.185,84.658-9.321,10.659-16.706,25.37-24.6,37.445a47.314,47.314,0,0,0-8.2,26.048L1522.96,771.4a48.979,48.979,0,0,0,6.559,22.793Z" transform="translate(2366.662 389.391)" fill="#ff711c"/>
            <path id="Path_5806" data-name="Path 5806" d="M1597.147,443.568s82.583-177.736-109.867-218.159" transform="translate(2311.343 343.592)" fill="none" stroke="#70220a" stroke-linecap="round" stroke-linejoin="round" stroke-width="7.16"/>
            <path id="Path_5807" data-name="Path 5807" d="M1536.49,312.44c35.748-75.312,127.768-120.428,209.9-102.567C1706.554,289.463,1624.449,330.588,1536.49,312.44Z" transform="translate(2387.575 314.35)" fill="#00bbcd"/>
            <path id="Path_5808" data-name="Path 5808" d="M1389.1,267.3c-19.127,58.84-2.112,127.83,41,172.572s110.221,64.936,170.54,48.842" transform="translate(2146.321 408.341)" fill="none"/>
            <path id="Path_5809" data-name="Path 5809" d="M1398.262,259.428A209.054,209.054,0,0,0,1552.4,513.4c1.911.464,4.638,1.217,6.559,1.628" transform="translate(2162.575 395.86)" fill="none" stroke="#faf4cd" stroke-linecap="round" stroke-linejoin="round" stroke-width="18.86"/>
            <path id="Path_5810" data-name="Path 5810" d="M1747.213,275.982l45.914,92.8,103.308,14.652L1821,456.694l18.038,100.938-91.829-47.213-93.47,47.213,18.038-100.938-75.431-73.262,103.308-14.652Z" transform="translate(2480.215 420.819)" fill="#ffb200"/>
            <path id="Path_5811" data-name="Path 5811" d="M1580.66,410.741c61.9,18.771,110.463,75,119.706,138.384" transform="translate(2455.728 627.137)" fill="none" stroke="#faf4cd" stroke-linecap="round" stroke-linejoin="round" stroke-width="18.86"/>
            <path id="Path_5812" data-name="Path 5812" d="M1480.206,326.429a219.881,219.881,0,0,0,1.64,166.06" transform="translate(2275.781 498.176)" fill="none" stroke="#ff5a10" stroke-linecap="round" stroke-linejoin="round" stroke-width="12.57"/>
            <path id="Path_5813" data-name="Path 5813" d="M1609.775,385.713c-33.608,24.835-50.2,70.992-37.716,110.707" transform="translate(2436.462 588.672)" fill="none" stroke="#ff5a10" stroke-linecap="round" stroke-linejoin="round" stroke-width="12.57"/>
            <path id="Path_5814" data-name="Path 5814" d="M1444.182,280.021c-10.956,22.3-40.024,34.979-63.953,27.677" transform="translate(2144.539 427.362)" fill="none" stroke="#e7b0f4" stroke-linecap="round" stroke-linejoin="round" stroke-width="2.64"/>
            <path id="Path_5815" data-name="Path 5815" d="M1453.432,303.369c-16.019,20.9-42.875,29.558-68.872,24.42" transform="translate(2151.696 462.625)" fill="none" stroke="#e7b0f4" stroke-linecap="round" stroke-linejoin="round" stroke-width="2.64"/>
            <path id="Path_5816" data-name="Path 5816" d="M1468.792,331.111c-15.977,20.9-41.248,29.494-67.232,24.42" transform="translate(2177.325 504.889)" fill="none" stroke="#e7b0f4" stroke-linecap="round" stroke-linejoin="round" stroke-width="2.64"/>
            <path id="Path_5817" data-name="Path 5817" d="M1651.154,419.92c-23.24-.277-49.812,27.529-50.834,50.47" transform="translate(2486.906 640.75)" fill="none" stroke="#e7b0f4" stroke-linecap="round" stroke-linejoin="round" stroke-width="2.64"/>
            <path id="Path_5818" data-name="Path 5818" d="M1673.612,438.063c-33.633.58-64.662,32.025-62.313,65.122" transform="translate(2503.8 668.192)" fill="none" stroke="#e7b0f4" stroke-linecap="round" stroke-linejoin="round" stroke-width="2.64"/>
            <path id="Path_5859" data-name="Path 5859" d="M34.079,0A34.454,34.454,0,0,1,68.274,34.544,34.174,34.174,0,0,1,34.2,68.98,34.454,34.454,0,0,1,0,34.429,34.174,34.174,0,0,1,34.079,0Z" transform="translate(3479.864 678.838) rotate(-80.819)" fill="none" stroke="#70220a" stroke-width="2.106"/>
            <ellipse id="Ellipse_192" data-name="Ellipse 192" cx="34.436" cy="34.188" rx="34.436" ry="34.188" transform="translate(3554.288 624.354)" fill="none" stroke="#70220a" stroke-miterlimit="10" stroke-width="2.1"/>
            <path id="Path_5819" data-name="Path 5819" d="M1389.879,259c3.88,0,6.559,4.3,6.559,8.14a6.242,6.242,0,0,1-6.559,6.512c-3.878,0-8.2-2.675-8.2-6.512A9.183,9.183,0,0,1,1389.879,259Z" transform="translate(2147.184 395.474)" fill="#70220a"/>
            <circle id="Ellipse_193" data-name="Ellipse 193" cx="7.5" cy="7.5" r="7.5" transform="translate(3564.369 651.118)" fill="#70220a"/>
            <path id="Path_5820" data-name="Path 5820" d="M1501.334,267.173a100.883,100.883,0,0,0-49.194,22.793" transform="translate(2256.296 407.651)" fill="none" stroke="#faf4cd" stroke-linecap="round" stroke-linejoin="round" stroke-width="8.38"/>
            <path id="Path_5821" data-name="Path 5821" d="M1444.459,286.595a33.9,33.9,0,0,0-9.839,19.537" transform="translate(2229.531 437.069)" fill="none" stroke="#faf4cd" stroke-linecap="round" stroke-linejoin="round" stroke-width="8.38"/>
            <path id="Path_5822" data-name="Path 5822" d="M1590.95,272.807a89.83,89.83,0,0,1,68.872,45.587" transform="translate(2471.67 416.669)" fill="none" stroke="#faf4cd" stroke-linecap="round" stroke-linejoin="round" stroke-width="8.38"/>
            <path id="Path_5860" data-name="Path 5860" d="M212.25,0C329.564.237,424.735,35.167,424.822,78.018s-94.945,77.4-212.257,77.165S.087,120.019,0,77.166,94.943-.233,212.25,0Z" transform="translate(4354.602 304.581) rotate(-11.01)" fill="none" stroke="#fff" stroke-width="2.46"/>
            <path id="Path_5857" data-name="Path 5857" d="M185.635,0C288.364.428,371.8,40.439,371.994,89.371s-82.91,88.255-185.626,87.83S.2,136.765,0,87.835,82.911-.421,185.635,0Z" transform="matrix(0.422, -0.907, 0.907, 0.422, 4419.229, 471.186)" fill="none" stroke="#fff" stroke-width="2.46"/>
            <path id="Path_5858" data-name="Path 5858" d="M86.464,0c48.276.244,87.84,84.86,88.363,189S136.651,377.355,88.373,377.113.533,292.249.005,188.121,38.187-.242,86.464,0Z" transform="translate(4398.384 235.618) rotate(-34.945)" fill="none" stroke="#fff" stroke-width="2.46"/>
            <path id="Path_5823" data-name="Path 5823" d="M1791.39,84.841c1.384,14.252-10.191,26.307-24.6,27.677a25.355,25.355,0,0,1-4.919-50.47C1776.288,60.708,1789.947,70.6,1791.39,84.841Z" transform="translate(2701.683 94.235)" fill="#00bbcd"/>
            <path id="Path_5824" data-name="Path 5824" d="M1878.783,213.272c1.369,14.252-10.191,26.322-24.6,27.677a25.067,25.067,0,0,1-27.877-22.793c-1.366-14.216,8.593-27.9,22.957-29.305C1863.7,187.482,1877.372,199.005,1878.783,213.272Z" transform="translate(2837.312 288.169)" fill="#00bbcd"/>
            <path id="Path_5825" data-name="Path 5825" d="M1920.307,129.889c1.366,14.252-8.55,27.951-22.958,29.305a27.877,27.877,0,0,1-29.517-24.42c-1.364-14.206,10.246-26.265,24.6-27.677a25.068,25.068,0,0,1,27.877,22.792Z" transform="translate(2902.375 163.158)" fill="#00bbcd"/>
            <circle id="Ellipse_197" data-name="Ellipse 197" cx="26.5" cy="26.5" r="26.5" transform="translate(4636.369 136.118)" fill="#00bbcd"/>
            <path id="Path_5826" data-name="Path 5826" d="M1802.939,215.6c1.366,14.238-10.2,27.951-24.6,29.305s-26.511-10.182-27.877-24.42a25.089,25.089,0,0,1,22.957-27.677C1787.82,191.457,1801.5,201.349,1802.939,215.6Z" transform="translate(2719.664 293.98)" fill="#00bbcd"/>
            <path id="Path_5827" data-name="Path 5827" d="M1751.51,165.492c1.369,14.252-10.191,26.322-24.6,27.677a25.355,25.355,0,1,1-4.919-50.47C1736.407,141.351,1750.083,151.234,1751.51,165.492Z" transform="translate(2639.904 217.098)" fill="#00bbcd"/>
            <path id="Path_5828" data-name="Path 5828" d="M1844.071,150.427c1.722,17.807-9.878,34.108-27.876,35.817a33.107,33.107,0,0,1-36.076-29.305c-1.718-17.789,11.538-32.468,29.517-34.188C1827.64,121.078,1842.3,132.63,1844.071,150.427Z" transform="translate(2765.429 186.578)" fill="#ff711c"/>
            <ellipse id="Ellipse_198" data-name="Ellipse 198" cx="348" cy="344" rx="348" ry="344" transform="translate(3725.369 3135.118)" fill="#ff90ff"/>
            <path id="Path_5829" data-name="Path 5829" d="M1554.193,1388.218c56.386,24.075,117.574,14.389,168.9-16.28,47.908-28.675,85.68-70.676,116.427-118.847a348.788,348.788,0,0,0-342.721,94.427C1512.427,1365.7,1531.974,1378.937,1554.193,1388.218Z" transform="translate(2325.595 1893.918)" fill="#ff74fc"/>
            <path id="Path_5830" data-name="Path 5830" d="M1486.42,1467.887c85.064,111.751,230.8,161.838,367.317,125.36C1760.711,1495.371,1611.406,1420.038,1486.42,1467.887Z" transform="translate(2309.733 2218.006)" fill="#ff74fc"/>
            <path id="Path_5831" data-name="Path 5831" d="M1749.846,1343.7c-27.1,30.009-41.061,69.12-37.716,113.966a145.029,145.029,0,0,0,31.157,79.774C1764.457,1474.852,1766.13,1407.685,1749.846,1343.7Z" transform="translate(2659.6 2050.778)" fill="#ff74fc"/>
            <path id="Path_5832" data-name="Path 5832" d="M1994.8,1577.125c-11.8-93.469,26.729-187.665,100.028-244.207a341.1,341.1,0,0,0-45.915-53.725c-60.907,97.772-142.7,179.756-255.81,218.159-110.541,37.256-232.182,17.218-323.043-55.354a341.374,341.374,0,0,0,6.56,193.737c184.993-75.211,402.061,25.143,526.378,174.2a346.594,346.594,0,0,0,55.754-47.213c7.815-8.186,14.473-17.432,21.317-26.048C2033.553,1698.553,2003.314,1644.259,1994.8,1577.125Z" transform="translate(2267.056 1952.473)" fill="#ff74fc"/>
            <path id="Path_5833" data-name="Path 5833" d="M2175.706,1312.58c7.2,4.472,15.68,8.729,22.958,13.025,234.1-91.4,397.151-112,423.071-63.493,35.748,66.74-183.26,273.822-565.734,473.761s-677.666,261.986-713.317,195.365c-28.244-52.853,103.4-193.053,349.28-348.4,0-8.084-.384-16.337,0-24.42-233.132,146.532-409.869,305.988-368.957,382.59,52.353,98.024,419.4-18.109,742.834-187.226s626.284-403.413,573.933-501.437C2602.287,1182.232,2403.8,1222.309,2175.706,1312.58Z" transform="translate(2046.805 1857.226)" fill="#00fbd4"/>
            <path id="Path_5834" data-name="Path 5834" d="M281.025,673.569l49.194,97.683,111.507,16.28-80.351,76.519,19.678,109.078-100.028-50.47-98.389,50.47,19.678-109.078-80.351-76.519,109.867-16.28Z" transform="translate(189.599 1027.737)" fill="#ffb200"/>
            <path id="Path_5835" data-name="Path 5835" d="M517.67,337.755l22.957,43.957,49.195,8.14L553.745,424.04l9.839,48.842L517.67,450.089l-44.275,22.793,8.2-48.842-36.076-34.188,50.834-8.14Z" transform="translate(692.51 515.341)" fill="#ffb200"/>
            <path id="Path_5836" data-name="Path 5836" d="M726.61,484.579l42.635,84.658,91.829,13.025-67.232,65.122,16.4,91.173-83.63-42.329-83.63,42.329,16.4-91.173-67.232-65.122,93.469-13.025Z" transform="translate(919.758 739.709)" fill="#ffb200"/>
            <path id="Path_5837" data-name="Path 5837" d="M481.236,578.736l21.318,43.957,50.834,8.14-36.076,34.188,8.2,48.842-44.275-22.793-44.275,22.793,8.2-48.842-36.076-34.188,49.194-8.14Z" transform="translate(635.475 883.246)" fill="#ffb200"/>
            <path id="Path_5839" data-name="Path 5839" d="M1404.537,44.389l37.716,68.38,67.232,35.817-67.232,37.445-37.716,66.75-36.076-66.75-68.872-37.445,68.872-35.817Z" transform="translate(2019.391 67.946)" fill="#fff"/>
            <path id="Path_5840" data-name="Path 5840" d="M1531.672,44.975l22.957,45.587,49.194,6.512-36.076,35.817,8.2,48.842-44.275-22.793L1487.4,181.732l8.2-48.842L1459.52,97.073l49.194-6.512Z" transform="translate(2267.772 68.988)" fill="#ffb200"/>
            <path id="Path_5841" data-name="Path 5841" d="M1358.514,418.4l41,83.03,93.469,13.025-67.232,65.122,16.4,92.8-83.63-43.957-83.63,43.957,16.4-92.8-68.872-65.122,93.469-13.025Z" transform="translate(1899.784 638.2)" fill="#ffb200"/>
            <path id="Path_5842" data-name="Path 5842" d="M1831.33,353.18l31.156,55.353,55.754,30.933-55.754,29.305-31.156,55.353-29.517-55.353-55.753-29.305,55.753-30.933Z" transform="translate(2712.581 538.988)" fill="#fff"/>
            <ellipse id="Ellipse_199" data-name="Ellipse 199" cx="162" cy="160.5" rx="162" ry="160.5" transform="translate(4412.369 2631.118)" fill="#84f8f6"/>
            <path id="Path_5843" data-name="Path 5843" d="M1762.08,1059.373c51.254,49.315,122.635,56.409,186.938,27.677C1898.856,1038.842,1824,1027.183,1762.08,1059.373Z" transform="translate(2737.554 1589.453)" fill="#00d1be"/>
            <path id="Path_5844" data-name="Path 5844" d="M1808.471,1235.364a210.939,210.939,0,0,1-26.237,66.75c13.765,11.584,29.065,19.59,45.915,26.049,58.021-78.142,126.288-142.624,218.094-170.945-3.419-23.733-11.2-46.77-24.6-66.75-81.157,39.683-175.8,30.941-239.412-34.189a159.6,159.6,0,0,0-50.834,74.89c-.614,1.92-1.1,2.965-1.64,4.885C1780.2,1143.994,1820.327,1173.494,1808.471,1235.364Z" transform="translate(2687.885 1612.087)" fill="#00d1be"/>
            <ellipse id="Ellipse_200" data-name="Ellipse 200" cx="176.5" cy="185" rx="176.5" ry="185" transform="translate(2873.369 3586.119)" fill="#ffb200"/>
            <path id="Path_5845" data-name="Path 5845" d="M1177.564,1673.443c34.884-72.684,16.69-153.473-34.436-213.273-12.284,25.682-18.038,54.619-18.038,83.03a186.733,186.733,0,0,0,52.474,130.243Z" transform="translate(1747.85 2228.98)" fill="#ff711c"/>
            <path id="Path_5846" data-name="Path 5846" d="M1361.924,1658.741a214.8,214.8,0,0,1,77.071,4.885c7.653-19.031,13.53-38.163,14.758-58.61-101.027-35.825-192.7-87.745-252.531-177.457a176.535,176.535,0,0,0-60.673,50.47c68.286,74.226,88.386,178.724,40.995,270.255a169.812,169.812,0,0,0,95.109,29.3c2.2,0,4.388.077,6.559,0C1274.883,1720.381,1293.15,1667.35,1361.924,1658.741Z" transform="translate(1771.754 2178.566)" fill="#ff711c"/>
            <path id="Path_5847" data-name="Path 5847" d="M1914.574,1452.37l41,84.659,93.469,13.025-67.232,65.122,16.4,92.8-83.63-43.957-83.63,43.957,16.4-92.8-67.232-65.122,91.829-13.025Z" transform="translate(2765.439 2217.235)" fill="#ffb200"/>
            <path id="Path_5848" data-name="Path 5848" d="M1675.606,1075.5l44.275,79.773,78.711,42.328-78.711,42.328-44.275,79.773-42.635-79.773-80.35-42.328,80.35-42.328Z" transform="translate(2412.435 1641.702)" fill="#fff"/>
            <path id="Path_5849" data-name="Path 5849" d="M1306.212,1304.83l22.957,45.587,49.194,6.512-36.076,35.817,8.2,48.842-44.275-22.794-44.275,22.794,8.2-48.842-36.076-35.817,50.834-6.512Z" transform="translate(1917.656 1991.958)" fill="#ffb200"/>
            <path id="Path_5850" data-name="Path 5850" d="M1392.75,1585.32l31.157,55.353,55.753,30.933-55.753,29.3-31.157,55.354-29.517-55.354-55.753-29.3,55.753-30.933Z" transform="translate(2031.174 2419.659)" fill="#fff"/>
            <path id="Path_5851" data-name="Path 5851" d="M712.029,1895.476,167.613,1608.94c-36.253-19.186-50.342-63.343-31.156-99.31h0c19.386-35.85,65.319-49.9,101.668-30.933l544.417,286.535c36.24,19.186,50.327,63.349,31.157,99.31h0C794.314,1900.4,748.381,1914.448,712.029,1895.476Z" transform="translate(198.883 2243.827)" fill="none" stroke="#ffb200" stroke-linecap="round" stroke-linejoin="round" stroke-width="6.02"/>
            <path id="Path_5852" data-name="Path 5852" d="M575.331,1797.076l-424.711-224.67c-19.571-10.349-28.383-34.3-18.038-53.725l6.559-11.4A40.144,40.144,0,0,1,193.256,1491l424.711,223.042c19.578,10.359,26.763,35.933,16.4,55.353l-4.919,9.769C618.975,1798.536,594.971,1807.325,575.331,1797.076Z" transform="translate(199.479 2268.955)" fill="none" stroke="#ffb200" stroke-linecap="round" stroke-linejoin="round" stroke-width="6.02"/>
            <path id="Path_5853" data-name="Path 5853" d="M232.3,1281.77l41,83.03,93.469,14.652-67.232,65.122,16.4,91.173-83.63-42.328-83.63,42.328,14.758-91.173L96.2,1379.452l93.469-14.652Z" transform="translate(149.775 1956.41)" fill="#ffb200"/>
            <path id="Path_5854" data-name="Path 5854" d="M477.366,1505.44l29.517,55.353,55.754,29.3-55.754,30.933-29.517,55.353-31.156-55.353L390.456,1590.1l55.754-29.3Z" transform="translate(606.548 2297.677)" fill="#fff"/>
            <path id="Path_5855" data-name="Path 5855" d="M400.364,1460.28l21.318,43.957,50.834,8.14-36.076,34.188,8.2,48.842-44.275-22.793-44.275,22.793,8.2-48.842-36.076-34.188,49.194-8.14Z" transform="translate(509.731 2228.87)" fill="#ffb200"/>
            <path id="Path_5856" data-name="Path 5856" d="M550.925,1371.84l31.156,55.353,55.753,30.933-55.753,30.933-31.156,55.354-29.517-55.354-55.754-30.933,55.754-30.933Z" transform="translate(723.205 2094.27)" fill="#fff"/>
          </g>
        </g>
      </g>
    </g>
  </g>
</svg>
