<?xml version="1.0" standalone="no"?>
<!DOCTYPE svg PUBLIC "-//W3C//DTD SVG 20010904//EN"
 "http://www.w3.org/TR/2001/REC-SVG-20010904/DTD/svg10.dtd">
<svg version="1.0" xmlns="http://www.w3.org/2000/svg"
 width="449.000000pt" height="449.000000pt" viewBox="0 0 449.000000 449.000000"
 preserveAspectRatio="xMidYMid meet">
<metadata>
Created by potrace 1.14, written by Peter Selinger 2001-2017
</metadata>
<g transform="translate(0.000000,449.000000) scale(0.100000,-0.100000)"
fill="#000000" stroke="none">
<path d="M2080 4480 c-432 -33 -886 -239 -1209 -546 -308 -293 -522 -695 -596
-1119 -23 -128 -30 -358 -16 -500 41 -421 214 -826 485 -1137 l76 -87 0 -521
0 -521 25 -24 24 -25 1376 0 1376 0 24 25 25 24 0 524 0 523 30 29 c17 17 66
75 109 130 483 617 566 1424 219 2117 -196 393 -475 681 -848 877 -350 184
-717 261 -1100 231z m47 -2085 c57 -29 101 -85 110 -141 l6 -35 18 53 c21 62
77 118 137 136 28 9 185 12 546 12 l506 0 0 -1100 0 -1099 -522 -3 c-516 -3
-524 -3 -564 -25 -41 -22 -102 -83 -106 -106 -2 -7 -5 470 -8 1058 l-5 1070
-3 -1075 c-2 -725 -6 -1067 -13 -1050 -14 35 -57 78 -104 103 -39 22 -49 22
-562 25 l-523 3 0 1099 0 1100 518 0 518 0 51 -25z"/>
<path d="M1276 2109 c-33 -26 -34 -68 -3 -97 23 -22 28 -22 370 -22 334 0 348
1 367 20 27 27 26 71 -3 98 -23 22 -28 22 -364 22 -329 0 -341 -1 -367 -21z"/>
<path d="M2482 2107 c-27 -29 -28 -71 -2 -97 19 -19 33 -20 368 -20 298 0 351
2 370 16 29 20 30 76 2 104 -19 19 -33 20 -368 20 l-349 0 -21 -23z"/>
<path d="M1290 1907 c-35 -18 -48 -61 -29 -95 l15 -27 358 -3 c324 -2 361 -1
378 14 25 23 23 76 -3 100 -20 18 -43 19 -358 22 -257 2 -342 -1 -361 -11z"/>
<path d="M2486 1899 c-19 -15 -26 -30 -26 -54 0 -24 7 -39 26 -54 26 -20 38
-21 365 -21 336 0 338 0 363 23 37 33 39 75 4 107 -21 19 -33 20 -364 20 -330
0 -342 -1 -368 -21z"/>
<path d="M1270 1678 c-27 -29 -25 -64 5 -93 l24 -25 339 0 c328 0 340 1 366
21 32 25 35 70 6 99 -19 19 -33 20 -370 20 -346 0 -349 0 -370 -22z"/>
<path d="M2480 1680 c-27 -27 -26 -71 3 -98 23 -22 28 -22 370 -22 334 0 348
1 367 20 29 29 30 72 3 103 -15 16 -46 17 -370 17 -340 0 -354 -1 -373 -20z"/>
<path d="M1276 1469 c-32 -25 -35 -70 -6 -99 19 -19 33 -20 370 -20 337 0 351
1 370 20 27 27 26 71 -3 98 -23 22 -28 22 -364 22 -329 0 -341 -1 -367 -21z"/>
<path d="M2482 1467 c-26 -27 -28 -64 -6 -95 l15 -22 358 0 c328 0 359 1 374
18 27 30 26 73 -3 102 -19 19 -33 20 -368 20 l-349 0 -21 -23z"/>
<path d="M2503 1270 c-48 -20 -58 -87 -17 -119 26 -20 38 -21 365 -21 l338 0
27 23 c33 28 35 71 5 100 -21 22 -28 22 -359 24 -185 1 -347 -2 -359 -7z"/>
<path d="M1270 1250 c-25 -25 -26 -61 -1 -91 l19 -24 350 0 c330 0 351 1 371
19 25 23 27 63 5 94 l-15 22 -355 0 c-341 0 -355 -1 -374 -20z"/>
<path d="M1290 1057 c-35 -18 -48 -61 -29 -95 l15 -27 358 -3 c324 -2 361 -1
378 14 25 23 23 76 -3 100 -20 18 -43 19 -358 22 -257 2 -342 -1 -361 -11z"/>
<path d="M2480 1040 c-11 -11 -20 -33 -20 -50 0 -17 9 -39 20 -50 19 -19 33
-20 368 -20 393 0 392 0 392 69 0 72 7 71 -388 71 -339 0 -353 -1 -372 -20z"/>
<path d="M1270 828 c-27 -29 -25 -64 5 -93 l24 -25 339 0 c328 0 340 1 366 21
32 25 35 70 6 99 -19 19 -33 20 -370 20 -346 0 -349 0 -370 -22z"/>
<path d="M2486 829 c-31 -25 -34 -66 -7 -100 l19 -24 339 -3 c362 -2 376 -1
399 47 14 28 3 67 -24 87 -13 10 -94 13 -358 14 -330 0 -342 -1 -368 -21z"/>
<path d="M1276 619 c-32 -25 -35 -70 -6 -99 19 -19 33 -20 370 -20 337 0 351
1 370 20 27 27 26 71 -3 98 -23 22 -28 22 -364 22 -329 0 -341 -1 -367 -21z"/>
<path d="M2503 630 c-46 -19 -57 -83 -20 -118 23 -22 28 -22 366 -22 204 0
350 4 361 10 47 25 41 101 -10 127 -30 15 -661 18 -697 3z"/>
</g>
</svg>
