<svg xmlns="http://www.w3.org/2000/svg" xmlns:xlink="http://www.w3.org/1999/xlink" width="1920" height="1925" viewBox="0 0 1920 1925">
  <defs>
    <clipPath id="clip-path">
      <rect id="Rectangle_246" data-name="Rectangle 246" width="1920" height="1925" transform="translate(0 -3)" fill="none"/>
    </clipPath>
    <clipPath id="clip-path-2">
      <rect id="Rectangle_245" data-name="Rectangle 245" width="610.361" height="565.181" fill="none"/>
    </clipPath>
  </defs>
  <g id="Artboard_1" data-name="Artboard 1" transform="translate(0 3)" clip-path="url(#clip-path)">
    <rect id="Rectangle_228" data-name="Rectangle 228" width="1919.75" height="1921.931" transform="translate(0.16 0.075)" fill="#782ed9"/>
    <path id="Path_945" data-name="Path 945" d="M382.647,53.251C519.91,154.746,692.152,230.933,869.214,265.4c202.59,39.416,419.66,6.409,594.692,122.972,86.416,57.558,142.453,133.959,181.4,220.522,40,88.869,66.207,178.145,139.274,252.681,38.518,39.325,84.636,73.1,135.344,99.234V0H317.86a803.488,803.488,0,0,0,64.787,53.251Z" transform="translate(-0.015 0.391)" fill="#5b1fbe" opacity="0.73"/>
    <path id="Path_946" data-name="Path 946" d="M1755.884,1249.426a1022.782,1022.782,0,0,0-177.762,169.136c-43.138,52.11-86,105.282-135.7,149.389-99.735,88.394-219.87,115.783-339.414,65.2-58.767-24.868-113.775-60.757-174.992-77.825-56-15.588-111.995-7.325-165.382,16.2C682.994,1606.632,600.208,1677.076,562,1768.839H1919.937v-596.9C1861.809,1184.261,1807.362,1211.412,1755.884,1249.426Z" transform="translate(-0.026 153.167)" fill="#5b1fbe" opacity="0.73"/>
    <path id="Path_947" data-name="Path 947" d="M890.261-704.68-574.62-8.739l465.208,1296.728L1355.52,592.025l-44.308-123.492-51,24.212c-20.659,9.823-44.538-1.605-53.067-25.377s1.4-51.251,22.059-61.039l51-24.224-26.589-74.1-51,24.212c-20.659,9.823-44.538-1.605-53.067-25.377s1.4-51.251,22.059-61.039l51-24.212-26.589-74.1-51,24.212c-20.659,9.812-44.538-1.605-53.067-25.377s1.4-51.251,22.059-61.04l51-24.212-26.589-74.1-51,24.212c-20.659,9.812-44.538-1.605-53.068-25.377s1.4-51.251,22.059-61.04l51-24.212-26.589-74.106-51,24.224c-20.659,9.812-44.538-1.605-53.068-25.377s1.4-51.262,22.059-61.039l51-24.212-26.589-74.106-51,24.224c-20.659,9.812-44.538-1.605-53.068-25.377s1.4-51.262,22.059-61.04l51-24.224-26.579-74.1-51,24.224c-20.709,9.631-44.578-1.786-53.108-25.591s1.4-51.251,22.059-61.039l51-24.224Z" transform="translate(0.027 -91.472)" fill="#faf4cd"/>
    <line id="Line_20" data-name="Line 20" x1="459.048" y1="1279.547" transform="translate(734.416 -712.053)" fill="none" stroke="#e7b0f4" stroke-linecap="round" stroke-linejoin="round" stroke-width="2.53"/>
    <line id="Line_21" data-name="Line 21" x1="459.048" y1="1279.547" transform="translate(656.059 -674.819)" fill="none" stroke="#e7b0f4" stroke-linecap="round" stroke-linejoin="round" stroke-width="2.53"/>
    <line id="Line_22" data-name="Line 22" x1="459.048" y1="1279.547" transform="translate(577.703 -637.596)" fill="none" stroke="#e7b0f4" stroke-linecap="round" stroke-linejoin="round" stroke-width="2.53"/>
    <line id="Line_23" data-name="Line 23" x1="459.048" y1="1279.547" transform="translate(499.347 -600.373)" fill="none" stroke="#e7b0f4" stroke-linecap="round" stroke-linejoin="round" stroke-width="2.53"/>
    <line id="Line_24" data-name="Line 24" x1="459.048" y1="1279.547" transform="translate(420.99 -563.139)" fill="none" stroke="#e7b0f4" stroke-linecap="round" stroke-linejoin="round" stroke-width="2.53"/>
    <line id="Line_25" data-name="Line 25" x1="459.048" y1="1279.547" transform="translate(342.634 -525.916)" fill="none" stroke="#e7b0f4" stroke-linecap="round" stroke-linejoin="round" stroke-width="2.53"/>
    <line id="Line_26" data-name="Line 26" x1="459.058" y1="1279.547" transform="translate(264.278 -488.694)" fill="none" stroke="#e7b0f4" stroke-linecap="round" stroke-linejoin="round" stroke-width="2.53"/>
    <line id="Line_27" data-name="Line 27" x1="459.058" y1="1279.547" transform="translate(185.921 -451.46)" fill="none" stroke="#e7b0f4" stroke-linecap="round" stroke-linejoin="round" stroke-width="2.53"/>
    <line id="Line_28" data-name="Line 28" x1="459.058" y1="1279.547" transform="translate(107.565 -414.237)" fill="none" stroke="#e7b0f4" stroke-linecap="round" stroke-linejoin="round" stroke-width="2.53"/>
    <line id="Line_29" data-name="Line 29" x1="459.058" y1="1279.547" transform="translate(29.209 -377.014)" fill="none" stroke="#e7b0f4" stroke-linecap="round" stroke-linejoin="round" stroke-width="2.53"/>
    <line id="Line_30" data-name="Line 30" x1="459.058" y1="1279.547" transform="translate(-49.148 -339.78)" fill="none" stroke="#e7b0f4" stroke-linecap="round" stroke-linejoin="round" stroke-width="2.53"/>
    <line id="Line_31" data-name="Line 31" x1="459.048" y1="1279.547" transform="translate(-127.494 -302.557)" fill="none" stroke="#e7b0f4" stroke-linecap="round" stroke-linejoin="round" stroke-width="2.53"/>
    <line id="Line_32" data-name="Line 32" x1="459.048" y1="1279.547" transform="translate(-205.85 -265.334)" fill="none" stroke="#e7b0f4" stroke-linecap="round" stroke-linejoin="round" stroke-width="2.53"/>
    <line id="Line_33" data-name="Line 33" x1="459.048" y1="1279.547" transform="translate(-284.207 -228.1)" fill="none" stroke="#e7b0f4" stroke-linecap="round" stroke-linejoin="round" stroke-width="2.53"/>
    <line id="Line_34" data-name="Line 34" x1="459.048" y1="1279.547" transform="translate(-362.563 -190.877)" fill="none" stroke="#e7b0f4" stroke-linecap="round" stroke-linejoin="round" stroke-width="2.53"/>
    <line id="Line_35" data-name="Line 35" x1="459.048" y1="1279.547" transform="translate(-440.919 -153.655)" fill="none" stroke="#e7b0f4" stroke-linecap="round" stroke-linejoin="round" stroke-width="2.53"/>
    <line id="Line_36" data-name="Line 36" x1="1253.691" y2="595.633" transform="translate(-46.258 460.346)" fill="none" stroke="#e7b0f4" stroke-linecap="round" stroke-linejoin="round" stroke-width="2.53"/>
    <line id="Line_37" data-name="Line 37" x1="1253.691" y2="595.621" transform="translate(-81.686 361.598)" fill="none" stroke="#e7b0f4" stroke-linecap="round" stroke-linejoin="round" stroke-width="2.53"/>
    <line id="Line_38" data-name="Line 38" x1="1253.691" y2="595.621" transform="translate(-117.125 262.838)" fill="none" stroke="#e7b0f4" stroke-linecap="round" stroke-linejoin="round" stroke-width="2.53"/>
    <line id="Line_39" data-name="Line 39" x1="1253.691" y2="595.621" transform="translate(-152.553 164.079)" fill="none" stroke="#e7b0f4" stroke-linecap="round" stroke-linejoin="round" stroke-width="2.53"/>
    <line id="Line_40" data-name="Line 40" x1="1253.691" y2="595.633" transform="translate(-187.981 65.319)" fill="none" stroke="#e7b0f4" stroke-linecap="round" stroke-linejoin="round" stroke-width="2.53"/>
    <line id="Line_41" data-name="Line 41" x1="1253.691" y2="595.633" transform="translate(-223.41 -33.441)" fill="none" stroke="#e7b0f4" stroke-linecap="round" stroke-linejoin="round" stroke-width="2.53"/>
    <line id="Line_42" data-name="Line 42" x1="1253.691" y2="595.621" transform="translate(-258.838 -132.189)" fill="none" stroke="#e7b0f4" stroke-linecap="round" stroke-linejoin="round" stroke-width="2.53"/>
    <line id="Line_43" data-name="Line 43" x1="1253.701" y2="595.621" transform="translate(-294.276 -230.949)" fill="none" stroke="#e7b0f4" stroke-linecap="round" stroke-linejoin="round" stroke-width="2.53"/>
    <line id="Line_44" data-name="Line 44" x1="1253.691" y2="595.633" transform="translate(-329.705 -329.708)" fill="none" stroke="#e7b0f4" stroke-linecap="round" stroke-linejoin="round" stroke-width="2.53"/>
    <line id="Line_45" data-name="Line 45" x1="1253.691" y2="595.633" transform="translate(-365.133 -428.468)" fill="none" stroke="#e7b0f4" stroke-linecap="round" stroke-linejoin="round" stroke-width="2.53"/>
    <line id="Line_46" data-name="Line 46" x1="1253.691" y2="595.621" transform="translate(-400.561 -527.216)" fill="none" stroke="#e7b0f4" stroke-linecap="round" stroke-linejoin="round" stroke-width="2.53"/>
    <g id="Group_23" data-name="Group 23" transform="translate(368.243 2.652)" clip-path="url(#clip-path-2)">
      <path id="Path_1016" data-name="Path 1016" d="M0,0,73.54,2.455,87.865,478.938l-73.54-2.455Z" transform="translate(276.431 395.41) rotate(-164.44)" fill="#ff711c"/>
      <path id="Path_1017" data-name="Path 1017" d="M1.613,7.979,399.941-4l-2.455,73.54L-.842,81.519Z" transform="translate(207.198 336.066) rotate(-74.44)" fill="#ff711c"/>
      <path id="Path_948" data-name="Path 948" d="M636.817,351.663l-4,16.322-43.768,89.2-13-4.092.94-101.733,4.22-17.148Z" transform="translate(-368.27 41.307)" fill="#ff5a10"/>
      <path id="Path_1018" data-name="Path 1018" d="M0,0,75.475,2.541,75.9,16.434.421,13.893Z" transform="translate(297.18 324.476) rotate(-164.291)" fill="#fff"/>
      <path id="Path_1019" data-name="Path 1019" d="M0,0,75.67,2.526l.419,13.934L.419,13.934Z" transform="translate(302.777 291.972) rotate(-164.44)" fill="#fff"/>
      <path id="Path_1020" data-name="Path 1020" d="M0,0,75.67,2.526l.419,13.934L.419,13.934Z" transform="translate(365.063 34.766) rotate(-164.44)" fill="#fff"/>
      <path id="Path_1021" data-name="Path 1021" d="M0,0,75.67,2.526l.419,13.934L.419,13.934Z" transform="translate(373.108 2.114) rotate(-164.44)" fill="#fff"/>
      <path id="Path_1007" data-name="Path 1007" d="M99.882-.992c54.79-1.776,98.753,9.394,98.195,24.95S152.649,53.564,97.859,55.34-.894,45.946-.336,30.391,45.092.784,99.882-.992Z" transform="translate(245.443 226.896) rotate(-73.09)" fill="#fff"/>
      <rect id="Rectangle_235" data-name="Rectangle 235" width="72.354" height="480.381" transform="matrix(-1, 0.009, -0.009, -1, 509.328, 415.676)" fill="#ffb200"/>
      <rect id="Rectangle_236" data-name="Rectangle 236" width="72.437" height="401.572" transform="matrix(1, -0.009, 0.009, 1, 432.965, -23.465)" fill="#ffb200"/>
      <path id="Path_949" data-name="Path 949" d="M869.427,369.76l.14,16.955-20.2,99.359-13.5.136-24-98.059-.14-17.8Z" transform="translate(-368.281 45.942)" fill="#ffb200"/>
      <rect id="Rectangle_237" data-name="Rectangle 237" width="74.953" height="13.961" transform="matrix(-1, 0.009, -0.009, -1, 509.533, 341.936)" fill="#fff"/>
      <rect id="Rectangle_238" data-name="Rectangle 238" width="74.953" height="13.961" transform="matrix(-1, 0.009, -0.009, -1, 509.276, 308.043)" fill="#fff"/>
      <rect id="Rectangle_239" data-name="Rectangle 239" width="74.953" height="13.961" transform="matrix(-1, 0.009, -0.009, -1, 506.158, 41.405)" fill="#fff"/>
      <rect id="Rectangle_240" data-name="Rectangle 240" width="74.953" height="13.961" transform="matrix(-1, 0.009, -0.009, -1, 505.88, 7.501)" fill="#fff"/>
      <path id="Path_1024" data-name="Path 1024" d="M100.208-.039C155.537-.1,200.374,12.319,200.354,27.7S155.465,55.616,100.135,55.68-.031,43.322-.011,27.936,44.878.025,100.208-.039Z" transform="translate(437.005 261.955) rotate(-89.427)" fill="#fff"/>
      <path id="Path_1008" data-name="Path 1008" d="M0,0,74.619,3.693l21.545,470.19L21.545,470.19Z" transform="matrix(-0.903, -0.431, 0.431, -0.903, 85.325, 297.109)" fill="#00bbcd"/>
      <path id="Path_1009" data-name="Path 1009" d="M2.352,12.043,395.42-5.969,391.727,68.65-1.341,86.661Z" transform="matrix(0.431, -0.903, 0.903, 0.431, 22.218, 224.125)" fill="#00bbcd"/>
      <path id="Path_950" data-name="Path 950" d="M446.206,264.536l-6.45,15.294L383,359.147l-12.179-6.567,16.489-100.037,6.78-16.062Z" transform="translate(-368.26 28.567)" fill="#00bbcd"/>
      <path id="Path_1010" data-name="Path 1010" d="M0,0,76.78,3.8l.63,13.75L.63,13.75Z" transform="matrix(-0.903, -0.431, 0.431, -0.903, 114.151, 230.955)" fill="#fff"/>
      <path id="Path_1011" data-name="Path 1011" d="M0,0,76.78,3.8l.63,13.75L.63,13.75Z" transform="matrix(-0.903, -0.431, 0.431, -0.903, 127.06, 200.368)" fill="#fff"/>
      <path id="Path_1012" data-name="Path 1012" d="M98.783-1.374c54.027-2.573,97.169,8.146,96.36,23.942S149.881,53.253,95.854,55.826-1.315,47.68-.506,31.885,44.756,1.2,98.783-1.374Z" transform="translate(79.473 124.803) rotate(-63.14)" fill="#fff"/>
    </g>
    <path id="Path_951" data-name="Path 951" d="M262.38,551.264l23.329-15.181L261.42,505.654l-52.508,34.16,11.459,38.817,23.339-15.181,36.708,72.106L147.426,722.084l-36.718-72.106L126.277,639.8,54.55,327.1,196.133,235l203.16,227.2,15.559-10.173,36.708,72.117L299.089,623.37Zm-68.627-63.628,35.788-23.274L168.815,386.8l-3.88,2.532Z" transform="translate(-0.003 31.026)" fill="#ff711c"/>
    <path id="Path_952" data-name="Path 952" d="M264.359,267.525h0c-12.034-.043-21.781-11.061-21.819-24.664V110.608c.066-13.582,9.8-24.565,21.819-24.608h0c12.034.043,21.781,11.061,21.819,24.664V242.917c-.066,13.582-9.8,24.565-21.819,24.608Z" transform="translate(-0.011 11.602)" fill="#ff711c"/>
    <path id="Path_953" data-name="Path 953" d="M184.06,169.133h0c.038-13.6,9.786-24.616,21.819-24.653H322.874c12.033.037,21.781,11.051,21.819,24.653h0c-.033,13.606-9.782,24.627-21.819,24.664H205.879c-12.037-.037-21.786-11.058-21.819-24.664Z" transform="translate(-0.009 19.226)" fill="#ff711c"/>
    <line id="Line_47" data-name="Line 47" y2="181.717" transform="translate(259.158 1739.78)" fill="none" stroke="#782ed9" stroke-linecap="round" stroke-linejoin="round" stroke-width="5.71"/>
    <path id="Path_954" data-name="Path 954" d="M1524.165,497.014h4.29a22.717,22.717,0,0,0,2.93-10.987l1.19-167.429a23.737,23.737,0,0,0-2.87-11.3c-3-5.516-5.3-11.722-8.77-16.65-13.279-18.82-28.879-39.054-48.468-39.224-7.89,0-15.629,3.3-22.609,8.139-28.129,19.533-43.828,65.561-36.148,106.005,3.41,17.882,10.709,33.99,17.929,49.792A216.263,216.263,0,0,0,1467,470.315c15.181,17.1,35.737,26.7,57.167,26.7Z" transform="translate(-0.066 33.167)" fill="#ff711c"/>
    <path id="Path_955" data-name="Path 955" d="M1559.758,496.537a18.132,18.132,0,0,0,11.709-4.318c22.2-18.719,41.208-40.309,57.177-72.479,7.78-15.678,15.659-31.65,19.479-49.465,8.64-40.263-7.1-86.608-36.208-106.65-7.22-4.974-15.259-8.466-23.519-8.546-20.469-.192-37.088,19.759-51.248,38.342-3.65,4.77-6.18,10.806-9.27,16.209a24.313,24.313,0,0,0-3.33,11.891l-1.23,164.954a23.389,23.389,0,0,0,2.26,10.06Z" transform="translate(-0.071 33.643)" fill="#ff711c"/>
    <path id="Path_956" data-name="Path 956" d="M1530.458,322.957s32.668-79.871-42.688-97.957" transform="translate(-0.07 29.722)" fill="none" stroke="#70220a" stroke-linecap="round" stroke-linejoin="round" stroke-width="7.16"/>
    <path id="Path_957" data-name="Path 957" d="M1536.73,253.471c14-33.7,50-53.67,82.156-45.678C1603.287,243.4,1571.168,261.587,1536.73,253.471Z" transform="translate(-0.072 27.25)" fill="#00bbcd"/>
    <path id="Path_958" data-name="Path 958" d="M1384.53,267.79c-7.49,26.326-1.28,57.027,15.6,77.045s43.708,28.508,67.327,21.307" transform="translate(-0.065 35.301)" fill="none"/>
    <path id="Path_959" data-name="Path 959" d="M1394.09,259.4a104.408,104.408,0,0,0,10.229,72.151c11.888,21.5,30.963,36.657,52.888,42.015" transform="translate(-0.065 34.207)" fill="none" stroke="#faf4cd" stroke-linecap="round" stroke-linejoin="round" stroke-width="18.86"/>
    <path id="Path_960" data-name="Path 960" d="M1655.047,275.61l18.189,41.665,40.668,6.68-29.429,32.419,6.95,45.791-36.378-21.624-36.368,21.624,6.95-45.791-29.439-32.419,40.678-6.68Z" transform="translate(-0.075 36.32)" fill="#ffb200"/>
    <path id="Path_961" data-name="Path 961" d="M1580.38,411.06c24.239,8.4,43.268,33.515,46.888,61.876" transform="translate(-0.074 53.977)" fill="none" stroke="#faf4cd" stroke-linecap="round" stroke-linejoin="round" stroke-width="18.86"/>
    <path id="Path_962" data-name="Path 962" d="M1470.75,326.45a111.468,111.468,0,0,0,.54,74.31" transform="translate(-0.069 42.948)" fill="none" stroke="#ff5a10" stroke-linecap="round" stroke-linejoin="round" stroke-width="12.57"/>
    <path id="Path_963" data-name="Path 963" d="M1584.169,385.74c-13.159,11.111-19.139,31.967-14.249,49.736" transform="translate(-0.073 50.677)" fill="none" stroke="#ff5a10" stroke-linecap="round" stroke-linejoin="round" stroke-width="12.57"/>
    <path id="Path_964" data-name="Path 964" d="M1405,280.07c-4.29,9.981-15.429,15.441-24.8,12.174" transform="translate(-0.065 36.901)" fill="none" stroke="#e7b0f4" stroke-linecap="round" stroke-linejoin="round" stroke-width="2.64"/>
    <path id="Path_965" data-name="Path 965" d="M1411.9,303c-6.273,9.35-16.719,13.828-26.9,11.53" transform="translate(-0.065 39.891)" fill="none" stroke="#e7b0f4" stroke-linecap="round" stroke-linejoin="round" stroke-width="2.64"/>
    <path id="Path_966" data-name="Path 966" d="M1428,330.65c-6.256,9.35-16.684,13.844-26.859,11.575" transform="translate(-0.066 43.495)" fill="none" stroke="#e7b0f4" stroke-linecap="round" stroke-linejoin="round" stroke-width="2.64"/>
    <path id="Path_967" data-name="Path 967" d="M1620.559,419.8c-9.1-.124-19.429,12.434-19.829,22.7" transform="translate(-0.075 55.117)" fill="none" stroke="#e7b0f4" stroke-linecap="round" stroke-linejoin="round" stroke-width="2.64"/>
    <path id="Path_968" data-name="Path 968" d="M1635.529,437.66c-13.17.26-24.779,14.582-23.859,29.389" transform="translate(-0.075 57.445)" fill="none" stroke="#e7b0f4" stroke-linecap="round" stroke-linejoin="round" stroke-width="2.64"/>
    <path id="Path_1022" data-name="Path 1022" d="M15.416-.092c8.408-.153,15.1,5.79,14.947,13.275s-7.094,13.677-15.5,13.83S-.239,21.222-.085,13.738,7.008.061,15.416-.092Z" transform="matrix(0.16, -0.987, 0.987, 0.16, 1362.332, 304.345)" fill="none" stroke="#70220a" stroke-width="2.106"/>
    <ellipse id="Ellipse_137" data-name="Ellipse 137" cx="13.469" cy="15.226" rx="13.469" ry="15.226" transform="translate(1391.995 279.794)" fill="none" stroke="#70220a" stroke-miterlimit="10" stroke-width="2.1"/>
    <path id="Path_969" data-name="Path 969" d="M1384.83,259.27a3.132,3.132,0,1,1-2.75,3.108A2.946,2.946,0,0,1,1384.83,259.27Z" transform="translate(-0.065 34.19)" fill="#70220a"/>
    <ellipse id="Ellipse_138" data-name="Ellipse 138" cx="2.75" cy="3.108" rx="2.75" ry="3.108" transform="translate(1396.105 291.911)" fill="#70220a"/>
    <path id="Path_970" data-name="Path 970" d="M1471.219,267.11a37.2,37.2,0,0,0-19.079,10.32" transform="translate(-0.068 35.212)" fill="none" stroke="#faf4cd" stroke-linecap="round" stroke-linejoin="round" stroke-width="8.38"/>
    <path id="Path_971" data-name="Path 971" d="M1438.9,286.28a15.812,15.812,0,0,0-3.78,8.692" transform="translate(-0.067 37.711)" fill="none" stroke="#faf4cd" stroke-linecap="round" stroke-linejoin="round" stroke-width="8.38"/>
    <path id="Path_972" data-name="Path 972" d="M1590.62,273.21c11.388,1.31,21.492,8.821,27.069,20.12" transform="translate(-0.075 36.007)" fill="none" stroke="#faf4cd" stroke-linecap="round" stroke-linejoin="round" stroke-width="8.38"/>
    <path id="Path_1023" data-name="Path 1023" d="M84.093-.6c46.172-1.123,83.266,13.437,82.851,32.522s-38.18,35.467-84.352,36.59S-.673,55.073-.259,35.988,37.921.521,84.093-.6Z" transform="translate(1704.231 135.23) rotate(-11.01)" fill="none" stroke="#fff" stroke-width="2.46"/>
    <path id="Path_1013" data-name="Path 1013" d="M82.515-1.139c44.93-2.025,80.576,12.257,79.618,31.9S123.977,67.967,79.047,69.992-1.529,57.735-.571,38.092,37.586.885,82.515-1.139Z" transform="translate(1727.287 211.253) rotate(-65.04)" fill="none" stroke="#fff" stroke-width="2.46"/>
    <path id="Path_1014" data-name="Path 1014" d="M39-.712C58.778-1.873,72.775,33.4,70.261,78.069S49.671,159.894,29.89,161.056-3.89,126.946-1.375,82.275,19.215.45,39-.712Z" transform="translate(1718.42 106.617) rotate(-34.94)" fill="none" stroke="#fff" stroke-width="2.46"/>
    <path id="Path_973" data-name="Path 973" d="M1759.139,72.209c.541,6.372-3.587,12.035-9.223,12.652s-10.649-4.044-11.2-10.415,3.568-12.042,9.2-12.67c5.642-.6,10.656,4.059,11.219,10.433Z" transform="translate(-0.081 8.437)" fill="#00bbcd"/>
    <path id="Path_974" data-name="Path 974" d="M1846.489,199.441c.536,6.371-3.6,12.029-9.231,12.641s-10.645-4.051-11.194-10.42,3.571-12.038,9.205-12.665C1840.917,188.386,1845.936,193.058,1846.489,199.441Z" transform="translate(-0.086 25.022)" fill="#00bbcd"/>
    <path id="Path_975" data-name="Path 975" d="M1888.6,117.481c.535,6.37-3.595,12.026-9.229,12.64s-10.644-4.045-11.2-10.413,3.563-12.038,9.195-12.671c5.649-.61,10.671,4.06,11.229,10.445Z" transform="translate(-0.088 14.337)" fill="#00bbcd"/>
    <ellipse id="Ellipse_142" data-name="Ellipse 142" cx="10.25" cy="11.654" rx="10.25" ry="11.654" transform="translate(1815.135 61.431)" fill="#00bbcd"/>
    <path id="Path_976" data-name="Path 976" d="M1770.849,203.139c.535,6.363-3.59,12.014-9.219,12.629s-10.633-4.04-11.185-10.4,3.558-12.026,9.185-12.66c5.642-.6,10.656,4.059,11.219,10.433Z" transform="translate(-0.082 25.506)" fill="#00bbcd"/>
    <path id="Path_977" data-name="Path 977" d="M1719.459,152.6c.535,6.371-3.6,12.029-9.231,12.641s-10.645-4.051-11.194-10.421,3.571-12.038,9.206-12.665C1713.885,141.552,1718.9,146.221,1719.459,152.6Z" transform="translate(-0.079 18.916)" fill="#00bbcd"/>
    <path id="Path_978" data-name="Path 978" d="M1805.3,135.212c.674,7.964-4.49,15.039-11.535,15.8s-13.306-5.069-13.986-13.032,4.478-15.044,11.522-15.816c7.047-.748,13.3,5.082,14,13.044Z" transform="translate(-0.084 16.309)" fill="#ff711c"/>
    <ellipse id="Ellipse_143" data-name="Ellipse 143" cx="136.084" cy="153.831" rx="136.084" ry="153.831" transform="translate(1458.891 1403.011)" fill="#ff90ff"/>
    <path id="Path_979" data-name="Path 979" d="M1519.239,1307.078c22.079,10.772,46.308,6.364,66.407-7.359,18.759-12.83,33.529-31.775,45.568-53.33-48.26-15.041-99.927,1.093-134.514,42a61.472,61.472,0,0,0,22.539,18.685Z" transform="translate(-0.07 162.15)" fill="#ff74fc"/>
    <path id="Path_980" data-name="Path 980" d="M1486.61,1459.857c33.307,50,90.169,72.071,143.623,55.749C1593.805,1471.817,1535.548,1438.448,1486.61,1459.857Z" transform="translate(-0.07 189.833)" fill="#ff74fc"/>
    <path id="Path_981" data-name="Path 981" d="M1726.939,1343.54c-10.609,13.429-16.309,30.972-15,51.036a70.273,70.273,0,0,0,12.069,35.685,173.759,173.759,0,0,0,2.93-86.721Z" transform="translate(-0.08 175.537)" fill="#ff74fc"/>
    <path id="Path_982" data-name="Path 982" d="M1668.66,1412.6c-4.62-41.823,10.36-83.828,39.058-109.125a151.254,151.254,0,0,0-18-24.269c-23.849,43.745-55.537,80.674-99.825,97.855-43.284,16.669-91.106,7.085-126.684-25.388a173.9,173.9,0,0,0,2.83,86.744c72.437-33.651,157.432,11.3,206.11,77.995a141.923,141.923,0,0,0,21.809-21.1c3.06-3.663,5.91-7.449,8.59-11.3C1684.329,1466.952,1671.99,1442.638,1668.66,1412.6Z" transform="translate(-0.068 167.151)" fill="#ff74fc"/>
    <path id="Path_983" data-name="Path 983" d="M1653.584,1259.66c2.82,2,5.67,3.911,8.52,5.833,91.666-40.9,155.543-49.872,165.692-28.169,14,29.864-71.7,121.921-221.46,211.377s-265.308,117.558-279.267,87.75c-11.06-23.647,40.418-86.326,136.693-155.832,0-3.617.07-7.246.22-10.863-91.286,65.561-160.223,136.774-144.2,171.046,20.5,43.858,163.762-8.2,290.406-83.862s245.409-180.134,224.91-223.992C1820.417,1201.582,1742.9,1219.272,1653.584,1259.66Z" transform="translate(-0.062 159.029)" fill="#00fbd4"/>
    <path id="Path_984" data-name="Path 984" d="M184.507,673.24l19.309,44.231,43.178,7.087-31.239,34.419,7.37,48.617-38.618-22.958-38.618,22.958,7.38-48.617L122.03,724.558l43.168-7.087Z" transform="translate(-0.006 88.156)" fill="#ffb200"/>
    <path id="Path_985" data-name="Path 985" d="M474.059,337.64l8.74,20.007,19.539,3.21L488.2,376.434l3.34,22-17.479-10.377L456.59,398.431l3.33-22L445.79,360.858l19.529-3.21Z" transform="translate(-0.021 44.406)" fill="#ffb200"/>
    <path id="Path_986" data-name="Path 986" d="M644.708,484.75l16.359,37.46,36.568,6-26.459,29.163,6.24,41.168-32.708-19.431L612,598.543l6.25-41.168L591.79,528.212l36.568-6Z" transform="translate(-0.028 63.584)" fill="#ffb200"/>
    <path id="Path_987" data-name="Path 987" d="M437.169,578.7l8.74,20.019,19.539,3.21-14.139,15.576,3.33,22-17.469-10.388L419.69,639.5l3.34-22L408.89,601.929l19.539-3.21Z" transform="translate(-0.019 75.831)" fill="#ffb200"/>
    <path id="Path_988" data-name="Path 988" d="M995.167,280.26l16.349,37.46,36.578,6-26.469,29.163,6.25,41.168-32.708-19.431-32.708,19.431,6.25-41.168L942.24,323.722l36.578-6Z" transform="translate(-0.044 36.926)" fill="#ffb200"/>
    <path id="Path_989" data-name="Path 989" d="M1340.9,44.72l14.559,30.09,26.629,16.458-26.629,16.458-14.559,30.1-14.559-30.1L1299.72,91.268l26.619-16.458Z" transform="translate(-0.061 6.221)" fill="#fff"/>
    <path id="Path_990" data-name="Path 990" d="M1487.809,45.47l8.74,20.007,19.529,3.21-14.13,15.576,3.33,22-17.469-10.377-17.479,10.377,3.34-22L1459.53,68.688l19.539-3.21Z" transform="translate(-0.068 6.319)" fill="#ffb200"/>
    <path id="Path_991" data-name="Path 991" d="M1275.808,418.02l16.349,37.472,36.568,6-26.459,29.152,6.25,41.179-32.708-19.442L1243.1,531.825l6.25-41.179-26.469-29.152,36.568-6Z" transform="translate(-0.057 54.885)" fill="#ffb200"/>
    <path id="Path_992" data-name="Path 992" d="M1779.538,353.18l11.989,24.778,21.919,13.553-21.919,13.553-11.989,24.778-11.989-24.778-21.919-13.553,21.919-13.553Z" transform="translate(-0.082 46.432)" fill="#fff"/>
    <path id="Path_1015" data-name="Path 1015" d="M80.6,2.135c42.967-.313,77.546,34.6,77.233,77.98s-35.4,78.8-78.366,79.113-77.546-34.6-77.233-77.98S37.629,2.448,80.6,2.135Z" transform="translate(1674.252 1207.16) rotate(-28.3)" fill="#84f8f6"/>
    <path id="Path_993" data-name="Path 993" d="M1761.74,1050.477c24.489,24.235,59.057,27.314,89.781,13.2A76.26,76.26,0,0,0,1761.74,1050.477Z" transform="translate(-14.738 119.991)" fill="#00d1be"/>
    <path id="Path_994" data-name="Path 994" d="M1767.187,1144.512a102.33,102.33,0,0,1-12.446,32.281,76.839,76.839,0,0,0,22.1,13.4c27.723-38.4,60.693-70.508,104.558-84.426a80.106,80.106,0,0,0-12.2-32.628c-38.777,19.5-83.717,15.023-114.112-16.985a78.469,78.469,0,0,0-24.33,36.75c-.293.944-.476,1.875-.732,2.819C1754.119,1099.617,1772.849,1114.106,1767.187,1144.512Z" transform="translate(-21.722 123.543)" fill="#00d1be"/>
    <ellipse id="Ellipse_145" data-name="Ellipse 145" cx="69.117" cy="82.516" rx="69.117" ry="82.516" transform="translate(1124.707 1605.504)" fill="#ffb200"/>
    <path id="Path_995" data-name="Path 995" d="M1145.209,1555.8c13.659-32.521,6.88-68.568-13.139-95.323a95.361,95.361,0,0,0-7.3,36.76c-.1,21.766,7.215,42.741,20.439,58.564Z" transform="translate(-0.053 190.781)" fill="#ff711c"/>
    <path id="Path_996" data-name="Path 996" d="M1227.166,1530.882a74.943,74.943,0,0,1,30.369,2.43,95.5,95.5,0,0,0,5.25-26.665c-39.558-16.028-75.257-39.348-98.685-79.487a73.013,73.013,0,0,0-24,22.607c26.739,33.21,35.089,80.256,16.529,121.209a60.827,60.827,0,0,0,37.248,13.09c.86,0,1.7-.113,2.55-.147C1193.168,1558.327,1200.237,1534.736,1227.166,1530.882Z" transform="translate(-0.053 186.437)" fill="#ff711c"/>
    <path id="Path_997" data-name="Path 997" d="M1832.547,1452.86l16.359,37.449,36.568,6.014-26.459,29.152,6.24,41.179-32.708-19.442-32.708,19.442,6.25-41.179-26.459-29.152,36.568-6.014Z" transform="translate(-0.083 189.788)" fill="#ffb200"/>
    <path id="Path_998" data-name="Path 998" d="M1600.818,1075.68l17.039,35.211,31.139,19.25-31.139,19.25-17.039,35.211-17.029-35.211-31.149-19.25,31.149-19.25Z" transform="translate(-0.073 140.618)" fill="#fff"/>
    <path id="Path_999" data-name="Path 999" d="M1262.549,1305.24l8.74,20.007,19.539,3.21-14.139,15.576,3.34,22-17.479-10.388-17.469,10.388,3.33-22-14.129-15.576,19.539-3.21Z" transform="translate(-0.058 170.544)" fill="#ffb200"/>
    <path id="Path_1000" data-name="Path 1000" d="M1341,1585.24l11.989,24.778,21.919,13.553-21.919,13.553L1341,1661.9l-11.989-24.778-21.919-13.553,21.919-13.553Z" transform="translate(-0.061 207.045)" fill="#fff"/>
    <path id="Path_1001" data-name="Path 1001" d="M356.989,1660.233,143.519,1532.05c-14.2-8.58-19.593-28.511-12.079-44.6h0c7.59-16.04,25.214-22.14,39.448-13.655l213.47,128.194c14.189,8.58,19.586,28.5,12.079,44.593h0C388.847,1662.618,371.223,1668.719,356.989,1660.233Z" transform="translate(-0.006 192.018)" fill="none" stroke="#ffb200" stroke-linecap="round" stroke-linejoin="round" stroke-width="6.02"/>
    <path id="Path_1002" data-name="Path 1002" d="M303.142,1625.123,136.82,1525.244c-7.663-4.63-10.58-15.387-6.53-24.077l2.36-5.019c4.1-8.665,13.622-11.958,21.309-7.37l166.322,99.867c7.665,4.635,10.579,15.4,6.52,24.088l-2.35,5.008c-4.1,8.664-13.619,11.961-21.309,7.381Z" transform="translate(-0.006 194.2)" fill="none" stroke="#ffb200" stroke-linecap="round" stroke-linejoin="round" stroke-width="6.02"/>
    <path id="Path_1003" data-name="Path 1003" d="M149.418,1281.79l16.349,37.46,36.568,6-26.459,29.163,6.25,41.168-32.708-19.431-32.708,19.431,6.24-41.168L96.49,1325.252l36.568-6Z" transform="translate(-0.005 167.487)" fill="#ffb200"/>
    <path id="Path_1004" data-name="Path 1004" d="M424.188,1505.3l11.989,24.777,21.919,13.553-21.919,13.553-11.989,24.777L412.2,1557.184l-21.919-13.553,21.919-13.553Z" transform="translate(-0.018 196.624)" fill="#fff"/>
    <path id="Path_1005" data-name="Path 1005" d="M356.189,1460.28l8.74,20.007,19.539,3.21-14.139,15.577,3.34,22-17.479-10.377-17.469,10.377,3.33-22L327.92,1483.5l19.529-3.21Z" transform="translate(-0.015 190.755)" fill="#ffb200"/>
    <path id="Path_1006" data-name="Path 1006" d="M499.188,1372.28l11.989,24.777L533.1,1410.61l-21.919,13.553-11.989,24.777L487.2,1424.164,465.28,1410.61l21.919-13.553Z" transform="translate(-0.022 179.283)" fill="#fff"/>
  </g>
</svg>
