<svg id="Layer_2" data-name="Layer 2" xmlns="http://www.w3.org/2000/svg" width="1920" height="599.891" viewBox="0 0 1920 599.891">
  <g id="OBJECTS">
    <rect id="Rectangle_312" data-name="Rectangle 312" width="1920" height="599.891" transform="translate(1920 599.891) rotate(180)" fill="#ff0b53"/>
    <path id="Path_1869" data-name="Path 1869" d="M733.12,599.861S641.28,344.679,907.59,270.493,1128.44,0,1128.44,0h102.78V599.861Z" transform="translate(688.78)" fill="#fd9644"/>
    <path id="Path_1870" data-name="Path 1870" d="M498.17,0S590,255.182,323.71,329.375,102.86,599.861,102.86,599.861H.08V0Z" fill="#59b2ef"/>
    <path id="Path_1871" data-name="Path 1871" d="M569.38,809s69.3-218.57,249.38-241.73,244.37-131.78,258.89-159.56,67.14-147.6,153.57-150.37V809Z" transform="translate(688.78 -209.139)" fill="#fdbd47"/>
    <path id="Path_1872" data-name="Path 1872" d="M490.34,0S439,161.91,305.61,179.07s-181,97.62-191.77,118.19S64.1,406.6.08,408.65V0Z" fill="#4b52d1"/>
  </g>
</svg>
