<svg xmlns="http://www.w3.org/2000/svg" xmlns:xlink="http://www.w3.org/1999/xlink" width="1920" height="4122" viewBox="0 0 1920 4122">
  <defs>
    <clipPath id="clip-path">
      <rect id="Rectangle_1480" data-name="Rectangle 1480" width="1920" height="4122" transform="translate(0 80)" fill="#fff" stroke="#707070" stroke-width="1"/>
    </clipPath>
  </defs>
  <g id="Mask_Group_7" data-name="Mask Group 7" transform="translate(0 -80)" clip-path="url(#clip-path)">
    <g id="Group_1481" data-name="Group 1481" transform="translate(-536.629)">
      <g id="Group_1463" data-name="Group 1463" transform="translate(-1479.604 0)">
        <g id="Group_1462" data-name="Group 1462" transform="translate(0 0.001)">
          <path id="Path_5861" data-name="Path 5861" d="M-.273.5H4818.192V4287.123H-.273V.5Z" transform="translate(0.273 -0.5)" fill="#782ed9"/>
          <path id="Path_5799" data-name="Path 5799" d="M480.583,118.687C825.09,345.1,1257.728,514.664,1702.121,591.548c508.465,87.928,1052.976,14.589,1492.274,274.617,216.889,128.4,356.7,299.256,454.451,492.36,100.389,198.249,166.318,397.583,349.7,563.858,96.675,87.727,212.766,162.694,340.033,220.993V.065H317.819A1987.628,1987.628,0,0,0,480.583,118.687Z" transform="translate(479.887 -0.065)" fill="#5b1fbe" opacity="0.73" style="isolation: isolate"/>
          <path id="Path_5800" data-name="Path 5800" d="M3559.189,1344.63A2466.51,2466.51,0,0,0,3112.8,1721.618c-108.269,116.246-216.886,234.722-341.643,333.115-250.318,197.189-550.852,259.088-850.886,146.246-147.5-55.475-286.3-135.794-439.947-173.87-140.543-34.773-280.169-16.726-414.162,35.749-199.873,78.321-408.512,235.658-504.408,440.362h3408.38V1172.385C3824.24,1199.87,3688.389,1259.828,3559.189,1344.63Z" transform="translate(848.337 1783.401)" fill="#5b1fbe" opacity="0.73" style="isolation: isolate"/>
          <path id="Path_5801" data-name="Path 5801" d="M576.708,940.621,634.723,906.5l-61.238-68.248L441.34,914.621l29.007,86.123,59.626-32.5,91.857,160.87L288.244,1320.859l-93.469-160.87,40.288-22.749L54.573,440.135,409.109,235.392,919.963,742.377l38.677-22.749L1050.5,880.5,668.565,1101.491Zm-172.433-143,90.246-52-153.1-172.245-9.669,4.875Z" transform="translate(82.407 357.716)" fill="#ff711c"/>
          <path id="Path_5802" data-name="Path 5802" d="M297.59,491.848h0c-30.2-.1-54.7-24.9-54.792-55.248V140.859c.166-30.3,24.635-55.153,54.792-55.248h0c30.2.1,54.7,24.9,54.792,55.248V436.6C352.216,466.9,327.744,491.752,297.59,491.848Z" transform="translate(366.359 130.508)" fill="#ff711c"/>
          <path id="Path_5803" data-name="Path 5803" d="M184.391,199.589h0c.1-30.342,24.593-55.165,54.792-55.248h293.3c30.2.083,54.7,24.906,54.792,55.248h0c-.083,30.353-24.583,55.165-54.792,55.248h-293.3C208.974,254.754,184.474,229.942,184.391,199.589Z" transform="translate(278.117 219.648)" fill="#ff711c"/>
          <line id="Line_174" data-name="Line 174" y2="406.238" transform="translate(650.251 3879.573)" fill="none" stroke="#782ed9" stroke-linecap="round" stroke-linejoin="round" stroke-width="5.71"/>
          <path id="Path_5804" data-name="Path 5804" d="M1694.186,798.94h9.669c4.7-7.313,7.952-15.672,8.057-24.374l3.223-373.739c-.035-8.914-3.382-16.8-8.058-24.374-7.53-12.306-12.24-26.38-20.95-37.374-33.328-41.985-73.311-87.369-122.476-87.747-19.8,0-38.886,7.082-56.4,17.874-70.6,43.573-109.52,147.02-90.245,237.243,8.558,39.892,27,75.245,45.123,110.5,22.934,45.331,52.778,87.609,88.634,123.5C1588.862,778.583,1640.4,798.94,1694.186,798.94Z" transform="translate(2131.58 382.4)" fill="#ff711c"/>
          <path id="Path_5805" data-name="Path 5805" d="M1614.821,793.172a48.035,48.035,0,0,0,29.008-9.75c55.715-41.758,103.346-89.105,143.426-160.87,19.525-34.975,40.371-70.756,49.957-110.5,21.684-89.82-18.8-192.535-91.857-237.243-18.12-11.1-37.285-19.323-58.015-19.5-51.373-.429-93.384,43.042-128.922,84.5-9.16,10.641-16.418,25.321-24.173,37.374a47.736,47.736,0,0,0-8.058,26l-3.223,367.239c.008,7.837,2.732,15.858,6.446,22.749Z" transform="translate(2299.578 388.167)" fill="#ff711c"/>
          <path id="Path_5806" data-name="Path 5806" d="M1595.25,443.153s81.159-177.4-107.972-217.744" transform="translate(2245.825 342.511)" fill="none" stroke="#70220a" stroke-linecap="round" stroke-linejoin="round" stroke-width="7.16"/>
          <path id="Path_5807" data-name="Path 5807" d="M1536.49,312.242c35.135-75.169,125.563-120.2,206.275-102.372C1703.614,289.3,1622.925,330.348,1536.49,312.242Z" transform="translate(2319.895 313.364)" fill="#00bbcd"/>
          <path id="Path_5808" data-name="Path 5808" d="M1388.97,267.3c-18.8,58.728-2.076,127.587,40.288,172.245s108.32,64.811,167.6,48.749" transform="translate(2085.482 407.057)" fill="none"/>
          <path id="Path_5809" data-name="Path 5809" d="M1398.165,259.428c-27.454,112.35,39.664,225.911,151.484,253.492,1.877.464,4.557,1.214,6.446,1.625" transform="translate(2101.266 394.615)" fill="none" stroke="#faf4cd" stroke-linecap="round" stroke-linejoin="round" stroke-width="18.86"/>
          <path id="Path_5810" data-name="Path 5810" d="M1744.611,275.982l45.123,92.622,101.526,14.624-74.13,73.123L1834.857,557.1l-90.246-47.124L1652.754,557.1l17.727-100.747-74.13-73.123L1697.877,368.6Z" transform="translate(2409.906 419.496)" fill="#ffb200"/>
          <path id="Path_5811" data-name="Path 5811" d="M1580.662,410.741C1641.5,429.477,1689.219,485.6,1698.3,548.862" transform="translate(2386.112 625.165)" fill="none" stroke="#faf4cd" stroke-linecap="round" stroke-linejoin="round" stroke-width="18.86"/>
          <path id="Path_5812" data-name="Path 5812" d="M1479.938,326.429a222.64,222.64,0,0,0,1.611,165.745" transform="translate(2211.265 496.608)" fill="none" stroke="#ff5a10" stroke-linecap="round" stroke-linejoin="round" stroke-width="12.57"/>
          <path id="Path_5813" data-name="Path 5813" d="M1609.049,385.713c-33.028,24.787-49.338,70.857-37.065,110.5" transform="translate(2367.395 586.821)" fill="none" stroke="#ff5a10" stroke-linecap="round" stroke-linejoin="round" stroke-width="12.57"/>
          <path id="Path_5814" data-name="Path 5814" d="M1443.08,280.021c-10.766,22.266-39.333,34.912-62.85,27.624" transform="translate(2083.747 426.019)" fill="none" stroke="#e7b0f4" stroke-linecap="round" stroke-linejoin="round" stroke-width="2.64"/>
          <path id="Path_5815" data-name="Path 5815" d="M1452.24,303.369c-15.744,20.859-42.135,29.5-67.684,24.374" transform="translate(2090.703 461.171)" fill="none" stroke="#e7b0f4" stroke-linecap="round" stroke-linejoin="round" stroke-width="2.64"/>
          <path id="Path_5816" data-name="Path 5816" d="M1467.633,331.111c-15.7,20.859-40.536,29.438-66.073,24.374" transform="translate(2115.598 503.301)" fill="none" stroke="#e7b0f4" stroke-linecap="round" stroke-linejoin="round" stroke-width="2.64"/>
          <path id="Path_5817" data-name="Path 5817" d="M1650.278,419.92c-22.839-.277-48.953,27.477-49.958,50.374" transform="translate(2416.412 638.736)" fill="none" stroke="#e7b0f4" stroke-linecap="round" stroke-linejoin="round" stroke-width="2.64"/>
          <path id="Path_5818" data-name="Path 5818" d="M1672.536,438.063c-33.053.58-63.547,31.965-61.238,65" transform="translate(2432.829 666.092)" fill="none" stroke="#e7b0f4" stroke-linecap="round" stroke-linejoin="round" stroke-width="2.64"/>
          <path id="Path_5859" data-name="Path 5859" d="M34.084,0A33.906,33.906,0,1,1,0,33.931,33.921,33.921,0,0,1,34.084,0Z" transform="translate(3419.75 677.617) rotate(-80.819)" fill="none" stroke="#70220a" stroke-width="2.106"/>
          <ellipse id="Ellipse_192" data-name="Ellipse 192" cx="33.842" cy="34.124" rx="33.842" ry="34.124" transform="translate(3492.985 623.169)" fill="none" stroke="#70220a" stroke-miterlimit="10" stroke-width="2.1"/>
          <path id="Path_5819" data-name="Path 5819" d="M1389.741,259c3.812,0,6.446,4.294,6.446,8.125a6.182,6.182,0,0,1-6.446,6.5c-3.812,0-8.058-2.669-8.058-6.5s4.246-8.125,8.058-8.125Z" transform="translate(2086.323 394.231)" fill="#70220a"/>
          <ellipse id="Ellipse_193" data-name="Ellipse 193" cx="7.054" cy="7.469" rx="7.054" ry="7.469" transform="translate(3503.844 649.873)" fill="#70220a"/>
          <path id="Path_5820" data-name="Path 5820" d="M1500.482,267.173a98.469,98.469,0,0,0-48.346,22.749" transform="translate(2192.333 406.369)" fill="none" stroke="#faf4cd" stroke-linecap="round" stroke-linejoin="round" stroke-width="8.38"/>
          <path id="Path_5821" data-name="Path 5821" d="M1444.291,286.595a34.035,34.035,0,0,0-9.669,19.5" transform="translate(2166.336 435.695)" fill="none" stroke="#faf4cd" stroke-linecap="round" stroke-linejoin="round" stroke-width="8.38"/>
          <path id="Path_5822" data-name="Path 5822" d="M1590.955,272.807c28.581,2.92,53.688,20.29,67.684,45.5" transform="translate(2401.604 415.359)" fill="none" stroke="#faf4cd" stroke-linecap="round" stroke-linejoin="round" stroke-width="8.38"/>
          <path id="Path_5860" data-name="Path 5860" d="M208.937,0c115.355-.1,208.838,34.467,208.8,77.214S324.154,154.7,208.8,154.8-.038,120.333,0,77.586,93.582.1,208.937,0Z" transform="translate(4279.161 303.447) rotate(-11.01)" fill="none" stroke="#fff" stroke-width="2.46"/>
          <path id="Path_5857" data-name="Path 5857" d="M185.29,0C287.535-.184,370.351,38.756,370.263,86.977s-83.045,87.461-185.29,87.646S-.087,135.867,0,87.646,83.045.185,185.29,0Z" transform="matrix(0.422, -0.907, 0.907, 0.422, 4341.805, 470.3)" fill="none" stroke="#fff" stroke-width="2.46"/>
          <path id="Path_5858" data-name="Path 5858" d="M86.759,0c47.686-.106,86.156,83.639,85.927,187.049S133.613,374.377,85.928,374.483-.229,290.844,0,187.433,39.073.106,86.759,0Z" transform="matrix(0.82, -0.573, 0.573, 0.82, 4321.059, 235.435)" fill="none" stroke="#fff" stroke-width="2.46"/>
          <path id="Path_5823" data-name="Path 5823" d="M1790.559,84.8c1.36,14.224-10.016,26.257-24.173,27.624s-26.038-8.527-27.4-22.749a24.875,24.875,0,0,1,22.562-27.624C1775.714,60.707,1789.143,70.581,1790.559,84.8Z" transform="translate(2625.026 93.942)" fill="#00bbcd"/>
          <path id="Path_5824" data-name="Path 5824" d="M1877.874,213.222c1.345,14.224-10.015,26.273-24.173,27.624a24.739,24.739,0,0,1-27.4-22.749c-1.343-14.189,8.444-27.852,22.561-29.249C1863.041,187.486,1876.487,198.985,1877.874,213.222Z" transform="translate(2756.878 287.262)" fill="#00bbcd"/>
          <path id="Path_5825" data-name="Path 5825" d="M1919.4,129.83c1.343,14.224-8.4,27.9-22.561,29.249s-27.665-10.15-29.008-24.374c-1.34-14.179,10.069-26.215,24.173-27.624C1906.183,105.719,1918,115.588,1919.4,129.83Z" transform="translate(2820.103 162.662)" fill="#00bbcd"/>
          <ellipse id="Ellipse_197" data-name="Ellipse 197" cx="25.727" cy="26.142" rx="25.727" ry="26.142" transform="translate(4556.159 136.163)" fill="#00bbcd"/>
          <path id="Path_5826" data-name="Path 5826" d="M1802.02,215.555c1.343,14.212-10.028,27.9-24.173,29.249s-26.053-10.163-27.4-24.374a24.934,24.934,0,0,1,22.561-27.624C1787.173,191.459,1800.6,201.333,1802.02,215.555Z" transform="translate(2642.572 293.055)" fill="#00bbcd"/>
          <path id="Path_5827" data-name="Path 5827" d="M1750.673,165.449c1.346,14.224-10.015,26.273-24.173,27.624a24.739,24.739,0,0,1-27.4-22.749c-1.343-14.189,8.445-26.227,22.562-27.624C1735.836,141.353,1749.271,151.217,1750.673,165.449Z" transform="translate(2564.996 216.415)" fill="#00bbcd"/>
          <path id="Path_5828" data-name="Path 5828" d="M1842.968,150.374c1.692,17.772-9.707,34.049-27.4,35.749a32.667,32.667,0,0,1-35.453-29.249c-1.689-17.755,11.339-32.4,29.007-34.124C1826.812,121.081,1841.221,132.612,1842.968,150.374Z" transform="translate(2687.034 185.99)" fill="#ff711c"/>
          <ellipse id="Ellipse_198" data-name="Ellipse 198" cx="341.504" cy="342.749" rx="341.504" ry="342.749" transform="translate(3661.526 3129.619)" fill="#ff90ff"/>
          <path id="Path_5829" data-name="Path 5829" d="M1553.2,1387.948c55.414,24.031,115.542,14.363,165.987-16.25,47.082-28.62,84.2-70.534,114.418-118.621-121.123-33.555-250,2.983-336.809,94.247C1512.155,1365.47,1531.364,1378.686,1553.2,1387.948Z" transform="translate(2259.669 1887.955)" fill="#ff74fc"/>
          <path id="Path_5830" data-name="Path 5830" d="M1486.424,1467.857c83.6,111.539,226.823,161.531,360.982,125.121C1755.978,1495.291,1609.249,1420.1,1486.424,1467.857Z" transform="translate(2244.261 2211.033)" fill="#ff74fc"/>
          <path id="Path_5831" data-name="Path 5831" d="M1749.189,1343.7c-26.628,29.956-40.353,68.988-37.065,113.747a146.054,146.054,0,0,0,30.619,79.623C1763.543,1474.609,1765.188,1407.562,1749.189,1343.7Z" transform="translate(2584.208 2044.328)" fill="#ff74fc"/>
          <path id="Path_5832" data-name="Path 5832" d="M1985.56,1576.559c-11.594-93.3,26.275-187.309,98.3-243.742a339.077,339.077,0,0,0-45.123-53.623c-59.856,97.586-140.244,179.415-251.4,217.744-108.635,37.186-228.178,17.192-317.471-55.249-16.077,63.86-14.269,130.871,6.446,193.369,181.8-75.068,395.128,25.095,517.3,173.87a342.07,342.07,0,0,0,54.792-47.124c7.68-8.17,14.224-17.4,20.95-26C2023.632,1697.754,1993.918,1643.559,1985.56,1576.559Z" transform="translate(2202.799 1946.336)" fill="#ff74fc"/>
          <path id="Path_5833" data-name="Path 5833" d="M2160.9,1312.4c7.078,4.463,15.409,8.713,22.562,13,230.064-91.232,390.3-111.788,415.774-63.373,35.136,66.621-180.1,273.3-555.977,472.861s-665.979,261.489-701.014,194.994c-27.757-52.752,101.621-192.687,343.255-347.74,0-8.069-.377-16.306,0-24.375-229.111,146.253-402.8,305.409-362.594,381.864,51.449,97.839,412.168-18.074,730.022-186.87s615.482-402.647,564.034-500.485C2580.117,1182.3,2385.064,1222.3,2160.9,1312.4Z" transform="translate(1988.786 1851.386)" fill="#00fbd4"/>
          <path id="Path_5834" data-name="Path 5834" d="M278.281,673.569l48.346,97.5,109.584,16.249-78.965,76.373L376.585,972.56l-98.3-50.373L181.59,972.56l19.338-108.872-78.965-76.373,107.972-16.249Z" transform="translate(184.227 1024.505)" fill="#ffb200"/>
          <path id="Path_5835" data-name="Path 5835" d="M516.425,337.755l22.561,43.874,48.346,8.125-35.454,34.124,9.669,48.749-45.123-22.749-43.511,22.749,8.058-48.749-35.454-34.124,49.957-8.125Z" transform="translate(672.882 513.72)" fill="#ffb200"/>
          <path id="Path_5836" data-name="Path 5836" d="M724.291,484.579l41.9,84.5,90.245,13-66.073,65,16.115,91-82.188-42.249L642.1,738.072l16.115-91-66.073-65,91.857-13Z" transform="translate(893.682 737.385)" fill="#ffb200"/>
          <path id="Path_5837" data-name="Path 5837" d="M479.991,578.736l20.95,43.874,49.957,8.125-35.454,34.124,8.058,48.748-43.511-22.749L436.48,713.607l8.058-48.748-35.454-34.124,48.346-8.125Z" transform="translate(617.459 880.469)" fill="#ffb200"/>
          <path id="Path_5839" data-name="Path 5839" d="M1402.724,44.389l37.065,68.248,66.073,35.749-66.073,37.374-37.065,66.623-35.454-66.623-67.684-37.374,67.684-35.749Z" transform="translate(1962.145 67.733)" fill="#fff"/>
          <path id="Path_5840" data-name="Path 5840" d="M1530.424,44.975l22.561,45.5,48.346,6.5-35.454,35.749,8.058,48.749-43.511-22.749-43.511,22.749,8.057-48.749-35.453-35.749,48.346-6.5Z" transform="translate(2203.485 68.771)" fill="#ffb200"/>
          <path id="Path_5841" data-name="Path 5841" d="M1356.169,418.4l40.288,82.873,91.857,13-66.073,65,16.115,92.622-82.188-43.874-82.188,43.874,16.115-92.622-67.684-65,91.857-13Z" transform="translate(1845.936 636.193)" fill="#ffb200"/>
          <path id="Path_5842" data-name="Path 5842" d="M1829.86,353.18l30.619,55.248,54.792,30.874-54.792,29.249L1829.86,523.8l-29.007-55.248L1746.061,439.3l54.792-30.874Z" transform="translate(2635.681 537.294)" fill="#fff"/>
          <ellipse id="Ellipse_199" data-name="Ellipse 199" cx="158.926" cy="160.586" rx="158.926" ry="160.586" transform="translate(4336.235 2625.039)" fill="#84f8f6"/>
          <path id="Path_5843" data-name="Path 5843" d="M1762.082,1059.341c50.37,49.222,120.52,56.295,183.714,27.624C1896.491,1038.843,1822.927,1027.208,1762.082,1059.341Z" transform="translate(2659.948 1584.455)" fill="#00d1be"/>
          <path id="Path_5844" data-name="Path 5844" d="M1807.114,1235.023a212.484,212.484,0,0,1-25.784,66.623c13.527,11.562,28.564,19.552,45.123,26,57.02-77.993,124.109-142.353,214.333-170.62-3.36-23.689-11.009-46.682-24.173-66.623-79.758,39.615-172.766,30.883-235.283-34.124a159.409,159.409,0,0,0-49.957,74.748c-.6,1.917-1.085,2.959-1.611,4.875C1779.328,1143.819,1818.759,1173.269,1807.114,1235.023Z" transform="translate(2611.693 1607.018)" fill="#00d1be"/>
          <ellipse id="Ellipse_200" data-name="Ellipse 200" cx="173.449" cy="184.238" rx="173.449" ry="184.238" transform="translate(2823.325 3579.425)" fill="#ffb200"/>
          <path id="Path_5845" data-name="Path 5845" d="M1176.664,1673.037c34.282-72.547,16.4-153.182-33.842-212.869-12.071,25.635-17.735,54.515-17.727,82.873C1124.831,1591.6,1143.476,1637.739,1176.664,1673.037Z" transform="translate(1698.301 2221.972)" fill="#ff711c"/>
          <path id="Path_5846" data-name="Path 5846" d="M1358.105,1658.3c25.524-2.852,50.873-1.562,75.742,4.875,7.521-19,13.3-38.091,14.5-58.5-99.284-35.756-189.373-87.577-248.175-177.12a174.142,174.142,0,0,0-59.626,50.374c67.109,74.085,86.868,178.384,40.288,269.742a165.085,165.085,0,0,0,93.469,29.249c2.158,0,4.313.076,6.446,0C1272.57,1719.829,1290.519,1666.9,1358.105,1658.3Z" transform="translate(1721.523 2171.714)" fill="#ff711c"/>
          <path id="Path_5847" data-name="Path 5847" d="M1912.257,1452.373l40.288,84.5,91.857,13-66.073,65,16.115,92.622-82.188-43.874-82.188,43.874,16.115-92.622-66.073-65,90.245-13Z" transform="translate(2687.042 2210.268)" fill="#ffb200"/>
          <path id="Path_5848" data-name="Path 5848" d="M1673.487,1075.5,1717,1155.124l77.353,42.249L1717,1239.622l-43.511,79.623-41.9-79.623-78.965-42.249,78.965-42.249Z" transform="translate(2344.05 1636.542)" fill="#fff"/>
          <path id="Path_5849" data-name="Path 5849" d="M1304.966,1304.83l22.561,45.5,48.346,6.5-35.454,35.749,8.058,48.748-43.511-22.749-43.511,22.749,8.058-48.748-35.454-35.749,49.957-6.5Z" transform="translate(1863.297 1985.697)" fill="#ffb200"/>
          <path id="Path_5850" data-name="Path 5850" d="M1391.278,1585.325l30.619,55.248,54.792,30.874L1421.9,1700.7l-30.619,55.248-29.007-55.248-54.792-29.249,54.792-30.874Z" transform="translate(1973.591 2412.056)" fill="#fff"/>
          <path id="Path_5851" data-name="Path 5851" d="M701.955,1894.668,166.928,1608.677a73.623,73.623,0,0,1-30.619-99.122h0c19.051-35.781,64.192-49.8,99.915-30.874l535.027,285.991a73.654,73.654,0,0,1,30.619,99.122h0C782.819,1899.576,737.678,1913.6,701.955,1894.668Z" transform="translate(193.248 2236.771)" fill="none" stroke="#ffb200" stroke-linecap="round" stroke-linejoin="round" stroke-width="6.02"/>
          <path id="Path_5852" data-name="Path 5852" d="M567.62,1796.478,150.234,1572.235C131,1561.906,122.341,1538,132.507,1518.611l6.446-11.374a39.145,39.145,0,0,1,53.18-16.25l417.386,222.619c19.239,10.338,26.3,35.865,16.115,55.248l-4.835,9.75C610.51,1797.932,586.922,1806.7,567.62,1796.478Z" transform="translate(193.827 2261.838)" fill="none" stroke="#ffb200" stroke-linecap="round" stroke-linejoin="round" stroke-width="6.02"/>
          <path id="Path_5853" data-name="Path 5853" d="M229.955,1281.77l40.288,82.873,91.857,14.625-66.073,65,16.115,91-82.188-42.249-82.188,42.249,14.5-91-66.073-65,91.857-14.625Z" transform="translate(145.531 1950.259)" fill="#ffb200"/>
          <path id="Path_5854" data-name="Path 5854" d="M475.867,1505.436l29.007,55.248,54.792,29.249-54.792,30.874-29.007,55.248-30.619-55.248-54.792-30.874,54.792-29.249Z" transform="translate(589.352 2290.45)" fill="#fff"/>
          <path id="Path_5855" data-name="Path 5855" d="M399.119,1460.278l20.95,43.874,49.957,8.125L434.573,1546.4l8.058,48.748L399.119,1572.4l-43.511,22.749,8.058-48.748-35.454-34.124,48.346-8.125Z" transform="translate(495.278 2221.862)" fill="#ffb200"/>
          <path id="Path_5856" data-name="Path 5856" d="M549.455,1371.837l30.619,55.248,54.792,30.874-54.792,30.874-30.619,55.248-29.007-55.248-54.792-30.874,54.792-30.874Z" transform="translate(702.702 2087.685)" fill="#fff"/>
        </g>
        <g id="Group_1473" data-name="Group 1473" transform="translate(0)">
          <path id="Path_5861-2" data-name="Path 5861" d="M-.273.5H4818.192V4287.123H-.273V.5Z" transform="translate(0.273 -0.5)" fill="#782ed9"/>
          <path id="Path_5799-2" data-name="Path 5799" d="M480.583,118.687C825.09,345.1,1257.728,514.664,1702.121,591.548c508.465,87.928,1052.976,14.589,1492.274,274.617,216.889,128.4,356.7,299.256,454.451,492.36,100.389,198.249,166.318,397.583,349.7,563.858,96.675,87.727,212.766,162.694,340.033,220.993V.065H317.819A1987.628,1987.628,0,0,0,480.583,118.687Z" transform="translate(479.887 -0.065)" fill="#5b1fbe" opacity="0.73" style="isolation: isolate"/>
          <path id="Path_5800-2" data-name="Path 5800" d="M3559.189,1344.63A2466.51,2466.51,0,0,0,3112.8,1721.618c-108.269,116.246-216.886,234.722-341.643,333.115-250.318,197.189-550.852,259.088-850.886,146.246-147.5-55.475-286.3-135.794-439.947-173.87-140.543-34.773-280.169-16.726-414.162,35.749-199.873,78.321-408.512,235.658-504.408,440.362h3408.38V1172.385C3824.24,1199.87,3688.389,1259.828,3559.189,1344.63Z" transform="translate(848.337 1783.401)" fill="#5b1fbe" opacity="0.73" style="isolation: isolate"/>
          <path id="Path_5801-2" data-name="Path 5801" d="M576.708,940.621,634.723,906.5l-61.238-68.248L441.34,914.621l29.007,86.123,59.626-32.5,91.857,160.87L288.244,1320.859l-93.469-160.87,40.288-22.749L54.573,440.135,409.109,235.392,919.963,742.377l38.677-22.749L1050.5,880.5,668.565,1101.491Zm-172.433-143,90.246-52-153.1-172.245-9.669,4.875Z" transform="translate(82.407 357.716)" fill="#ff711c"/>
          <path id="Path_5802-2" data-name="Path 5802" d="M297.59,491.848h0c-30.2-.1-54.7-24.9-54.792-55.248V140.859c.166-30.3,24.635-55.153,54.792-55.248h0c30.2.1,54.7,24.9,54.792,55.248V436.6C352.216,466.9,327.744,491.752,297.59,491.848Z" transform="translate(366.359 130.508)" fill="#ff711c"/>
          <path id="Path_5803-2" data-name="Path 5803" d="M184.391,199.589h0c.1-30.342,24.593-55.165,54.792-55.248h293.3c30.2.083,54.7,24.906,54.792,55.248h0c-.083,30.353-24.583,55.165-54.792,55.248h-293.3C208.974,254.754,184.474,229.942,184.391,199.589Z" transform="translate(278.117 219.648)" fill="#ff711c"/>
          <line id="Line_174-2" data-name="Line 174" y2="406.238" transform="translate(650.251 3879.573)" fill="none" stroke="#782ed9" stroke-linecap="round" stroke-linejoin="round" stroke-width="5.71"/>
          <path id="Path_5804-2" data-name="Path 5804" d="M1694.186,798.94h9.669c4.7-7.313,7.952-15.672,8.057-24.374l3.223-373.739c-.035-8.914-3.382-16.8-8.058-24.374-7.53-12.306-12.24-26.38-20.95-37.374-33.328-41.985-73.311-87.369-122.476-87.747-19.8,0-38.886,7.082-56.4,17.874-70.6,43.573-109.52,147.02-90.245,237.243,8.558,39.892,27,75.245,45.123,110.5,22.934,45.331,52.778,87.609,88.634,123.5C1588.862,778.583,1640.4,798.94,1694.186,798.94Z" transform="translate(2131.58 382.4)" fill="#ff711c"/>
          <path id="Path_5805-2" data-name="Path 5805" d="M1614.821,793.172a48.035,48.035,0,0,0,29.008-9.75c55.715-41.758,103.346-89.105,143.426-160.87,19.525-34.975,40.371-70.756,49.957-110.5,21.684-89.82-18.8-192.535-91.857-237.243-18.12-11.1-37.285-19.323-58.015-19.5-51.373-.429-93.384,43.042-128.922,84.5-9.16,10.641-16.418,25.321-24.173,37.374a47.736,47.736,0,0,0-8.058,26l-3.223,367.239c.008,7.837,2.732,15.858,6.446,22.749Z" transform="translate(2299.578 388.167)" fill="#ff711c"/>
          <path id="Path_5806-2" data-name="Path 5806" d="M1595.25,443.153s81.159-177.4-107.972-217.744" transform="translate(2245.825 342.511)" fill="none" stroke="#70220a" stroke-linecap="round" stroke-linejoin="round" stroke-width="7.16"/>
          <path id="Path_5807-2" data-name="Path 5807" d="M1536.49,312.242c35.135-75.169,125.563-120.2,206.275-102.372C1703.614,289.3,1622.925,330.348,1536.49,312.242Z" transform="translate(2319.895 313.364)" fill="#00bbcd"/>
          <path id="Path_5808-2" data-name="Path 5808" d="M1388.97,267.3c-18.8,58.728-2.076,127.587,40.288,172.245s108.32,64.811,167.6,48.749" transform="translate(2085.482 407.057)" fill="none"/>
          <path id="Path_5809-2" data-name="Path 5809" d="M1398.165,259.428c-27.454,112.35,39.664,225.911,151.484,253.492,1.877.464,4.557,1.214,6.446,1.625" transform="translate(2101.266 394.615)" fill="none" stroke="#faf4cd" stroke-linecap="round" stroke-linejoin="round" stroke-width="18.86"/>
          <path id="Path_5810-2" data-name="Path 5810" d="M1744.611,275.982l45.123,92.622,101.526,14.624-74.13,73.123L1834.857,557.1l-90.246-47.124L1652.754,557.1l17.727-100.747-74.13-73.123L1697.877,368.6Z" transform="translate(2409.906 419.496)" fill="#ffb200"/>
          <path id="Path_5811-2" data-name="Path 5811" d="M1580.662,410.741C1641.5,429.477,1689.219,485.6,1698.3,548.862" transform="translate(2386.112 625.165)" fill="none" stroke="#faf4cd" stroke-linecap="round" stroke-linejoin="round" stroke-width="18.86"/>
          <path id="Path_5812-2" data-name="Path 5812" d="M1479.938,326.429a222.64,222.64,0,0,0,1.611,165.745" transform="translate(2211.265 496.608)" fill="none" stroke="#ff5a10" stroke-linecap="round" stroke-linejoin="round" stroke-width="12.57"/>
          <path id="Path_5813-2" data-name="Path 5813" d="M1609.049,385.713c-33.028,24.787-49.338,70.857-37.065,110.5" transform="translate(2367.395 586.821)" fill="none" stroke="#ff5a10" stroke-linecap="round" stroke-linejoin="round" stroke-width="12.57"/>
          <path id="Path_5814-2" data-name="Path 5814" d="M1443.08,280.021c-10.766,22.266-39.333,34.912-62.85,27.624" transform="translate(2083.747 426.019)" fill="none" stroke="#e7b0f4" stroke-linecap="round" stroke-linejoin="round" stroke-width="2.64"/>
          <path id="Path_5815-2" data-name="Path 5815" d="M1452.24,303.369c-15.744,20.859-42.135,29.5-67.684,24.374" transform="translate(2090.703 461.171)" fill="none" stroke="#e7b0f4" stroke-linecap="round" stroke-linejoin="round" stroke-width="2.64"/>
          <path id="Path_5816-2" data-name="Path 5816" d="M1467.633,331.111c-15.7,20.859-40.536,29.438-66.073,24.374" transform="translate(2115.598 503.301)" fill="none" stroke="#e7b0f4" stroke-linecap="round" stroke-linejoin="round" stroke-width="2.64"/>
          <path id="Path_5817-2" data-name="Path 5817" d="M1650.278,419.92c-22.839-.277-48.953,27.477-49.958,50.374" transform="translate(2416.412 638.736)" fill="none" stroke="#e7b0f4" stroke-linecap="round" stroke-linejoin="round" stroke-width="2.64"/>
          <path id="Path_5818-2" data-name="Path 5818" d="M1672.536,438.063c-33.053.58-63.547,31.965-61.238,65" transform="translate(2432.829 666.092)" fill="none" stroke="#e7b0f4" stroke-linecap="round" stroke-linejoin="round" stroke-width="2.64"/>
          <path id="Path_5859-2" data-name="Path 5859" d="M34.084,0A33.906,33.906,0,1,1,0,33.931,33.921,33.921,0,0,1,34.084,0Z" transform="translate(3419.75 677.617) rotate(-80.819)" fill="none" stroke="#70220a" stroke-width="2.106"/>
          <ellipse id="Ellipse_192-2" data-name="Ellipse 192" cx="33.842" cy="34.124" rx="33.842" ry="34.124" transform="translate(3492.985 623.169)" fill="none" stroke="#70220a" stroke-miterlimit="10" stroke-width="2.1"/>
          <path id="Path_5819-2" data-name="Path 5819" d="M1389.741,259c3.812,0,6.446,4.294,6.446,8.125a6.182,6.182,0,0,1-6.446,6.5c-3.812,0-8.058-2.669-8.058-6.5s4.246-8.125,8.058-8.125Z" transform="translate(2086.323 394.231)" fill="#70220a"/>
          <ellipse id="Ellipse_193-2" data-name="Ellipse 193" cx="7.054" cy="7.469" rx="7.054" ry="7.469" transform="translate(3503.844 649.873)" fill="#70220a"/>
          <path id="Path_5820-2" data-name="Path 5820" d="M1500.482,267.173a98.469,98.469,0,0,0-48.346,22.749" transform="translate(2192.333 406.369)" fill="none" stroke="#faf4cd" stroke-linecap="round" stroke-linejoin="round" stroke-width="8.38"/>
          <path id="Path_5821-2" data-name="Path 5821" d="M1444.291,286.595a34.035,34.035,0,0,0-9.669,19.5" transform="translate(2166.336 435.695)" fill="none" stroke="#faf4cd" stroke-linecap="round" stroke-linejoin="round" stroke-width="8.38"/>
          <path id="Path_5822-2" data-name="Path 5822" d="M1590.955,272.807c28.581,2.92,53.688,20.29,67.684,45.5" transform="translate(2401.604 415.359)" fill="none" stroke="#faf4cd" stroke-linecap="round" stroke-linejoin="round" stroke-width="8.38"/>
          <path id="Path_5860-2" data-name="Path 5860" d="M208.937,0c115.355-.1,208.838,34.467,208.8,77.214S324.154,154.7,208.8,154.8-.038,120.333,0,77.586,93.582.1,208.937,0Z" transform="translate(4279.161 303.447) rotate(-11.01)" fill="none" stroke="#fff" stroke-width="2.46"/>
          <path id="Path_5857-2" data-name="Path 5857" d="M185.29,0C287.535-.184,370.351,38.756,370.263,86.977s-83.045,87.461-185.29,87.646S-.087,135.867,0,87.646,83.045.185,185.29,0Z" transform="matrix(0.422, -0.907, 0.907, 0.422, 4341.805, 470.3)" fill="none" stroke="#fff" stroke-width="2.46"/>
          <path id="Path_5858-2" data-name="Path 5858" d="M86.759,0c47.686-.106,86.156,83.639,85.927,187.049S133.613,374.377,85.928,374.483-.229,290.844,0,187.433,39.073.106,86.759,0Z" transform="matrix(0.82, -0.573, 0.573, 0.82, 4321.059, 235.435)" fill="none" stroke="#fff" stroke-width="2.46"/>
          <path id="Path_5823-2" data-name="Path 5823" d="M1790.559,84.8c1.36,14.224-10.016,26.257-24.173,27.624s-26.038-8.527-27.4-22.749a24.875,24.875,0,0,1,22.562-27.624C1775.714,60.707,1789.143,70.581,1790.559,84.8Z" transform="translate(2625.026 93.942)" fill="#00bbcd"/>
          <path id="Path_5824-2" data-name="Path 5824" d="M1877.874,213.222c1.345,14.224-10.015,26.273-24.173,27.624a24.739,24.739,0,0,1-27.4-22.749c-1.343-14.189,8.444-27.852,22.561-29.249C1863.041,187.486,1876.487,198.985,1877.874,213.222Z" transform="translate(2756.878 287.262)" fill="#00bbcd"/>
          <path id="Path_5825-2" data-name="Path 5825" d="M1919.4,129.83c1.343,14.224-8.4,27.9-22.561,29.249s-27.665-10.15-29.008-24.374c-1.34-14.179,10.069-26.215,24.173-27.624C1906.183,105.719,1918,115.588,1919.4,129.83Z" transform="translate(2820.103 162.662)" fill="#00bbcd"/>
          <ellipse id="Ellipse_197-2" data-name="Ellipse 197" cx="25.727" cy="26.142" rx="25.727" ry="26.142" transform="translate(4556.159 136.164)" fill="#00bbcd"/>
          <path id="Path_5826-2" data-name="Path 5826" d="M1802.02,215.555c1.343,14.212-10.028,27.9-24.173,29.249s-26.053-10.163-27.4-24.374a24.934,24.934,0,0,1,22.561-27.624C1787.173,191.459,1800.6,201.333,1802.02,215.555Z" transform="translate(2642.572 293.055)" fill="#00bbcd"/>
          <path id="Path_5827-2" data-name="Path 5827" d="M1750.673,165.449c1.346,14.224-10.015,26.273-24.173,27.624a24.739,24.739,0,0,1-27.4-22.749c-1.343-14.189,8.445-26.227,22.562-27.624C1735.836,141.353,1749.271,151.217,1750.673,165.449Z" transform="translate(2564.996 216.415)" fill="#00bbcd"/>
          <path id="Path_5828-2" data-name="Path 5828" d="M1842.968,150.374c1.692,17.772-9.707,34.049-27.4,35.749a32.667,32.667,0,0,1-35.453-29.249c-1.689-17.755,11.339-32.4,29.007-34.124C1826.812,121.081,1841.221,132.612,1842.968,150.374Z" transform="translate(2687.034 185.99)" fill="#ff711c"/>
          <ellipse id="Ellipse_198-2" data-name="Ellipse 198" cx="341.504" cy="342.749" rx="341.504" ry="342.749" transform="translate(3661.526 3129.619)" fill="#ff90ff"/>
          <path id="Path_5829-2" data-name="Path 5829" d="M1553.2,1387.948c55.414,24.031,115.542,14.363,165.987-16.25,47.082-28.62,84.2-70.534,114.418-118.621-121.123-33.555-250,2.983-336.809,94.247C1512.155,1365.47,1531.364,1378.686,1553.2,1387.948Z" transform="translate(2259.669 1887.955)" fill="#ff74fc"/>
          <path id="Path_5830-2" data-name="Path 5830" d="M1486.424,1467.857c83.6,111.539,226.823,161.531,360.982,125.121C1755.978,1495.291,1609.249,1420.1,1486.424,1467.857Z" transform="translate(2244.261 2211.033)" fill="#ff74fc"/>
          <path id="Path_5831-2" data-name="Path 5831" d="M1749.189,1343.7c-26.628,29.956-40.353,68.988-37.065,113.747a146.054,146.054,0,0,0,30.619,79.623C1763.543,1474.609,1765.188,1407.562,1749.189,1343.7Z" transform="translate(2584.208 2044.328)" fill="#ff74fc"/>
          <path id="Path_5832-2" data-name="Path 5832" d="M1985.56,1576.559c-11.594-93.3,26.275-187.309,98.3-243.742a339.077,339.077,0,0,0-45.123-53.623c-59.856,97.586-140.244,179.415-251.4,217.744-108.635,37.186-228.178,17.192-317.471-55.249-16.077,63.86-14.269,130.871,6.446,193.369,181.8-75.068,395.128,25.095,517.3,173.87a342.07,342.07,0,0,0,54.792-47.124c7.68-8.17,14.224-17.4,20.95-26C2023.632,1697.754,1993.918,1643.559,1985.56,1576.559Z" transform="translate(2202.799 1946.336)" fill="#ff74fc"/>
          <path id="Path_5833-2" data-name="Path 5833" d="M2160.9,1312.4c7.078,4.463,15.409,8.713,22.562,13,230.064-91.232,390.3-111.788,415.774-63.373,35.136,66.621-180.1,273.3-555.977,472.861s-665.979,261.489-701.014,194.994c-27.757-52.752,101.621-192.687,343.255-347.74,0-8.069-.377-16.306,0-24.375-229.111,146.253-402.8,305.409-362.594,381.864,51.449,97.839,412.168-18.074,730.022-186.87s615.482-402.647,564.034-500.485C2580.117,1182.3,2385.064,1222.3,2160.9,1312.4Z" transform="translate(1988.786 1851.386)" fill="#00fbd4"/>
          <path id="Path_5834-2" data-name="Path 5834" d="M278.281,673.569l48.346,97.5,109.584,16.249-78.965,76.373L376.585,972.56l-98.3-50.373L181.59,972.56l19.338-108.872-78.965-76.373,107.972-16.249Z" transform="translate(184.227 1024.505)" fill="#ffb200"/>
          <path id="Path_5835-2" data-name="Path 5835" d="M516.425,337.755l22.561,43.874,48.346,8.125-35.454,34.124,9.669,48.749-45.123-22.749-43.511,22.749,8.058-48.749-35.454-34.124,49.957-8.125Z" transform="translate(672.882 513.72)" fill="#ffb200"/>
          <path id="Path_5836-2" data-name="Path 5836" d="M724.291,484.579l41.9,84.5,90.245,13-66.073,65,16.115,91-82.188-42.249L642.1,738.072l16.115-91-66.073-65,91.857-13Z" transform="translate(893.682 737.385)" fill="#ffb200"/>
          <path id="Path_5837-2" data-name="Path 5837" d="M479.991,578.736l20.95,43.874,49.957,8.125-35.454,34.124,8.058,48.748-43.511-22.749L436.48,713.607l8.058-48.748-35.454-34.124,48.346-8.125Z" transform="translate(617.459 880.469)" fill="#ffb200"/>
          <path id="Path_5839-2" data-name="Path 5839" d="M1402.724,44.389l37.065,68.248,66.073,35.749-66.073,37.374-37.065,66.623-35.454-66.623-67.684-37.374,67.684-35.749Z" transform="translate(1962.145 67.733)" fill="#fff"/>
          <path id="Path_5840-2" data-name="Path 5840" d="M1530.424,44.975l22.561,45.5,48.346,6.5-35.454,35.749,8.058,48.749-43.511-22.749-43.511,22.749,8.057-48.749-35.453-35.749,48.346-6.5Z" transform="translate(2203.485 68.771)" fill="#ffb200"/>
          <path id="Path_5841-2" data-name="Path 5841" d="M1356.169,418.4l40.288,82.873,91.857,13-66.073,65,16.115,92.622-82.188-43.874-82.188,43.874,16.115-92.622-67.684-65,91.857-13Z" transform="translate(1845.936 636.193)" fill="#ffb200"/>
          <path id="Path_5842-2" data-name="Path 5842" d="M1829.86,353.18l30.619,55.248,54.792,30.874-54.792,29.249L1829.86,523.8l-29.007-55.248L1746.061,439.3l54.792-30.874Z" transform="translate(2635.681 537.294)" fill="#fff"/>
          <ellipse id="Ellipse_199-2" data-name="Ellipse 199" cx="158.926" cy="160.586" rx="158.926" ry="160.586" transform="translate(4336.235 2625.039)" fill="#84f8f6"/>
          <path id="Path_5843-2" data-name="Path 5843" d="M1762.082,1059.341c50.37,49.222,120.52,56.295,183.714,27.624C1896.491,1038.843,1822.927,1027.208,1762.082,1059.341Z" transform="translate(2659.948 1584.455)" fill="#00d1be"/>
          <path id="Path_5844-2" data-name="Path 5844" d="M1807.114,1235.023a212.484,212.484,0,0,1-25.784,66.623c13.527,11.562,28.564,19.552,45.123,26,57.02-77.993,124.109-142.353,214.333-170.62-3.36-23.689-11.009-46.682-24.173-66.623-79.758,39.615-172.766,30.883-235.283-34.124a159.409,159.409,0,0,0-49.957,74.748c-.6,1.917-1.085,2.959-1.611,4.875C1779.328,1143.819,1818.759,1173.269,1807.114,1235.023Z" transform="translate(2611.693 1607.018)" fill="#00d1be"/>
          <ellipse id="Ellipse_200-2" data-name="Ellipse 200" cx="173.449" cy="184.238" rx="173.449" ry="184.238" transform="translate(2823.325 3579.425)" fill="#ffb200"/>
          <path id="Path_5845-2" data-name="Path 5845" d="M1176.664,1673.037c34.282-72.547,16.4-153.182-33.842-212.869-12.071,25.635-17.735,54.515-17.727,82.873C1124.831,1591.6,1143.476,1637.739,1176.664,1673.037Z" transform="translate(1698.301 2221.972)" fill="#ff711c"/>
          <path id="Path_5846-2" data-name="Path 5846" d="M1358.105,1658.3c25.524-2.852,50.873-1.562,75.742,4.875,7.521-19,13.3-38.091,14.5-58.5-99.284-35.756-189.373-87.577-248.175-177.12a174.142,174.142,0,0,0-59.626,50.374c67.109,74.085,86.868,178.384,40.288,269.742a165.085,165.085,0,0,0,93.469,29.249c2.158,0,4.313.076,6.446,0C1272.57,1719.829,1290.519,1666.9,1358.105,1658.3Z" transform="translate(1721.523 2171.714)" fill="#ff711c"/>
          <path id="Path_5847-2" data-name="Path 5847" d="M1912.257,1452.373l40.288,84.5,91.857,13-66.073,65,16.115,92.622-82.188-43.874-82.188,43.874,16.115-92.622-66.073-65,90.245-13Z" transform="translate(2687.042 2210.268)" fill="#ffb200"/>
          <path id="Path_5848-2" data-name="Path 5848" d="M1673.487,1075.5,1717,1155.124l77.353,42.249L1717,1239.622l-43.511,79.623-41.9-79.623-78.965-42.249,78.965-42.249Z" transform="translate(2344.05 1636.542)" fill="#fff"/>
          <path id="Path_5849-2" data-name="Path 5849" d="M1304.966,1304.83l22.561,45.5,48.346,6.5-35.454,35.749,8.058,48.748-43.511-22.749-43.511,22.749,8.058-48.748-35.454-35.749,49.957-6.5Z" transform="translate(1863.297 1985.697)" fill="#ffb200"/>
          <path id="Path_5850-2" data-name="Path 5850" d="M1391.278,1585.325l30.619,55.248,54.792,30.874L1421.9,1700.7l-30.619,55.248-29.007-55.248-54.792-29.249,54.792-30.874Z" transform="translate(1973.591 2412.056)" fill="#fff"/>
          <path id="Path_5851-2" data-name="Path 5851" d="M701.955,1894.668,166.928,1608.677a73.623,73.623,0,0,1-30.619-99.122h0c19.051-35.781,64.192-49.8,99.915-30.874l535.027,285.991a73.654,73.654,0,0,1,30.619,99.122h0C782.819,1899.576,737.678,1913.6,701.955,1894.668Z" transform="translate(193.248 2236.771)" fill="none" stroke="#ffb200" stroke-linecap="round" stroke-linejoin="round" stroke-width="6.02"/>
          <path id="Path_5852-2" data-name="Path 5852" d="M567.62,1796.478,150.234,1572.235C131,1561.906,122.341,1538,132.507,1518.611l6.446-11.374a39.145,39.145,0,0,1,53.18-16.25l417.386,222.619c19.239,10.338,26.3,35.865,16.115,55.248l-4.835,9.75C610.51,1797.932,586.922,1806.7,567.62,1796.478Z" transform="translate(193.827 2261.838)" fill="none" stroke="#ffb200" stroke-linecap="round" stroke-linejoin="round" stroke-width="6.02"/>
          <path id="Path_5853-2" data-name="Path 5853" d="M229.955,1281.77l40.288,82.873,91.857,14.625-66.073,65,16.115,91-82.188-42.249-82.188,42.249,14.5-91-66.073-65,91.857-14.625Z" transform="translate(145.531 1950.259)" fill="#ffb200"/>
          <path id="Path_5854-2" data-name="Path 5854" d="M475.867,1505.436l29.007,55.248,54.792,29.249-54.792,30.874-29.007,55.248-30.619-55.248-54.792-30.874,54.792-29.249Z" transform="translate(589.352 2290.45)" fill="#fff"/>
          <path id="Path_5855-2" data-name="Path 5855" d="M399.119,1460.278l20.95,43.874,49.957,8.125L434.573,1546.4l8.058,48.748L399.119,1572.4l-43.511,22.749,8.058-48.748-35.454-34.124,48.346-8.125Z" transform="translate(495.278 2221.862)" fill="#ffb200"/>
          <path id="Path_5856-2" data-name="Path 5856" d="M549.455,1371.837l30.619,55.248,54.792,30.874-54.792,30.874-30.619,55.248-29.007-55.248-54.792-30.874,54.792-30.874Z" transform="translate(702.702 2087.685)" fill="#fff"/>
        </g>
        <g id="Group_1474" data-name="Group 1474" transform="translate(0)">
          <path id="Path_5861-3" data-name="Path 5861" d="M-.273.5H4818.192V4287.123H-.273V.5Z" transform="translate(0.273 -0.5)" fill="#782ed9"/>
          <path id="Path_5799-3" data-name="Path 5799" d="M480.583,118.687C825.09,345.1,1257.728,514.664,1702.121,591.548c508.465,87.928,1052.976,14.589,1492.274,274.617,216.889,128.4,356.7,299.256,454.451,492.36,100.389,198.249,166.318,397.583,349.7,563.858,96.675,87.727,212.766,162.694,340.033,220.993V.065H317.819A1987.628,1987.628,0,0,0,480.583,118.687Z" transform="translate(479.887 -0.065)" fill="#5b1fbe" opacity="0.73" style="isolation: isolate"/>
          <path id="Path_5800-3" data-name="Path 5800" d="M3559.189,1344.63A2466.51,2466.51,0,0,0,3112.8,1721.618c-108.269,116.246-216.886,234.722-341.643,333.115-250.318,197.189-550.852,259.088-850.886,146.246-147.5-55.475-286.3-135.794-439.947-173.87-140.543-34.773-280.169-16.726-414.162,35.749-199.873,78.321-408.512,235.658-504.408,440.362h3408.38V1172.385C3824.24,1199.87,3688.389,1259.828,3559.189,1344.63Z" transform="translate(848.337 1783.401)" fill="#5b1fbe" opacity="0.73" style="isolation: isolate"/>
          <path id="Path_5801-3" data-name="Path 5801" d="M576.708,940.621,634.723,906.5l-61.238-68.248L441.34,914.621l29.007,86.123,59.626-32.5,91.857,160.87L288.244,1320.859l-93.469-160.87,40.288-22.749L54.573,440.135,409.109,235.392,919.963,742.377l38.677-22.749L1050.5,880.5,668.565,1101.491Zm-172.433-143,90.246-52-153.1-172.245-9.669,4.875Z" transform="translate(82.407 357.716)" fill="#ff711c"/>
          <path id="Path_5802-3" data-name="Path 5802" d="M297.59,491.848h0c-30.2-.1-54.7-24.9-54.792-55.248V140.859c.166-30.3,24.635-55.153,54.792-55.248h0c30.2.1,54.7,24.9,54.792,55.248V436.6C352.216,466.9,327.744,491.752,297.59,491.848Z" transform="translate(366.359 130.508)" fill="#ff711c"/>
          <path id="Path_5803-3" data-name="Path 5803" d="M184.391,199.589h0c.1-30.342,24.593-55.165,54.792-55.248h293.3c30.2.083,54.7,24.906,54.792,55.248h0c-.083,30.353-24.583,55.165-54.792,55.248h-293.3C208.974,254.754,184.474,229.942,184.391,199.589Z" transform="translate(278.117 219.648)" fill="#ff711c"/>
          <line id="Line_174-3" data-name="Line 174" y2="406.238" transform="translate(650.251 3879.573)" fill="none" stroke="#782ed9" stroke-linecap="round" stroke-linejoin="round" stroke-width="5.71"/>
          <path id="Path_5804-3" data-name="Path 5804" d="M1694.186,798.94h9.669c4.7-7.313,7.952-15.672,8.057-24.374l3.223-373.739c-.035-8.914-3.382-16.8-8.058-24.374-7.53-12.306-12.24-26.38-20.95-37.374-33.328-41.985-73.311-87.369-122.476-87.747-19.8,0-38.886,7.082-56.4,17.874-70.6,43.573-109.52,147.02-90.245,237.243,8.558,39.892,27,75.245,45.123,110.5,22.934,45.331,52.778,87.609,88.634,123.5C1588.862,778.583,1640.4,798.94,1694.186,798.94Z" transform="translate(2131.58 382.4)" fill="#ff711c"/>
          <path id="Path_5805-3" data-name="Path 5805" d="M1614.821,793.172a48.035,48.035,0,0,0,29.008-9.75c55.715-41.758,103.346-89.105,143.426-160.87,19.525-34.975,40.371-70.756,49.957-110.5,21.684-89.82-18.8-192.535-91.857-237.243-18.12-11.1-37.285-19.323-58.015-19.5-51.373-.429-93.384,43.042-128.922,84.5-9.16,10.641-16.418,25.321-24.173,37.374a47.736,47.736,0,0,0-8.058,26l-3.223,367.239c.008,7.837,2.732,15.858,6.446,22.749Z" transform="translate(2299.578 388.167)" fill="#ff711c"/>
          <path id="Path_5806-3" data-name="Path 5806" d="M1595.25,443.153s81.159-177.4-107.972-217.744" transform="translate(2245.825 342.511)" fill="none" stroke="#70220a" stroke-linecap="round" stroke-linejoin="round" stroke-width="7.16"/>
          <path id="Path_5807-3" data-name="Path 5807" d="M1536.49,312.242c35.135-75.169,125.563-120.2,206.275-102.372C1703.614,289.3,1622.925,330.348,1536.49,312.242Z" transform="translate(2319.895 313.364)" fill="#00bbcd"/>
          <path id="Path_5808-3" data-name="Path 5808" d="M1388.97,267.3c-18.8,58.728-2.076,127.587,40.288,172.245s108.32,64.811,167.6,48.749" transform="translate(2085.482 407.057)" fill="none"/>
          <path id="Path_5809-3" data-name="Path 5809" d="M1398.165,259.428c-27.454,112.35,39.664,225.911,151.484,253.492,1.877.464,4.557,1.214,6.446,1.625" transform="translate(2101.266 394.615)" fill="none" stroke="#faf4cd" stroke-linecap="round" stroke-linejoin="round" stroke-width="18.86"/>
          <path id="Path_5810-3" data-name="Path 5810" d="M1744.611,275.982l45.123,92.622,101.526,14.624-74.13,73.123L1834.857,557.1l-90.246-47.124L1652.754,557.1l17.727-100.747-74.13-73.123L1697.877,368.6Z" transform="translate(2409.906 419.496)" fill="#ffb200"/>
          <path id="Path_5811-3" data-name="Path 5811" d="M1580.662,410.741C1641.5,429.477,1689.219,485.6,1698.3,548.862" transform="translate(2386.112 625.165)" fill="none" stroke="#faf4cd" stroke-linecap="round" stroke-linejoin="round" stroke-width="18.86"/>
          <path id="Path_5812-3" data-name="Path 5812" d="M1479.938,326.429a222.64,222.64,0,0,0,1.611,165.745" transform="translate(2211.265 496.608)" fill="none" stroke="#ff5a10" stroke-linecap="round" stroke-linejoin="round" stroke-width="12.57"/>
          <path id="Path_5813-3" data-name="Path 5813" d="M1609.049,385.713c-33.028,24.787-49.338,70.857-37.065,110.5" transform="translate(2367.395 586.821)" fill="none" stroke="#ff5a10" stroke-linecap="round" stroke-linejoin="round" stroke-width="12.57"/>
          <path id="Path_5814-3" data-name="Path 5814" d="M1443.08,280.021c-10.766,22.266-39.333,34.912-62.85,27.624" transform="translate(2083.747 426.019)" fill="none" stroke="#e7b0f4" stroke-linecap="round" stroke-linejoin="round" stroke-width="2.64"/>
          <path id="Path_5815-3" data-name="Path 5815" d="M1452.24,303.369c-15.744,20.859-42.135,29.5-67.684,24.374" transform="translate(2090.703 461.171)" fill="none" stroke="#e7b0f4" stroke-linecap="round" stroke-linejoin="round" stroke-width="2.64"/>
          <path id="Path_5816-3" data-name="Path 5816" d="M1467.633,331.111c-15.7,20.859-40.536,29.438-66.073,24.374" transform="translate(2115.598 503.301)" fill="none" stroke="#e7b0f4" stroke-linecap="round" stroke-linejoin="round" stroke-width="2.64"/>
          <path id="Path_5817-3" data-name="Path 5817" d="M1650.278,419.92c-22.839-.277-48.953,27.477-49.958,50.374" transform="translate(2416.412 638.736)" fill="none" stroke="#e7b0f4" stroke-linecap="round" stroke-linejoin="round" stroke-width="2.64"/>
          <path id="Path_5818-3" data-name="Path 5818" d="M1672.536,438.063c-33.053.58-63.547,31.965-61.238,65" transform="translate(2432.829 666.092)" fill="none" stroke="#e7b0f4" stroke-linecap="round" stroke-linejoin="round" stroke-width="2.64"/>
          <path id="Path_5859-3" data-name="Path 5859" d="M34.084,0A33.906,33.906,0,1,1,0,33.931,33.921,33.921,0,0,1,34.084,0Z" transform="translate(3419.75 677.617) rotate(-80.819)" fill="none" stroke="#70220a" stroke-width="2.106"/>
          <ellipse id="Ellipse_192-3" data-name="Ellipse 192" cx="33.842" cy="34.124" rx="33.842" ry="34.124" transform="translate(3492.985 623.169)" fill="none" stroke="#70220a" stroke-miterlimit="10" stroke-width="2.1"/>
          <path id="Path_5819-3" data-name="Path 5819" d="M1389.741,259c3.812,0,6.446,4.294,6.446,8.125a6.182,6.182,0,0,1-6.446,6.5c-3.812,0-8.058-2.669-8.058-6.5s4.246-8.125,8.058-8.125Z" transform="translate(2086.323 394.231)" fill="#70220a"/>
          <ellipse id="Ellipse_193-3" data-name="Ellipse 193" cx="7.054" cy="7.469" rx="7.054" ry="7.469" transform="translate(3503.844 649.873)" fill="#70220a"/>
          <path id="Path_5820-3" data-name="Path 5820" d="M1500.482,267.173a98.469,98.469,0,0,0-48.346,22.749" transform="translate(2192.333 406.369)" fill="none" stroke="#faf4cd" stroke-linecap="round" stroke-linejoin="round" stroke-width="8.38"/>
          <path id="Path_5821-3" data-name="Path 5821" d="M1444.291,286.595a34.035,34.035,0,0,0-9.669,19.5" transform="translate(2166.336 435.695)" fill="none" stroke="#faf4cd" stroke-linecap="round" stroke-linejoin="round" stroke-width="8.38"/>
          <path id="Path_5822-3" data-name="Path 5822" d="M1590.955,272.807c28.581,2.92,53.688,20.29,67.684,45.5" transform="translate(2401.604 415.359)" fill="none" stroke="#faf4cd" stroke-linecap="round" stroke-linejoin="round" stroke-width="8.38"/>
          <path id="Path_5860-3" data-name="Path 5860" d="M208.937,0c115.355-.1,208.838,34.467,208.8,77.214S324.154,154.7,208.8,154.8-.038,120.333,0,77.586,93.582.1,208.937,0Z" transform="translate(4279.161 303.447) rotate(-11.01)" fill="none" stroke="#fff" stroke-width="2.46"/>
          <path id="Path_5857-3" data-name="Path 5857" d="M185.29,0C287.535-.184,370.351,38.756,370.263,86.977s-83.045,87.461-185.29,87.646S-.087,135.867,0,87.646,83.045.185,185.29,0Z" transform="matrix(0.422, -0.907, 0.907, 0.422, 4341.805, 470.3)" fill="none" stroke="#fff" stroke-width="2.46"/>
          <path id="Path_5858-3" data-name="Path 5858" d="M86.759,0c47.686-.106,86.156,83.639,85.927,187.049S133.613,374.377,85.928,374.483-.229,290.844,0,187.433,39.073.106,86.759,0Z" transform="matrix(0.82, -0.573, 0.573, 0.82, 4321.059, 235.435)" fill="none" stroke="#fff" stroke-width="2.46"/>
          <path id="Path_5823-3" data-name="Path 5823" d="M1790.559,84.8c1.36,14.224-10.016,26.257-24.173,27.624s-26.038-8.527-27.4-22.749a24.875,24.875,0,0,1,22.562-27.624C1775.714,60.707,1789.143,70.581,1790.559,84.8Z" transform="translate(2625.026 93.942)" fill="#00bbcd"/>
          <path id="Path_5824-3" data-name="Path 5824" d="M1877.874,213.222c1.345,14.224-10.015,26.273-24.173,27.624a24.739,24.739,0,0,1-27.4-22.749c-1.343-14.189,8.444-27.852,22.561-29.249C1863.041,187.486,1876.487,198.985,1877.874,213.222Z" transform="translate(2756.878 287.262)" fill="#00bbcd"/>
          <path id="Path_5825-3" data-name="Path 5825" d="M1919.4,129.83c1.343,14.224-8.4,27.9-22.561,29.249s-27.665-10.15-29.008-24.374c-1.34-14.179,10.069-26.215,24.173-27.624C1906.183,105.719,1918,115.588,1919.4,129.83Z" transform="translate(2820.103 162.662)" fill="#00bbcd"/>
          <ellipse id="Ellipse_197-3" data-name="Ellipse 197" cx="25.727" cy="26.142" rx="25.727" ry="26.142" transform="translate(4556.159 136.164)" fill="#00bbcd"/>
          <path id="Path_5826-3" data-name="Path 5826" d="M1802.02,215.555c1.343,14.212-10.028,27.9-24.173,29.249s-26.053-10.163-27.4-24.374a24.934,24.934,0,0,1,22.561-27.624C1787.173,191.459,1800.6,201.333,1802.02,215.555Z" transform="translate(2642.572 293.055)" fill="#00bbcd"/>
          <path id="Path_5827-3" data-name="Path 5827" d="M1750.673,165.449c1.346,14.224-10.015,26.273-24.173,27.624a24.739,24.739,0,0,1-27.4-22.749c-1.343-14.189,8.445-26.227,22.562-27.624C1735.836,141.353,1749.271,151.217,1750.673,165.449Z" transform="translate(2564.996 216.415)" fill="#00bbcd"/>
          <path id="Path_5828-3" data-name="Path 5828" d="M1842.968,150.374c1.692,17.772-9.707,34.049-27.4,35.749a32.667,32.667,0,0,1-35.453-29.249c-1.689-17.755,11.339-32.4,29.007-34.124C1826.812,121.081,1841.221,132.612,1842.968,150.374Z" transform="translate(2687.034 185.99)" fill="#ff711c"/>
          <ellipse id="Ellipse_198-3" data-name="Ellipse 198" cx="341.504" cy="342.749" rx="341.504" ry="342.749" transform="translate(3661.526 3129.619)" fill="#ff90ff"/>
          <path id="Path_5829-3" data-name="Path 5829" d="M1553.2,1387.948c55.414,24.031,115.542,14.363,165.987-16.25,47.082-28.62,84.2-70.534,114.418-118.621-121.123-33.555-250,2.983-336.809,94.247C1512.155,1365.47,1531.364,1378.686,1553.2,1387.948Z" transform="translate(2259.669 1887.955)" fill="#ff74fc"/>
          <path id="Path_5830-3" data-name="Path 5830" d="M1486.424,1467.857c83.6,111.539,226.823,161.531,360.982,125.121C1755.978,1495.291,1609.249,1420.1,1486.424,1467.857Z" transform="translate(2244.261 2211.033)" fill="#ff74fc"/>
          <path id="Path_5831-3" data-name="Path 5831" d="M1749.189,1343.7c-26.628,29.956-40.353,68.988-37.065,113.747a146.054,146.054,0,0,0,30.619,79.623C1763.543,1474.609,1765.188,1407.562,1749.189,1343.7Z" transform="translate(2584.208 2044.328)" fill="#ff74fc"/>
          <path id="Path_5832-3" data-name="Path 5832" d="M1985.56,1576.559c-11.594-93.3,26.275-187.309,98.3-243.742a339.077,339.077,0,0,0-45.123-53.623c-59.856,97.586-140.244,179.415-251.4,217.744-108.635,37.186-228.178,17.192-317.471-55.249-16.077,63.86-14.269,130.871,6.446,193.369,181.8-75.068,395.128,25.095,517.3,173.87a342.07,342.07,0,0,0,54.792-47.124c7.68-8.17,14.224-17.4,20.95-26C2023.632,1697.754,1993.918,1643.559,1985.56,1576.559Z" transform="translate(2202.799 1946.336)" fill="#ff74fc"/>
          <path id="Path_5833-3" data-name="Path 5833" d="M2160.9,1312.4c7.078,4.463,15.409,8.713,22.562,13,230.064-91.232,390.3-111.788,415.774-63.373,35.136,66.621-180.1,273.3-555.977,472.861s-665.979,261.489-701.014,194.994c-27.757-52.752,101.621-192.687,343.255-347.74,0-8.069-.377-16.306,0-24.375-229.111,146.253-402.8,305.409-362.594,381.864,51.449,97.839,412.168-18.074,730.022-186.87s615.482-402.647,564.034-500.485C2580.117,1182.3,2385.064,1222.3,2160.9,1312.4Z" transform="translate(1988.786 1851.386)" fill="#00fbd4"/>
          <path id="Path_5834-3" data-name="Path 5834" d="M278.281,673.569l48.346,97.5,109.584,16.249-78.965,76.373L376.585,972.56l-98.3-50.373L181.59,972.56l19.338-108.872-78.965-76.373,107.972-16.249Z" transform="translate(184.227 1024.505)" fill="#ffb200"/>
          <path id="Path_5835-3" data-name="Path 5835" d="M516.425,337.755l22.561,43.874,48.346,8.125-35.454,34.124,9.669,48.749-45.123-22.749-43.511,22.749,8.058-48.749-35.454-34.124,49.957-8.125Z" transform="translate(672.882 513.72)" fill="#ffb200"/>
          <path id="Path_5836-3" data-name="Path 5836" d="M724.291,484.579l41.9,84.5,90.245,13-66.073,65,16.115,91-82.188-42.249L642.1,738.072l16.115-91-66.073-65,91.857-13Z" transform="translate(893.682 737.385)" fill="#ffb200"/>
          <path id="Path_5837-3" data-name="Path 5837" d="M479.991,578.736l20.95,43.874,49.957,8.125-35.454,34.124,8.058,48.748-43.511-22.749L436.48,713.607l8.058-48.748-35.454-34.124,48.346-8.125Z" transform="translate(617.459 880.469)" fill="#ffb200"/>
          <path id="Path_5840-3" data-name="Path 5840" d="M1530.424,44.975l22.561,45.5,48.346,6.5-35.454,35.749,8.058,48.749-43.511-22.749-43.511,22.749,8.057-48.749-35.453-35.749,48.346-6.5Z" transform="translate(2203.485 68.771)" fill="#ffb200"/>
          <path id="Path_5841-3" data-name="Path 5841" d="M1356.169,418.4l40.288,82.873,91.857,13-66.073,65,16.115,92.622-82.188-43.874-82.188,43.874,16.115-92.622-67.684-65,91.857-13Z" transform="translate(1845.936 636.193)" fill="#ffb200"/>
          <path id="Path_5842-3" data-name="Path 5842" d="M1829.86,353.18l30.619,55.248,54.792,30.874-54.792,29.249L1829.86,523.8l-29.007-55.248L1746.061,439.3l54.792-30.874Z" transform="translate(2635.681 537.294)" fill="#fff"/>
          <ellipse id="Ellipse_199-3" data-name="Ellipse 199" cx="158.926" cy="160.586" rx="158.926" ry="160.586" transform="translate(4336.235 2625.039)" fill="#84f8f6"/>
          <path id="Path_5843-3" data-name="Path 5843" d="M1762.082,1059.341c50.37,49.222,120.52,56.295,183.714,27.624C1896.491,1038.843,1822.927,1027.208,1762.082,1059.341Z" transform="translate(2659.948 1584.455)" fill="#00d1be"/>
          <path id="Path_5844-3" data-name="Path 5844" d="M1807.114,1235.023a212.484,212.484,0,0,1-25.784,66.623c13.527,11.562,28.564,19.552,45.123,26,57.02-77.993,124.109-142.353,214.333-170.62-3.36-23.689-11.009-46.682-24.173-66.623-79.758,39.615-172.766,30.883-235.283-34.124a159.409,159.409,0,0,0-49.957,74.748c-.6,1.917-1.085,2.959-1.611,4.875C1779.328,1143.819,1818.759,1173.269,1807.114,1235.023Z" transform="translate(2611.693 1607.018)" fill="#00d1be"/>
          <ellipse id="Ellipse_200-3" data-name="Ellipse 200" cx="173.449" cy="184.238" rx="173.449" ry="184.238" transform="translate(2823.325 3579.425)" fill="#ffb200"/>
          <path id="Path_5845-3" data-name="Path 5845" d="M1176.664,1673.037c34.282-72.547,16.4-153.182-33.842-212.869-12.071,25.635-17.735,54.515-17.727,82.873C1124.831,1591.6,1143.476,1637.739,1176.664,1673.037Z" transform="translate(1698.301 2221.972)" fill="#ff711c"/>
          <path id="Path_5846-3" data-name="Path 5846" d="M1358.105,1658.3c25.524-2.852,50.873-1.562,75.742,4.875,7.521-19,13.3-38.091,14.5-58.5-99.284-35.756-189.373-87.577-248.175-177.12a174.142,174.142,0,0,0-59.626,50.374c67.109,74.085,86.868,178.384,40.288,269.742a165.085,165.085,0,0,0,93.469,29.249c2.158,0,4.313.076,6.446,0C1272.57,1719.829,1290.519,1666.9,1358.105,1658.3Z" transform="translate(1721.523 2171.714)" fill="#ff711c"/>
          <path id="Path_5847-3" data-name="Path 5847" d="M1912.257,1452.373l40.288,84.5,91.857,13-66.073,65,16.115,92.622-82.188-43.874-82.188,43.874,16.115-92.622-66.073-65,90.245-13Z" transform="translate(2687.042 2210.268)" fill="#ffb200"/>
          <path id="Path_5848-3" data-name="Path 5848" d="M1673.487,1075.5,1717,1155.124l77.353,42.249L1717,1239.622l-43.511,79.623-41.9-79.623-78.965-42.249,78.965-42.249Z" transform="translate(2344.05 1636.542)" fill="#fff"/>
          <path id="Path_5849-3" data-name="Path 5849" d="M1304.966,1304.83l22.561,45.5,48.346,6.5-35.454,35.749,8.058,48.748-43.511-22.749-43.511,22.749,8.058-48.748-35.454-35.749,49.957-6.5Z" transform="translate(1863.297 1985.697)" fill="#ffb200"/>
          <path id="Path_5850-3" data-name="Path 5850" d="M1391.278,1585.325l30.619,55.248,54.792,30.874L1421.9,1700.7l-30.619,55.248-29.007-55.248-54.792-29.249,54.792-30.874Z" transform="translate(1973.591 2412.056)" fill="#fff"/>
          <path id="Path_5851-3" data-name="Path 5851" d="M701.955,1894.668,166.928,1608.677a73.623,73.623,0,0,1-30.619-99.122h0c19.051-35.781,64.192-49.8,99.915-30.874l535.027,285.991a73.654,73.654,0,0,1,30.619,99.122h0C782.819,1899.576,737.678,1913.6,701.955,1894.668Z" transform="translate(193.248 2236.771)" fill="none" stroke="#ffb200" stroke-linecap="round" stroke-linejoin="round" stroke-width="6.02"/>
          <path id="Path_5852-3" data-name="Path 5852" d="M567.62,1796.478,150.234,1572.235C131,1561.906,122.341,1538,132.507,1518.611l6.446-11.374a39.145,39.145,0,0,1,53.18-16.25l417.386,222.619c19.239,10.338,26.3,35.865,16.115,55.248l-4.835,9.75C610.51,1797.932,586.922,1806.7,567.62,1796.478Z" transform="translate(193.827 2261.838)" fill="none" stroke="#ffb200" stroke-linecap="round" stroke-linejoin="round" stroke-width="6.02"/>
          <path id="Path_5853-3" data-name="Path 5853" d="M229.955,1281.77l40.288,82.873,91.857,14.625-66.073,65,16.115,91-82.188-42.249-82.188,42.249,14.5-91-66.073-65,91.857-14.625Z" transform="translate(145.531 1950.259)" fill="#ffb200"/>
          <path id="Path_5854-3" data-name="Path 5854" d="M475.867,1505.436l29.007,55.248,54.792,29.249-54.792,30.874-29.007,55.248-30.619-55.248-54.792-30.874,54.792-29.249Z" transform="translate(589.352 2290.45)" fill="#fff"/>
          <path id="Path_5855-3" data-name="Path 5855" d="M399.119,1460.278l20.95,43.874,49.957,8.125L434.573,1546.4l8.058,48.748L399.119,1572.4l-43.511,22.749,8.058-48.748-35.454-34.124,48.346-8.125Z" transform="translate(495.278 2221.862)" fill="#ffb200"/>
          <path id="Path_5856-3" data-name="Path 5856" d="M549.455,1371.837l30.619,55.248,54.792,30.874-54.792,30.874-30.619,55.248-29.007-55.248-54.792-30.874,54.792-30.874Z" transform="translate(702.702 2087.685)" fill="#fff"/>
        </g>
      </g>
    </g>
  </g>
</svg>
