<svg xmlns="http://www.w3.org/2000/svg" xmlns:xlink="http://www.w3.org/1999/xlink" width="401.166" height="349.842" viewBox="0 0 401.166 349.842">
  <defs>
    <clipPath id="clip-path">
      <ellipse id="Ellipse_130" data-name="Ellipse 130" cx="6.479" cy="6.43" rx="6.479" ry="6.43" fill="#fff"/>
    </clipPath>
  </defs>
  <g id="Asset_1" data-name="Asset 1" transform="translate(0 -0.09)">
    <g id="Layer_2" data-name="Layer 2" transform="translate(0 0.09)">
      <g id="PRINT">
        <path id="Path_825" data-name="Path 825" d="M374.753,232H349.936a3.673,3.673,0,0,0-3.676,3.648V336.59h32.2V235.606a3.625,3.625,0,0,0-1.1-2.567A3.68,3.68,0,0,0,374.753,232Z" transform="translate(22.704 13.252)" fill="#ea4d7f"/>
        <rect id="Rectangle_160" data-name="Rectangle 160" width="25.382" height="99.556" transform="translate(372.374 250.286)" fill="#fff"/>
        <rect id="Rectangle_161" data-name="Rectangle 161" width="1.14" height="99.556" transform="translate(376.359 250.286)" fill="#b3c2d5"/>
        <rect id="Rectangle_162" data-name="Rectangle 162" width="1.14" height="99.556" transform="translate(381.783 250.286)" fill="#b3c2d5"/>
        <rect id="Rectangle_163" data-name="Rectangle 163" width="1.14" height="99.556" transform="translate(387.207 250.286)" fill="#b3c2d5"/>
        <rect id="Rectangle_164" data-name="Rectangle 164" width="1.14" height="99.556" transform="translate(392.63 250.286)" fill="#b3c2d5"/>
        <path id="Path_826" data-name="Path 826" d="M374.842,336.316V236.76H349.46v99.556h1.79v-97.06h21.8v97.06Z" transform="translate(22.914 13.526)" fill="#b3c2d5" opacity="0.5"/>
        <path id="Path_827" data-name="Path 827" d="M344.749,242.44H322.532a3.27,3.27,0,0,0-3.282,3.257v90.292h28.77V245.7a3.27,3.27,0,0,0-3.271-3.257Z" transform="translate(20.933 13.852)" fill="#ffc700"/>
        <rect id="Rectangle_165" data-name="Rectangle 165" width="22.697" height="89.012" transform="translate(343.231 260.819)" fill="#fff"/>
        <rect id="Rectangle_166" data-name="Rectangle 166" width="1.012" height="89.012" transform="translate(346.79 260.819)" fill="#b3c2d5"/>
        <rect id="Rectangle_167" data-name="Rectangle 167" width="1.012" height="89.012" transform="translate(351.638 260.819)" fill="#b3c2d5"/>
        <rect id="Rectangle_168" data-name="Rectangle 168" width="1.012" height="89.012" transform="translate(356.486 260.819)" fill="#b3c2d5"/>
        <rect id="Rectangle_169" data-name="Rectangle 169" width="1.012" height="89.012" transform="translate(361.345 260.819)" fill="#b3c2d5"/>
        <path id="Path_828" data-name="Path 828" d="M344.8,335.743V246.72H322.11v89.023h1.6V248.962H343.2v86.781Z" transform="translate(21.121 14.099)" fill="#b3c2d5" opacity="0.5"/>
        <path id="Path_829" data-name="Path 829" d="M50.47,273.812V109.345A6.369,6.369,0,0,1,56.863,103H346.837a6.369,6.369,0,0,1,6.393,6.345V273.812Z" transform="translate(3.309 5.83)" fill="#002a68" fill-rule="evenodd"/>
        <rect id="Rectangle_170" data-name="Rectangle 170" width="288.791" height="148.615" transform="translate(60.769 119.892)" fill="#ddf3ff"/>
        <rect id="Rectangle_171" data-name="Rectangle 171" width="66.364" height="52.231" transform="translate(81.655 137.532)" fill="#fff" stroke="#9edef8" stroke-linecap="round" stroke-linejoin="round" stroke-width="0.55"/>
        <rect id="Rectangle_172" data-name="Rectangle 172" width="66.364" height="25.381" transform="translate(262.311 137.532)" fill="#fff" stroke="#9edef8" stroke-linecap="round" stroke-linejoin="round" stroke-width="0.8"/>
        <rect id="Rectangle_173" data-name="Rectangle 173" width="66.364" height="25.381" transform="translate(262.311 167.322)" fill="#fff" stroke="#9edef8" stroke-linecap="round" stroke-linejoin="round" stroke-width="0.8"/>
        <rect id="Rectangle_174" data-name="Rectangle 174" width="66.364" height="25.381" transform="translate(262.311 197.103)" fill="#fff" stroke="#9edef8" stroke-linecap="round" stroke-linejoin="round" stroke-width="0.8"/>
        <rect id="Rectangle_175" data-name="Rectangle 175" width="66.364" height="25.381" transform="translate(262.311 226.883)" fill="#fff" stroke="#9edef8" stroke-linecap="round" stroke-linejoin="round" stroke-width="0.8"/>
        <line id="Line_4" data-name="Line 4" x2="65.596" transform="translate(81.655 200.423)" fill="none" stroke="#9edef8" stroke-linecap="round" stroke-linejoin="round" stroke-width="0.55"/>
        <line id="Line_5" data-name="Line 5" x2="65.596" transform="translate(81.655 210.026)" fill="none" stroke="#9edef8" stroke-linecap="round" stroke-linejoin="round" stroke-width="0.55"/>
        <line id="Line_6" data-name="Line 6" x2="65.596" transform="translate(81.655 219.617)" fill="none" stroke="#9edef8" stroke-linecap="round" stroke-linejoin="round" stroke-width="0.55"/>
        <line id="Line_7" data-name="Line 7" x2="65.596" transform="translate(81.655 229.22)" fill="none" stroke="#9edef8" stroke-linecap="round" stroke-linejoin="round" stroke-width="0.55"/>
        <line id="Line_8" data-name="Line 8" x2="65.596" transform="translate(81.655 238.812)" fill="none" stroke="#9edef8" stroke-linecap="round" stroke-linejoin="round" stroke-width="0.55"/>
        <line id="Line_9" data-name="Line 9" x2="65.596" transform="translate(81.655 248.414)" fill="none" stroke="#9edef8" stroke-linecap="round" stroke-linejoin="round" stroke-width="0.55"/>
        <line id="Line_10" data-name="Line 10" x2="65.596" transform="translate(81.655 265.155)" fill="none" stroke="#9edef8" stroke-linecap="round" stroke-linejoin="round" stroke-width="0.55"/>
        <line id="Line_11" data-name="Line 11" x2="65.596" transform="translate(164.087 138.981)" fill="none" stroke="#9edef8" stroke-linecap="round" stroke-linejoin="round" stroke-width="0.55"/>
        <line id="Line_12" data-name="Line 12" x2="65.596" transform="translate(164.087 148.583)" fill="none" stroke="#9edef8" stroke-linecap="round" stroke-linejoin="round" stroke-width="0.55"/>
        <line id="Line_13" data-name="Line 13" x2="65.596" transform="translate(164.087 158.175)" fill="none" stroke="#9edef8" stroke-linecap="round" stroke-linejoin="round" stroke-width="0.55"/>
        <line id="Line_14" data-name="Line 14" x2="65.596" transform="translate(164.087 167.777)" fill="none" stroke="#9edef8" stroke-linecap="round" stroke-linejoin="round" stroke-width="0.55"/>
        <line id="Line_15" data-name="Line 15" x2="65.596" transform="translate(164.087 177.38)" fill="none" stroke="#9edef8" stroke-linecap="round" stroke-linejoin="round" stroke-width="0.55"/>
        <line id="Line_16" data-name="Line 16" x2="65.596" transform="translate(164.087 186.971)" fill="none" stroke="#9edef8" stroke-linecap="round" stroke-linejoin="round" stroke-width="0.55"/>
        <line id="Line_17" data-name="Line 17" x2="65.596" transform="translate(164.087 196.574)" fill="none" stroke="#9edef8" stroke-linecap="round" stroke-linejoin="round" stroke-width="0.55"/>
        <rect id="Rectangle_176" data-name="Rectangle 176" width="288.791" height="8.904" transform="translate(60.769 119.892)" fill="#fff"/>
        <path id="Path_830" data-name="Path 830" d="M66.488,117.8A2.4,2.4,0,0,1,65,120.026a2.432,2.432,0,0,1-2.641-.518,2.387,2.387,0,0,1-.522-2.621,2.422,2.422,0,0,1,4.652.913Z" transform="translate(4.042 6.544)" fill="#ea4d7f" fill-rule="evenodd"/>
        <ellipse id="Ellipse_125" data-name="Ellipse 125" cx="2.408" cy="2.39" rx="2.408" ry="2.39" transform="translate(75.037 121.954)" fill="#ffc700"/>
        <path id="Path_831" data-name="Path 831" d="M83.988,117.8a2.4,2.4,0,0,1-1.488,2.226,2.432,2.432,0,0,1-2.641-.518,2.387,2.387,0,0,1-.522-2.621,2.422,2.422,0,0,1,4.652.913Z" transform="translate(5.19 6.544)" fill="#52b669" fill-rule="evenodd"/>
        <path id="Path_832" data-name="Path 832" d="M231.064,333.386l.309-.317-4.8-45.379H166.266l-7.747,45.379-.32.317Z" transform="translate(10.373 16.456)" fill="#002a68" fill-rule="evenodd"/>
        <g id="Group_19" data-name="Group 19" transform="translate(168.573 304.146)" opacity="0.3">
          <path id="Path_833" data-name="Path 833" d="M158.52,331.4l-.32.317h72.864l.309-.317-1.556-14.774H161.045Z" transform="translate(-158.2 -286.025)" fill="#002a68"/>
          <path id="Path_834" data-name="Path 834" d="M226.96,295.2l-.8-7.508H165.849L164.56,295.2Z" transform="translate(-157.783 -287.69)" fill="#002a68"/>
        </g>
        <rect id="Rectangle_177" data-name="Rectangle 177" width="103.126" height="8.82" transform="translate(153.602 341.022)" fill="#3ea1d1"/>
        <path id="Path_835" data-name="Path 835" d="M346.836,289.941H56.873A6.369,6.369,0,0,1,50.48,283.6V264.56H353.24V283.6a6.321,6.321,0,0,1-1.876,4.49A6.418,6.418,0,0,1,346.836,289.941Z" transform="translate(3.31 15.125)" fill="#3ea1d1" fill-rule="evenodd"/>
        <path id="Path_836" data-name="Path 836" d="M231.5,113.46H138.482c3.122,9.3,10.73,16.794,18.029,22.145l-.607.317a7.261,7.261,0,0,0-1.066.7,6.287,6.287,0,0,0-1.524,1.481,8.283,8.283,0,0,0-1.066,1.66v.063l-.16.286-.043.36a36.7,36.7,0,0,0-1.9,7.255,143.617,143.617,0,0,0-15.984,4.664,85.338,85.338,0,0,0-9.739,4.167c-.948.444-1.79.952-2.579,1.417l-2.312,1.385c-.607.381-1.151.783-1.63,1.142l-.639.476-.128.085a4.889,4.889,0,0,1-.469.349,16.393,16.393,0,0,0-1.918,1.565,41.06,41.06,0,0,0-7.139,8.767,75.2,75.2,0,0,0-5,9.433,150.306,150.306,0,0,0-7.033,19.321c-1.748,5.975-3.357,12.384-4.912,19.607-1.47,6.916-2.621,13.3-3.506,19.511l-.884,5.912h38.3l5.328,1.058.2-1.058H240.553l.192,1.058,5.328-1.058h37.721l-.852-5.88c-.9-6.25-2.035-12.637-3.506-19.543-1.556-7.223-3.2-13.632-4.923-19.617a150.743,150.743,0,0,0-7.022-19.3,76.793,76.793,0,0,0-5-9.444,41.08,41.08,0,0,0-7.15-8.767,16.4,16.4,0,0,0-1.918-1.565l-.469-.338-.128-.1-.629-.465c-.48-.36-1.066-.761-1.63-1.153l-2.355-1.4a27.321,27.321,0,0,0-2.547-1.407,82.822,82.822,0,0,0-9.718-4.156,142.151,142.151,0,0,0-16.154-4.7,36.329,36.329,0,0,0-1.9-7.233l-.1-.264-.149-.275-.053-.106a7.394,7.394,0,0,0-1.012-1.671,6.3,6.3,0,0,0-1.524-1.481,8.311,8.311,0,0,0-1.066-.7l-.554-.286C220.744,130.275,228.384,122.777,231.5,113.46Z" transform="translate(5.657 6.432)" fill="#00669c" opacity="0.15"/>
        <rect id="Rectangle_178" data-name="Rectangle 178" width="288.791" height="20.907" transform="translate(60.769 247.61)" fill="#ffc700"/>
        <path id="Path_837" data-name="Path 837" d="M152.459,244.46a6.49,6.49,0,1,1-6.489-6.43A6.465,6.465,0,0,1,152.459,244.46Z" transform="translate(9.146 13.599)" fill="#fff"/>
        <path id="Path_838" data-name="Path 838" d="M142.76,244.3l3.2-3.173a1.854,1.854,0,0,1,2.559.04,1.82,1.82,0,0,1,.051,2.54l-3.2,3.173-.064.063" transform="translate(9.361 13.749)" fill="none" stroke="#002a68" stroke-linecap="round" stroke-linejoin="round" stroke-width="0.47"/>
        <path id="Path_839" data-name="Path 839" d="M145.339,246.851l-.746.751a1.3,1.3,0,0,1-1.789-.033,1.273,1.273,0,0,1-.033-1.775l3.58-3.564" transform="translate(9.339 13.84)" fill="none" stroke="#002a68" stroke-linecap="round" stroke-linejoin="round" stroke-width="0.47"/>
        <path id="Path_840" data-name="Path 840" d="M144.23,244.235l2.131-2.115a.761.761,0,0,1,1.02.046.747.747,0,0,1,.046,1.012l-2.046,2" transform="translate(9.457 13.824)" fill="none" stroke="#002a68" stroke-linecap="round" stroke-linejoin="round" stroke-width="0.47"/>
        <ellipse id="Ellipse_126" data-name="Ellipse 126" cx="6.479" cy="6.43" rx="6.479" ry="6.43" transform="translate(128.028 251.629)" fill="#fff"/>
        <path id="Path_841" data-name="Path 841" d="M124.849,247.209h1.066v-5.774h-1.993v.941h-1V240.43h7.022v1.946h-1v-.941h-1.971v5.774h.927v.994h-3.069Z" transform="translate(8.06 13.737)" fill="#002a68"/>
        <ellipse id="Ellipse_127" data-name="Ellipse 127" cx="6.479" cy="6.43" rx="6.479" ry="6.43" transform="translate(107.431 251.629)" fill="#fff"/>
        <rect id="Rectangle_179" data-name="Rectangle 179" width="7.885" height="5.499" rx="0.34" transform="translate(109.967 255.309)" fill="#00669c"/>
        <path id="Path_842" data-name="Path 842" d="M111.066,246.715a.084.084,0,0,0,0-.053l-2.856-2.845,2.834-1.956a.316.316,0,0,0-.085-.19.129.129,0,0,0-.117,0l-3.719,2.57-3.729-2.57a.129.129,0,0,0-.117,0,.316.316,0,0,0-.085.19h0l2.834,1.956-2.856,2.845v.053a.432.432,0,0,0,.075.159h0a.139.139,0,0,0,.107,0L106.239,244l.735.508a.118.118,0,0,0,.085,0,.118.118,0,0,0,.075,0l.735-.508,2.9,2.876a.118.118,0,0,0,.1,0h0a.319.319,0,0,0,.2-.159Z" transform="translate(6.765 13.807)" fill="#002a68"/>
        <path id="Path_843" data-name="Path 843" d="M81.47,244.461a6.49,6.49,0,1,1,6.489,6.43A6.465,6.465,0,0,1,81.47,244.461Z" transform="translate(5.342 13.598)" fill="#fff"/>
        <rect id="Rectangle_180" data-name="Rectangle 180" width="7.129" height="5.869" rx="0.43" transform="translate(89.732 255.351)" fill="#00669c"/>
        <path id="Path_844" data-name="Path 844" d="M90.88,241.55h-6.2a.467.467,0,0,0-.469.465v.835h7.129v-.825A.467.467,0,0,0,90.88,241.55Z" transform="translate(5.522 13.801)" fill="#002a68"/>
        <rect id="Rectangle_181" data-name="Rectangle 181" width="1.183" height="1.174" transform="translate(90.787 257.318)" fill="#fff"/>
        <rect id="Rectangle_182" data-name="Rectangle 182" width="1.183" height="1.174" transform="translate(92.705 257.318)" fill="#fff"/>
        <rect id="Rectangle_183" data-name="Rectangle 183" width="1.183" height="1.174" transform="translate(94.633 257.318)" fill="#fff"/>
        <rect id="Rectangle_184" data-name="Rectangle 184" width="1.183" height="1.174" transform="translate(90.787 259.127)" fill="#fff"/>
        <rect id="Rectangle_185" data-name="Rectangle 185" width="1.183" height="1.174" transform="translate(92.705 259.127)" fill="#fff"/>
        <rect id="Rectangle_186" data-name="Rectangle 186" width="1.183" height="1.174" transform="translate(94.633 259.127)" fill="#fff"/>
        <line id="Line_18" data-name="Line 18" y2="0.92" transform="translate(91.426 254.897)" fill="none" stroke="#ffc700" stroke-linecap="round" stroke-linejoin="round" stroke-width="0.33"/>
        <line id="Line_19" data-name="Line 19" y2="0.92" transform="translate(95.177 254.897)" fill="none" stroke="#ffc700" stroke-linecap="round" stroke-linejoin="round" stroke-width="0.33"/>
        <ellipse id="Ellipse_128" data-name="Ellipse 128" cx="6.479" cy="6.43" rx="6.479" ry="6.43" transform="translate(210.461 251.629)" fill="#fff"/>
        <path id="Path_845" data-name="Path 845" d="M202,246.679V241.92a1.057,1.057,0,0,1,.623-1.012,1.072,1.072,0,0,1,1.178.2l2.739,2.379a1.052,1.052,0,0,1,0,1.629l-2.739,2.379a1.072,1.072,0,0,1-1.178.2A1.057,1.057,0,0,1,202,246.679Z" transform="translate(13.245 13.759)" fill="#ea4d7f"/>
        <path id="Path_846" data-name="Path 846" d="M303.712,240.929a.906.906,0,1,1-.906-.9A.9.9,0,0,1,303.712,240.929Z" transform="translate(19.795 13.714)" fill="#fff"/>
        <path id="Path_847" data-name="Path 847" d="M303.712,244.159a.906.906,0,1,1-.906-.9A.9.9,0,0,1,303.712,244.159Z" transform="translate(19.795 13.9)" fill="#fff"/>
        <path id="Path_848" data-name="Path 848" d="M303.712,247.389a.906.906,0,1,1-.906-.9A.9.9,0,0,1,303.712,247.389Z" transform="translate(19.795 14.085)" fill="#fff"/>
        <ellipse id="Ellipse_129" data-name="Ellipse 129" cx="6.479" cy="6.43" rx="6.479" ry="6.43" transform="translate(231.069 251.629)" fill="#fff"/>
        <g id="Group_20" data-name="Group 20" transform="translate(231.069 251.629)" clip-path="url(#clip-path)">
          <path id="Path_849" data-name="Path 849" d="M232.308,247.756v-.286c-1.215-1.956-2.9-4.325-3.889-4.23-1.662.137-5.626,4.42-5.626,4.42s-2.429-3.585-4.1-3.659c-.959,0-2.728,1.734-4.06,3.236v.539a2.95,2.95,0,0,0,.878,2.1,3,3,0,0,0,2.117.864h11.721A2.972,2.972,0,0,0,232.308,247.756Z" transform="translate(-216.996 -237.73)" fill="#52b669"/>
          <path id="Path_850" data-name="Path 850" d="M224.456,241.919a1.268,1.268,0,1,1-1.268-1.258A1.263,1.263,0,0,1,224.456,241.919Z" transform="translate(-216.518 -237.879)" fill="#ffc700"/>
        </g>
        <ellipse id="Ellipse_131" data-name="Ellipse 131" cx="6.479" cy="6.43" rx="6.479" ry="6.43" transform="translate(189.853 251.629)" fill="#fff"/>
        <rect id="Rectangle_187" data-name="Rectangle 187" width="1.62" height="5.7" transform="translate(193.859 255.203)" fill="#ea4d7f"/>
        <rect id="Rectangle_188" data-name="Rectangle 188" width="1.62" height="5.7" transform="translate(197.173 255.203)" fill="#ea4d7f"/>
        <ellipse id="Ellipse_132" data-name="Ellipse 132" cx="6.479" cy="6.43" rx="6.479" ry="6.43" transform="translate(169.244 251.629)" fill="#fff"/>
        <path id="Path_851" data-name="Path 851" d="M168.077,244.271a2.984,2.984,0,1,1-2.984-2.961A2.972,2.972,0,0,1,168.077,244.271Z" transform="translate(10.629 13.787)" fill="#ea4d7f"/>
        <path id="Path_852" data-name="Path 852" d="M263.309,250.577a5.191,5.191,0,0,0,.245-1.533,5.5,5.5,0,0,0-5.52-5.478,4.149,4.149,0,0,0-.522.053,8.152,8.152,0,0,0-15.28,0,4.526,4.526,0,0,0-.533-.053,5.5,5.5,0,0,0-5.52,5.478,5.567,5.567,0,0,0,.245,1.533Z" transform="translate(15.486 13.615)" fill="#fff"/>
        <path id="Path_853" data-name="Path 853" d="M253.306,244.6l-4.028-4.558L245.25,244.6h1.566v4.05h4.923V244.6Z" transform="translate(16.081 13.714)" fill="#00669c"/>
        <path id="Path_854" data-name="Path 854" d="M296.169,250.577a5.188,5.188,0,0,0,.245-1.533,5.446,5.446,0,0,0-1.61-3.873,5.53,5.53,0,0,0-3.9-1.605,4.132,4.132,0,0,0-.533.053,8.152,8.152,0,0,0-15.28,0,4.545,4.545,0,0,0-.533-.053,5.5,5.5,0,0,0-5.52,5.478,5.253,5.253,0,0,0,.256,1.533Z" transform="translate(17.641 13.615)" fill="#fff"/>
        <path id="Path_855" data-name="Path 855" d="M278.11,244.09l4.028,4.558,4.028-4.558H284.6v-4.05h-4.923v4.05Z" transform="translate(18.236 13.714)" fill="#52b669"/>
        <path id="Path_856" data-name="Path 856" d="M57,113.46V262.085H345.769V113.46ZM343.127,259.653H59.685V115.882H343.127Z" transform="translate(3.737 6.432)" fill="#b0b0b0" fill-rule="evenodd" opacity="0.5"/>
        <path id="Path_857" data-name="Path 857" d="M277.675,164.574C262.128,151.82,223.2,146.12,201.913,146.12s-60.215,5.7-75.762,18.454C107.631,179.749,99,238.707,99,238.707H304.857S296.194,179.749,277.675,164.574Z" transform="translate(6.491 8.311)" fill="#fff"/>
        <path id="Path_858" data-name="Path 858" d="M304.857,238.755A302.636,302.636,0,0,0,295.7,200.24a148.392,148.392,0,0,0-6.979-18.475,70.687,70.687,0,0,0-4.7-8.651,35.733,35.733,0,0,0-6.223-7.466,18.952,18.952,0,0,0-1.929-1.481c-.671-.465-1.3-.962-1.993-1.4l-2.131-1.227a22.25,22.25,0,0,0-2.131-1.163,81.7,81.7,0,0,0-9.089-3.839,146.792,146.792,0,0,0-19.159-5.214c-6.489-1.343-13.053-2.337-19.638-3.067a185.61,185.61,0,0,0-19.82-1.2,188.423,188.423,0,0,0-19.82,1.2c-6.6.74-13.16,1.724-19.638,3.067a144.279,144.279,0,0,0-19.18,5.235,77.133,77.133,0,0,0-9.089,3.839,20.1,20.1,0,0,0-2.131,1.153l-2.131,1.227c-.693.434-1.332.941-1.993,1.407A14.742,14.742,0,0,0,126,165.669a35.2,35.2,0,0,0-6.223,7.466,69.8,69.8,0,0,0-4.7,8.64,148.406,148.406,0,0,0-6.99,18.475A306.329,306.329,0,0,0,99,238.755c.927-6.546,2.131-13.05,3.5-19.522s2.9-12.912,4.784-19.258a146.819,146.819,0,0,1,6.8-18.687,70.858,70.858,0,0,1,4.667-8.841,36.781,36.781,0,0,1,6.393-7.826,17.81,17.81,0,0,1,1.993-1.576c.682-.486,1.353-1.058,2.057-1.481l2.131-1.29a22.513,22.513,0,0,1,2.216-1.216,78.711,78.711,0,0,1,9.239-3.955,148.17,148.17,0,0,1,19.319-5.372c6.543-1.385,13.149-2.4,19.788-3.173a185.839,185.839,0,0,1,20.011-1.28,188.6,188.6,0,0,1,20.011,1.28c6.639.772,13.245,1.8,19.777,3.173A146.02,146.02,0,0,1,261,155.094a79.874,79.874,0,0,1,9.249,3.955,22.421,22.421,0,0,1,2.206,1.227l2.131,1.29c.714.455,1.375.983,2.067,1.47a20.307,20.307,0,0,1,1.993,1.576,36.742,36.742,0,0,1,6.393,7.826,72.377,72.377,0,0,1,4.678,8.841,146.783,146.783,0,0,1,6.82,18.7c1.875,6.345,3.442,12.786,4.827,19.247S303.941,232.209,304.857,238.755Z" transform="translate(6.491 8.263)" fill="#b3c2d5"/>
        <path id="Path_859" data-name="Path 859" d="M203.293,185.071h0l9-10.089L202.259,162.62h-11.3l-10.048,12.363,9.015,10.089h0l-10.08,20.41v32.265h33.512V205.482Z" transform="translate(11.793 9.26)" fill="#002a68"/>
        <g id="Group_21" data-name="Group 21" transform="translate(191.643 183.45)" opacity="0.3">
          <path id="Path_860" data-name="Path 860" d="M189.285,183.73l.107.127h0l-1.321,2.665h16l-1.321-2.665h0l.107-.127Z" transform="translate(-179.311 -172.975)" fill="#fff"/>
          <rect id="Rectangle_189" data-name="Rectangle 189" width="33.512" height="2.792" transform="translate(0 53.786)" fill="#fff"/>
          <path id="Path_861" data-name="Path 861" d="M180.85,174.353l1.79,2h27.8l1.79-2-.639-.793H181.5Z" transform="translate(-179.784 -173.56)" fill="#fff"/>
          <rect id="Rectangle_190" data-name="Rectangle 190" width="33.512" height="2.792" transform="translate(0 32.276)" fill="#fff"/>
          <rect id="Rectangle_191" data-name="Rectangle 191" width="33.512" height="2.792" transform="translate(0 43.031)" fill="#fff"/>
          <path id="Path_862" data-name="Path 862" d="M184.465,193.91,183.09,196.7h26.618l-1.375-2.792Z" transform="translate(-179.638 -172.389)" fill="#fff"/>
        </g>
        <path id="Path_863" data-name="Path 863" d="M140.645,185.31l-9.707,51.311-1.748-.349Z" transform="translate(8.471 10.566)" fill="#b3c2d5"/>
        <path id="Path_864" data-name="Path 864" d="M251.74,185.31l11.455,50.962-1.748.349Z" transform="translate(16.506 10.566)" fill="#b3c2d5"/>
        <path id="Path_865" data-name="Path 865" d="M171.022,192.626l3.2,5.584,24.1-23.541,24.125,23.541,3.2-5.584c17.443-30.859,17.656-33.841,17.742-35.036,0,0,0-2.633-.3-6.028A211.132,211.132,0,0,0,214.7,146.93v2.189l-16.335,12.5-16.4-12.5v-2.178a212.907,212.907,0,0,0-28.387,4.643c-.277,3.384-.3,5.954-.3,6.017C153.365,158.732,153.589,161.809,171.022,192.626Z" transform="translate(10.051 8.358)" fill="#e8e8e8" opacity="0.8"/>
        <path id="Path_866" data-name="Path 866" d="M218.178,157.8s-6.553,11.633-20.246,11.633-22.3-11.633-22.3-11.633V118.09h42.623Z" transform="translate(11.516 6.699)" fill="#ffbf9d"/>
        <path id="Path_867" data-name="Path 867" d="M175.59,148.681a65.778,65.778,0,0,0,42.623,0V124.77H175.59Z" transform="translate(11.513 7.083)" fill="#ffbf9d" opacity="0.5"/>
        <path id="Path_868" data-name="Path 868" d="M195.52,168.524l21.311-16.275V134.44s13.735,3.511,15.728,5.489,3.325,14.953,3.1,18.041-17.124,32.974-17.124,32.974Z" transform="translate(12.82 7.639)" fill="#fff"/>
        <path id="Path_869" data-name="Path 869" d="M197.992,168.524,176.68,152.249V134.44s-13.735,3.511-15.728,5.489-3.325,14.953-3.1,18.041,17.209,32.974,17.209,32.974Z" transform="translate(10.349 7.639)" fill="#fff"/>
        <path id="Path_870" data-name="Path 870" d="M216.791,134.44q4.443.952,8.834,2.221c1.46.412,2.909.867,4.348,1.407a14.74,14.74,0,0,1,2.131.973,3.366,3.366,0,0,1,.533.36,1.538,1.538,0,0,1,.469.476,5.277,5.277,0,0,1,.629,1.058,42.764,42.764,0,0,1,2.057,8.926c.213,1.5.394,3.014.512,4.526.053.761.107,1.523.128,2.295v1.2a7.848,7.848,0,0,1-.32,1.311,86.871,86.871,0,0,1-3.857,8.291c-1.385,2.686-2.781,5.362-4.262,8.005q-4.316,7.963-8.844,15.8h0a.76.76,0,0,1-1.066.286.65.65,0,0,1-.17-.127c-3.783-3.775-7.523-7.6-11.3-11.411-1.886-1.893-3.729-3.828-5.594-5.753s-3.719-3.86-5.541-5.806c1.993,1.777,3.964,3.585,5.935,5.4s3.953,3.606,5.9,5.457c3.889,3.67,7.811,7.318,11.721,11.019l-1.215.169,8.642-15.863,4.262-7.974c1.353-2.665,2.781-5.362,3.879-8.037a8.932,8.932,0,0,0,.234-.878c0-.338,0-.687,0-1.058a22.208,22.208,0,0,0-.075-2.221c-.1-1.481-.213-2.972-.373-4.452a41.2,41.2,0,0,0-1.641-8.714,2.689,2.689,0,0,0-1.161-1.5,14.67,14.67,0,0,0-1.961-.973c-1.364-.6-2.781-1.142-4.2-1.65C222.577,136.238,219.69,135.328,216.791,134.44Z" transform="translate(12.818 7.639)" fill="#b3c2d5"/>
        <path id="Path_871" data-name="Path 871" d="M176.775,134.44c-2.888.888-5.786,1.8-8.631,2.8-1.428.508-2.845,1.058-4.209,1.65a15.341,15.341,0,0,0-1.961.973,2.625,2.625,0,0,0-1.151,1.512,41.89,41.89,0,0,0-1.652,8.714c-.149,1.481-.277,2.972-.373,4.452,0,.74-.075,1.491-.075,2.221v1.058a6.75,6.75,0,0,0,.245.878c1.066,2.676,2.515,5.372,3.879,8.037l4.262,7.974,8.642,15.863-1.215-.169c3.868-3.7,7.789-7.4,11.721-11.019,1.939-1.851,3.921-3.648,5.882-5.457s3.943-3.627,5.946-5.4q-2.749,2.919-5.552,5.806c-1.854,1.925-3.7,3.86-5.584,5.753-3.761,3.807-7.459,7.635-11.284,11.411a.771.771,0,0,1-1.066,0,.56.56,0,0,1-.128-.148h0q-4.529-7.836-8.844-15.8c-1.449-2.644-2.834-5.288-4.262-8.005a89.568,89.568,0,0,1-3.857-8.291,7.828,7.828,0,0,1-.309-1.311c0-.412,0-.8,0-1.195,0-.772.075-1.533.128-2.295.117-1.512.3-3.025.511-4.526A42.767,42.767,0,0,1,159.9,141a5.279,5.279,0,0,1,.629-1.057,1.539,1.539,0,0,1,.469-.476,3.2,3.2,0,0,1,.533-.36,15.284,15.284,0,0,1,2.131-.973c1.438-.539,2.888-.994,4.358-1.407Q172.331,135.392,176.775,134.44Z" transform="translate(10.308 7.639)" fill="#b3c2d5"/>
        <path id="Path_872" data-name="Path 872" d="M145.92,51.736v57.858c0,24.027,40.609,41.825,52.916,41.825s52.906-17.8,52.906-41.825V51.736C251.742,20.951,145.92,20.951,145.92,51.736Z" transform="translate(9.568 1.553)" fill="#ffbf9d"/>
        <path id="Path_873" data-name="Path 873" d="M254.395,90.234s-11.934.317-14.4-24.461-9.59-28.987-17.6-21.151c-10.656,10.427-34.695,11.146-44.754.751-8.908-9.19-15.984-2.813-15.984,20.442,0,10.216.757,26.713-19.692,24.461,0,0-6.393-15.218-4.923-36.072S147.7,24.593,153.7,22.3c0,0,9.59-22.208,44.754-22.208,35.931,0,39.938,22.261,39.938,22.261s21.162,5.14,21.684,30.679S254.395,90.234,254.395,90.234Z" transform="translate(8.971 -0.09)" fill="#743208"/>
        <path id="Path_874" data-name="Path 874" d="M245.23,73.219v27.253s9.952.243,14.151-8.725C264.879,80,255.918,67.984,245.23,73.219Z" transform="translate(16.08 4.045)" fill="#ffbf9d"/>
        <path id="Path_875" data-name="Path 875" d="M247.26,77.017c-1.673.582,9.888-3.966,9.111,9.169" transform="translate(16.202 4.318)" fill="none" stroke="#d56556" stroke-linecap="round" stroke-linejoin="round" stroke-width="1.05"/>
        <path id="Path_876" data-name="Path 876" d="M146.893,73.219v27.253s-9.952.243-14.151-8.725C127.255,80,136.206,67.984,146.893,73.219Z" transform="translate(8.595 4.045)" fill="#ffbf9d"/>
        <path id="Path_877" data-name="Path 877" d="M144.463,77.017c1.673.582-9.888-3.966-9.111,9.169" transform="translate(8.873 4.318)" fill="none" stroke="#d56556" stroke-linecap="round" stroke-linejoin="round" stroke-width="1.05"/>
        <path id="Path_878" data-name="Path 878" d="M210.346,109.477c-3.815-3.638-8.3,1.9-14.822,1.9s-11-5.541-14.811-1.9,1.7,15.514,14.811,15.355C208.642,124.991,214.129,113.115,210.346,109.477Z" transform="translate(11.772 6.132)" fill="#fff"/>
        <path id="Path_879" data-name="Path 879" d="M228.594,105.833s-5.328-1.11-12.787-7.635c-10.123-8.862-19.18.719-19.18.719s-8.525-10.945-19.18-.719c-7.118,6.874-12.787,7.635-12.787,7.635s14.993,11.961,31.967,6.8C213.6,117.794,228.594,105.833,228.594,105.833Z" transform="translate(10.797 5.303)" fill="#743208"/>
        <path id="Path_880" data-name="Path 880" d="M193.331,72.59S195.313,80.8,187.6,88.6c-6.308,6.345,2.685,17.555,13.266,7.953" transform="translate(12.164 4.081)" fill="#ffbf9d" stroke="#d56556" stroke-linecap="round" stroke-linejoin="round" stroke-width="1.44"/>
        <path id="Path_881" data-name="Path 881" d="M180.644,73.7c0,3.173-1.652,5.658-3.7,5.658S173.26,76.83,173.26,73.7s1.652-5.7,3.687-5.7S180.644,70.57,180.644,73.7Z" transform="translate(11.361 3.817)" fill="#491e05"/>
        <path id="Path_882" data-name="Path 882" d="M219.214,73.7c0,3.173-1.652,5.658-3.687,5.658s-3.7-2.528-3.7-5.658,1.652-5.7,3.7-5.7S219.214,70.57,219.214,73.7Z" transform="translate(13.89 3.817)" fill="#491e05"/>
        <path id="Path_883" data-name="Path 883" d="M168.38,67.571s6.2-5.288,15.984-1.163C184.321,66.408,176.095,56.255,168.38,67.571Z" transform="translate(11.041 3.484)" fill="#743208"/>
        <path id="Path_884" data-name="Path 884" d="M223.764,67.571s-6.212-5.288-15.984-1.163C207.823,66.408,216.038,56.255,223.764,67.571Z" transform="translate(13.624 3.484)" fill="#743208"/>
        <g id="Group_22" data-name="Group 22" transform="translate(145.776 36.019)" opacity="0.2">
          <path id="Path_885" data-name="Path 885" d="M232.18,53.174c.533,2.475.98,5.288,1.353,8.46a36,36,0,0,0,20.3-8.957V50.922A36.17,36.17,0,0,0,250.476,36C244.434,45.571,237.593,50.562,232.18,53.174Z" transform="translate(-130.552 -34.044)" fill="#fff"/>
          <path id="Path_886" data-name="Path 886" d="M252.618,70.022a115.951,115.951,0,0,0,1.066-14.372,39.969,39.969,0,0,1-20.043,7.128,60.416,60.416,0,0,0,1.247,7.731,37.247,37.247,0,0,0,17.731-.486Z" transform="translate(-130.457 -32.913)" fill="#fff"/>
          <path id="Path_887" data-name="Path 887" d="M136.864,54.25a90,90,0,0,0,.725,15.059,37.714,37.714,0,0,0,23.943.338c.128-2.369.107-4.7.107-6.768C156.9,63.059,147.509,62.15,136.864,54.25Z" transform="translate(-136.806 -32.994)" fill="#fff"/>
          <path id="Path_888" data-name="Path 888" d="M141.084,34.15a54.446,54.446,0,0,0-3.964,16.92,35.924,35.924,0,0,0,24.508,10.988,79.866,79.866,0,0,1,.5-8.048C156.172,51.483,148,46.026,141.084,34.15Z" transform="translate(-136.785 -34.15)" fill="#fff"/>
        </g>
        <path id="Path_889" data-name="Path 889" d="M162.9,220.34h64.147a7.367,7.367,0,0,1,7.4,7.339v7.339H155.5v-7.339A7.367,7.367,0,0,1,162.9,220.34Z" transform="translate(10.196 12.581)" fill="#ea4d7f"/>
        <path id="Path_890" data-name="Path 890" d="M168.424,229.124v.983H164.29V224.82h4.038v.994h-2.813v1.153H168v.952h-2.483v1.227Z" transform="translate(10.772 12.839)" fill="#fff"/>
        <path id="Path_891" data-name="Path 891" d="M174.622,224.8v5.288h-1.012l-2.675-3.173v3.173H169.72V224.8h1.066l2.653,3.173V224.8Z" transform="translate(11.128 12.838)" fill="#fff"/>
        <path id="Path_892" data-name="Path 892" d="M177.206,225.8H175.49v-1h4.667v1h-1.716v4.3h-1.236Z" transform="translate(11.507 12.838)" fill="#fff"/>
        <path id="Path_893" data-name="Path 893" d="M185.188,229.124v.983H181V224.82h4.038v.994h-2.76v1.153h2.483v.952h-2.483v1.227Z" transform="translate(11.868 12.839)" fill="#fff"/>
        <path id="Path_894" data-name="Path 894" d="M189.882,230.108l-1.066-1.481h-1.14v1.481H186.44V224.82h2.312c1.439,0,2.323.74,2.323,1.935a1.723,1.723,0,0,1-1.066,1.671l1.2,1.7Zm-1.161-4.3h-1.066v1.851h1.066c.757,0,1.14-.349,1.14-.92S189.477,225.8,188.72,225.8Z" transform="translate(12.225 12.839)" fill="#fff"/>
        <path id="Path_895" data-name="Path 895" d="M194.32,227.459a2.922,2.922,0,0,1,1.952-2.577,2.956,2.956,0,0,1,3.152.779l-.8.73a1.67,1.67,0,1,0-1.343,2.771,1.689,1.689,0,0,0,1.343-.635l.8.73a2.956,2.956,0,0,1-3.152.779,2.922,2.922,0,0,1-1.952-2.577Z" transform="translate(12.741 12.833)" fill="#fff"/>
        <path id="Path_896" data-name="Path 896" d="M200.42,224.8h1.247v4.315h2.675v.994H200.42Z" transform="translate(13.141 12.838)" fill="#fff"/>
        <path id="Path_897" data-name="Path 897" d="M209.16,228.976h-2.483l-.469,1.132H204.94l2.376-5.288h1.225l2.387,5.288h-1.289Zm-.384-.931L207.924,226l-.852,2.041Z" transform="translate(13.438 12.839)" fill="#fff"/>
        <path id="Path_898" data-name="Path 898" d="M211.4,229.6l.416-.931a3.214,3.214,0,0,0,1.769.561c.735,0,1.066-.243,1.066-.571,0-.994-3.111-.307-3.111-2.284,0-.9.735-1.65,2.248-1.65a3.7,3.7,0,0,1,1.865.465l-.416.888a3.119,3.119,0,0,0-1.481-.412c-.735,0-1.066.275-1.066.6,0,.984,3.111.307,3.111,2.253,0,.888-.735,1.65-2.27,1.65a3.858,3.858,0,0,1-2.131-.571Z" transform="translate(13.861 12.833)" fill="#fff"/>
        <path id="Path_899" data-name="Path 899" d="M216.58,229.6l.416-.931a3.214,3.214,0,0,0,1.769.561c.735,0,1.066-.243,1.066-.571,0-.994-3.112-.307-3.112-2.284,0-.9.735-1.65,2.259-1.65a3.656,3.656,0,0,1,1.854.465l-.384.931a3.118,3.118,0,0,0-1.481-.412c-.735,0-1.012.275-1.012.6,0,.984,3.1.307,3.1,2.253,0,.888-.735,1.65-2.27,1.65a3.858,3.858,0,0,1-2.206-.613Z" transform="translate(14.201 12.833)" fill="#fff"/>
        <path id="Path_900" data-name="Path 900" d="M234.71,232.42l-7.938-4.05-.021.011.938,8.82,2.28-2.179,2.216,3.2L234,237l-2.184-3.236Z" transform="translate(14.868 13.043)" fill="#fff"/>
        <path id="Path_901" data-name="Path 901" d="M232.2,238.481h0a.2.2,0,0,1-.149-.1l-2.1-2.993-2.131,1.988a.236.236,0,0,1-.245.053.244.244,0,0,1-.16-.2l-.948-8.809a.243.243,0,0,1,.107-.222h0a.257.257,0,0,1,.245,0l7.949,4.05a.253.253,0,0,1,.128.222.243.243,0,0,1-.139.211l-2.643,1.216,2.014,3a.221.221,0,0,1-.064.328l-1.7,1.206a.3.3,0,0,1-.16.042Zm-2.216-3.691h0a.288.288,0,0,1,.171.106l2.078,3.014,1.417-.962-2.046-3.046a.2.2,0,0,1,0-.19.244.244,0,0,1,.128-.159l2.451-1.132-7.139-3.638.852,7.921,1.929-1.84a.224.224,0,0,1,.16-.074Z" transform="translate(14.849 13.032)" fill="#002a68"/>
        <path id="Path_902" data-name="Path 902" d="M227.084,227.311a.234.234,0,0,1-.224-.222v-1.406a.224.224,0,0,1,.448,0v1.407A.234.234,0,0,1,227.084,227.311Z" transform="translate(14.875 12.876)" fill="#002a68"/>
        <path id="Path_903" data-name="Path 903" d="M226.147,227.56a.235.235,0,0,1-.192-.106l-.7-1.216a.211.211,0,0,1,.075-.3.214.214,0,0,1,.3.074l.7,1.216a.211.211,0,0,1-.075.3A.2.2,0,0,1,226.147,227.56Z" transform="translate(14.768 12.901)" fill="#002a68"/>
        <path id="Path_904" data-name="Path 904" d="M225.459,228.25a.247.247,0,0,1-.117,0l-1.215-.7a.211.211,0,0,1-.085-.3.225.225,0,0,1,.3-.085l1.225.709a.211.211,0,0,1,.075.3A.2.2,0,0,1,225.459,228.25Z" transform="translate(14.688 12.973)" fill="#002a68"/>
        <path id="Path_905" data-name="Path 905" d="M225.2,229.194h-1.407a.214.214,0,0,1-.158-.058.211.211,0,0,1-.066-.153.223.223,0,0,1,.224-.222H225.2a.223.223,0,0,1,.224.222.21.21,0,0,1-.066.153A.214.214,0,0,1,225.2,229.194Z" transform="translate(14.659 13.065)" fill="#002a68"/>
        <path id="Path_906" data-name="Path 906" d="M224.234,230.882a.235.235,0,0,1-.192-.106.221.221,0,0,1,.085-.307l1.215-.7a.225.225,0,0,1,.3.085.211.211,0,0,1-.075.3l-1.225.7a.2.2,0,0,1-.107.032Z" transform="translate(14.688 13.122)" fill="#002a68"/>
        <path id="Path_907" data-name="Path 907" d="M228.783,228.252a.2.2,0,0,1-.181-.106.211.211,0,0,1,.075-.3l1.225-.709a.225.225,0,0,1,.3.085.211.211,0,0,1-.085.3l-1.215.7a.247.247,0,0,1-.117.032Z" transform="translate(14.987 12.971)" fill="#002a68"/>
        <path id="Path_908" data-name="Path 908" d="M228.063,227.558a.2.2,0,0,1-.107,0,.211.211,0,0,1-.075-.3l.7-1.216a.218.218,0,0,1,.3-.074.215.215,0,0,1,.075.3l-.7,1.216A.235.235,0,0,1,228.063,227.558Z" transform="translate(14.94 12.903)" fill="#002a68"/>
        <path id="Path_909" data-name="Path 909" d="M352.446,76.4h-63a9.225,9.225,0,0,0-9.249,9.19v29.516a9.214,9.214,0,0,0,9.249,9.179h4.262l-8.141,18.877,36.123-18.877h30.752a9.214,9.214,0,0,0,9.249-9.179V85.59a9.225,9.225,0,0,0-9.249-9.19Z" transform="translate(18.373 4.3)" fill="#fff"/>
        <path id="Path_910" data-name="Path 910" d="M352.446,76.4h-63a9.225,9.225,0,0,0-9.249,9.19v29.516a9.214,9.214,0,0,0,9.249,9.179h4.262l-8.141,18.877,36.123-18.877h30.752a9.214,9.214,0,0,0,9.249-9.179V85.59a9.225,9.225,0,0,0-9.249-9.19Z" transform="translate(18.373 4.3)" fill="none" stroke="#b3c2d5" stroke-linecap="round" stroke-linejoin="round" stroke-width="1.31"/>
        <path id="Path_911" data-name="Path 911" d="M315.7,111.069h-10.3l-1.822,4.685H294.28l11.849-26.9h8.983l11.9,26.9h-9.452Zm-2.536-6.536-2.632-6.768-2.643,6.768Z" transform="translate(19.296 5.016)" fill="#002a68"/>
        <path id="Path_912" data-name="Path 912" d="M346.378,95.6h-6.393v6.176h-7V95.6H326.59V89.046h6.393V82.87h7v6.176h6.393Z" transform="translate(21.414 4.672)" fill="#002a68"/>
        <path id="Path_913" data-name="Path 913" d="M28.039,205.276h63a9.214,9.214,0,0,0,9.249-9.179V166.57a9.214,9.214,0,0,0-9.249-9.179H86.773l8.141-16.741L58.791,157.391H28.039a9.214,9.214,0,0,0-9.249,9.179V196.1a9.214,9.214,0,0,0,9.249,9.179Z" transform="translate(1.232 7.996)" fill="#fff"/>
        <path id="Path_914" data-name="Path 914" d="M28.039,205.276h63a9.214,9.214,0,0,0,9.249-9.179V166.57a9.214,9.214,0,0,0-9.249-9.179H86.773l8.141-16.741L58.791,157.391H28.039a9.214,9.214,0,0,0-9.249,9.179V196.1a9.214,9.214,0,0,0,9.249,9.179Z" transform="translate(1.232 7.996)" fill="none" stroke="#b3c2d5" stroke-linecap="round" stroke-linejoin="round" stroke-width="1.31"/>
        <path id="Path_915" data-name="Path 915" d="M47.38,191.476V167.788a3.446,3.446,0,0,1,2.04-3.14,3.5,3.5,0,0,1,3.725.549l13.607,11.844a3.43,3.43,0,0,1,0,5.182L53.145,194.067a3.494,3.494,0,0,1-3.724.549,3.446,3.446,0,0,1-2.041-3.14Z" transform="translate(3.107 9.359)" fill="#ea4d7f"/>
        <path id="Path_942" data-name="Path 942" d="M0,0,72.762.049l0,5.935L0,5.935Z" transform="matrix(0.088, -0.996, 0.996, 0.088, 26.776, 322.476)" fill="#00669c"/>
        <path id="Path_916" data-name="Path 916" d="M28.4,268.259h5.957l.543-6.049H28.943Z" transform="translate(1.862 14.99)" fill="#00669c" opacity="0.5"/>
        <path id="Path_917" data-name="Path 917" d="M31.058,305.549a3,3,0,0,1-5.967-.529Z" transform="translate(1.644 17.453)" fill="#e8e8e8"/>
        <path id="Path_918" data-name="Path 918" d="M35.719,227.375l1.375,10.184-5.9-.518,3.2-9.761a4.827,4.827,0,0,0,.682.116,3.787,3.787,0,0,0,.65-.021Z" transform="translate(2.045 12.98)" fill="#fff"/>
        <path id="Path_919" data-name="Path 919" d="M35.525,227.537a3.791,3.791,0,0,1-.693,0,4.836,4.836,0,0,1-.682-.116l.959-2.951Z" transform="translate(2.239 12.819)" fill="#00669c"/>
        <path id="Path_943" data-name="Path 943" d="M0,0,72.762.044l0,5.935L0,5.935Z" transform="translate(19.446 327.532) rotate(-85.46)" fill="#ea4d7f"/>
        <path id="Path_920" data-name="Path 920" d="M21.58,268.259h5.946l.49-6.049H22.06Z" transform="translate(1.415 14.99)" fill="#00669c" opacity="0.5"/>
        <path id="Path_921" data-name="Path 921" d="M24.188,310.285a2.971,2.971,0,0,1-1.673,2.528,3.013,3.013,0,0,1-3.039-.237,2.963,2.963,0,0,1-1.255-2.757Z" transform="translate(1.194 17.729)" fill="#e8e8e8"/>
        <path id="Path_922" data-name="Path 922" d="M28.143,232.085l1.47,10.142-5.914-.465L26.769,232a4.831,4.831,0,0,0,.682.116,5.03,5.03,0,0,0,.693-.032Z" transform="translate(1.554 13.252)" fill="#fff"/>
        <path id="Path_923" data-name="Path 923" d="M27.955,232.247a5.035,5.035,0,0,1-.693,0,4.825,4.825,0,0,1-.682-.116l.927-2.961Z" transform="translate(1.743 13.089)" fill="#ea4d7f"/>
        <path id="Path_944" data-name="Path 944" d="M0,0,72.764.055l0,5.935L0,5.935Z" transform="translate(33.14 332.406) rotate(-84.24)" fill="#ffc700"/>
        <path id="Path_924" data-name="Path 924" d="M35.79,268.259h5.967l.618-6.049H36.408Z" transform="translate(2.347 14.99)" fill="#00669c" opacity="0.5"/>
        <path id="Path_925" data-name="Path 925" d="M31.081,314.41a2.994,2.994,0,0,0,5.957.6Z" transform="translate(2.037 17.993)" fill="#e8e8e8"/>
        <path id="Path_926" data-name="Path 926" d="M41.282,236.77,38,246.531l5.9.592L42.646,236.95a5.093,5.093,0,0,1-.693,0A4.845,4.845,0,0,1,41.282,236.77Z" transform="translate(2.492 13.526)" fill="#fff"/>
        <path id="Path_927" data-name="Path 927" d="M41.08,236.929a4.851,4.851,0,0,0,.682.127,5.078,5.078,0,0,0,.693,0L42.06,234Z" transform="translate(2.694 13.367)" fill="#ffc700"/>
        <path id="Path_928" data-name="Path 928" d="M31.658,265.4H0l7.107,69.268h37.7L51.925,265.4Z" transform="translate(0 15.173)" fill="#52b669"/>
        <path id="Path_929" data-name="Path 929" d="M48.685,277.482h-.192a1.373,1.373,0,0,0-1.566,1.142l-.458,3.046H34.96l-.458-3.056a1.373,1.373,0,0,0-1.566-1.142h-.192a1.373,1.373,0,0,0-1.566,1.142l-.458,3.046H20.8L16.59,333.975H43.73l5.775-56.366A1.341,1.341,0,0,0,48.685,277.482Z" transform="translate(1.088 15.867)" fill="#52b669" opacity="0.5"/>
        <path id="Path_930" data-name="Path 930" d="M78.333,287.369H78.12A1.365,1.365,0,0,1,77,285.8l1.066-7.181a1.374,1.374,0,0,1,2.717.413l-1.066,7.181A1.383,1.383,0,0,1,78.333,287.369Z" transform="translate(5.048 15.867)" fill="#ffc700"/>
        <path id="Path_931" data-name="Path 931" d="M63.555,287.368h-.213a1.366,1.366,0,0,1-1.151-1.555l1.066-7.181a1.374,1.374,0,0,1,2.717.412l-1.066,7.181a1.382,1.382,0,0,1-1.353,1.142Z" transform="translate(4.077 15.868)" fill="#ffc700"/>
        <path id="Path_932" data-name="Path 932" d="M48.764,287.368h-.2a1.366,1.366,0,0,1-1.151-1.555l1.066-7.181a1.4,1.4,0,0,1,2.76.455l-1.066,7.181A1.383,1.383,0,0,1,48.764,287.368Z" transform="translate(3.108 15.868)" fill="#ffc700"/>
        <path id="Path_933" data-name="Path 933" d="M33.984,287.368h-.2a1.366,1.366,0,0,1-1.151-1.555l1.066-7.181a1.374,1.374,0,0,1,2.717.412l-1.066,7.181A1.382,1.382,0,0,1,33.984,287.368Z" transform="translate(2.139 15.868)" fill="#ffc700"/>
        <path id="Path_934" data-name="Path 934" d="M82.86,333.745H19.97l4.209-52.305H96.116Z" transform="translate(1.309 16.096)" fill="#c93368"/>
        <path id="Path_935" data-name="Path 935" d="M103.865,333.745h-75.3L23.99,281.44H95.628Z" transform="translate(1.573 16.096)" fill="#ea4d7f"/>
        <path id="Path_936" data-name="Path 936" d="M103.781,332.9h-75.3L25.27,296.1H98.293Z" transform="translate(1.657 16.94)" fill="#fff"/>
        <path id="Path_937" data-name="Path 937" d="M36.67,287.359a1.382,1.382,0,0,1-1.353-1.163l-1.066-7.181a1.368,1.368,0,0,1,2.707-.4l1.066,7.181a1.346,1.346,0,0,1-.252,1.01,1.366,1.366,0,0,1-.9.534Z" transform="translate(2.245 15.867)" fill="#fff"/>
        <path id="Path_938" data-name="Path 938" d="M51.45,287.369a1.382,1.382,0,0,1-1.353-1.163l-1.066-7.181a1.368,1.368,0,0,1,2.707-.4L52.8,285.8a1.346,1.346,0,0,1-.252,1.01,1.366,1.366,0,0,1-.9.534Z" transform="translate(3.214 15.867)" fill="#fff"/>
        <path id="Path_939" data-name="Path 939" d="M66.24,287.376a1.382,1.382,0,0,1-1.364-1.163l-1.066-7.181a1.375,1.375,0,0,1,2.717-.4l1.066,7.181a1.346,1.346,0,0,1-.252,1.01,1.366,1.366,0,0,1-.9.534Z" transform="translate(4.183 15.87)" fill="#fff"/>
        <path id="Path_940" data-name="Path 940" d="M81.019,287.386a1.361,1.361,0,0,1-1.353-1.163L78.6,279.042a1.375,1.375,0,0,1,2.717-.4l1.066,7.17a1.366,1.366,0,0,1-1.151,1.555Z" transform="translate(5.153 15.871)" fill="#fff"/>
        <path id="Path_941" data-name="Path 941" d="M101.969,321.09l-.064-.423H92.56l-2.131-14.076h9.089l-.085-.423H90.365l-1.5-10.068h-.437l1.5,10.068h-12.5L75.915,296.1h-.437L77,306.168H64.5L62.979,296.1h-.437l1.524,10.068h-12.5L50.043,296.1h-.437l1.524,10.068h-12.5L37.107,296.1h-.458l1.524,10.068H26.1v.423H38.258l2.131,14.076H27.6v.423H40.389l1.79,11.813h.426L40.911,321.09H53.389l1.79,11.813h.426L53.826,321.09h12.5L68.1,332.9h.437l-1.78-11.813h12.51l1.78,11.813h.437L79.7,321.09H92.2L93.977,332.9h.437l-1.79-11.813Zm-61.142-.423L38.7,306.591h12.5l2.131,14.076Zm12.936,0-2.131-14.076h12.5l2.131,14.076Zm12.925,0-2.12-14.1h12.5L79.2,320.645Zm12.936,0-2.131-14.076H90l2.131,14.076Z" transform="translate(1.711 16.94)" fill="#b0b0b0"/>
      </g>
    </g>
  </g>
</svg>
