<svg id="Layer_2" data-name="Layer 2" xmlns="http://www.w3.org/2000/svg" width="839" height="813.574" viewBox="0 0 839 813.574">
  <g id="OBJECTS">
    <rect id="Rectangle_312" data-name="Rectangle 312" width="839" height="813.574" transform="translate(839 813.574) rotate(180)" fill="#ff0b53"/>
    <path id="Path_1869" data-name="Path 1869" d="M733.12,813.544s-91.84-346.083,174.47-446.7S1128.44,0,1128.44,0h102.78V813.544Z" transform="translate(-392.22)" fill="#fd9644"/>
    <path id="Path_1870" data-name="Path 1870" d="M498.17,0S590,346.083,323.71,446.705,102.86,813.544,102.86,813.544H.08V0Z" fill="#59b2ef"/>
    <path id="Path_1871" data-name="Path 1871" d="M569.38,1022.684s69.3-303.232,249.38-335.363S1063.13,504.5,1077.65,465.955s67.14-204.772,153.57-208.615v765.344Z" transform="translate(-392.22 -209.139)" fill="#fdbd47"/>
    <path id="Path_1872" data-name="Path 1872" d="M490.34,0S439,161.91,305.61,179.07s-181,97.62-191.77,118.19S64.1,406.6.08,408.65V0Z" fill="#4b52d1"/>
  </g>
</svg>
